999
dxfrw 0.5.10
0
SECTION
2
HEADER
9
$ACADVER
1
AC1021
9
$HANDSEED
5
20000
9
$DWGCODEPAGE
3
ANSI_1252
9
$INSBASE
10
0
20
0
30
0
9
$EXTMIN
10
-20
20
-9
30
0
9
$EXTMAX
10
380
20
600
30
0
9
$LIMMIN
10
0
20
0
9
$LIMMAX
10
420
20
297
9
$ORTHOMODE
70
0
9
$LTSCALE
40
1
9
$TEXTSTYLE
7
STANDARD
9
$DIMASZ
40
2.5
9
$DIMSCALE
40
1
9
$DIMEXO
40
0.625
9
$DIMEXE
40
1.25
9
$DIMTXT
40
2.5
9
$DIMTSZ
40
0
9
$DIMAUNIT
70
0
9
$DIMADEC
70
0
9
$DIMLUNIT
70
2
9
$DIMSTYLE
2
STANDARD
9
$DIMGAP
40
0.625
9
$DIMTIH
70
0
9
$LUNITS
70
2
9
$LUPREC
70
4
9
$AUNITS
70
0
9
$AUPREC
70
2
9
$SPLINESEGS
70
8
9
$GRIDMODE
70
1
9
$SNAPSTYLE
70
0
9
$PINSBASE
10
0
20
0
30
0
9
$PLIMMIN
10
0
20
0
9
$PLIMMAX
10
210
20
297
9
$INSUNITS
70
4
9
$PSVPSCALE
40
1
0
ENDSEC
0
SECTION
2
CLASSES
0
ENDSEC
0
SECTION
2
TABLES
0
TABLE
2
VPORT
5
8
330
0
100
AcDbSymbolTable
70
1
0
VPORT
5
31
330
2
100
AcDbSymbolTableRecord
100
AcDbViewportTableRecord
2
*ACTIVE
70
0
10
0
20
0
11
1
21
1
12
191.51547644
22
283.375112042
13
0
23
0
14
10
24
10
15
10
25
10
16
0
26
0
36
1
17
0
27
0
37
0
40
89.0349235603
41
1.91370558376
42
50
43
0
44
0
50
0
51
0
71
0
72
100
73
1
74
3
75
0
76
1
77
0
78
0
281
0
65
1
110
0
120
0
130
0
111
1
121
0
131
0
112
0
122
1
132
0
79
0
146
0
348
10020
60
7
61
5
292
1
282
1
141
0
142
0
63
250
421
3358443
0
ENDTAB
0
TABLE
2
LTYPE
5
5
330
0
100
AcDbSymbolTable
70
4
0
LTYPE
5
14
330
5
100
AcDbSymbolTableRecord
100
AcDbLinetypeTableRecord
2
ByBlock
70
0
3

72
65
73
0
40
0
0
LTYPE
5
15
330
5
100
AcDbSymbolTableRecord
100
AcDbLinetypeTableRecord
2
ByLayer
70
0
3

72
65
73
0
40
0
0
LTYPE
5
16
330
5
100
AcDbSymbolTableRecord
100
AcDbLinetypeTableRecord
2
Continuous
70
0
3
Solid line
72
65
73
0
40
0
0
LTYPE
5
32
330
5
100
AcDbSymbolTableRecord
100
AcDbLinetypeTableRecord
2
DOT
70
0
3
Dot . . . . . . . . . . . . . . . . . . . . . .
72
65
73
2
40
6.35
49
0
74
0
49
-6.35
74
0
0
LTYPE
5
33
330
5
100
AcDbSymbolTableRecord
100
AcDbLinetypeTableRecord
2
DOT2
70
0
3
Dot (.5x) .....................................
72
65
73
2
40
3.175
49
0
74
0
49
-3.175
74
0
0
LTYPE
5
34
330
5
100
AcDbSymbolTableRecord
100
AcDbLinetypeTableRecord
2
DOTX2
70
0
3
Dot (2x) .  .  .  .  .  .  .  .  .  .  .  .  .
72
65
73
2
40
12.7
49
0
74
0
49
-12.7
74
0
0
LTYPE
5
35
330
5
100
AcDbSymbolTableRecord
100
AcDbLinetypeTableRecord
2
DASHED
70
0
3
Dot . . . . . . . . . . . . . . . . . . . . . .
72
65
73
2
40
19.05
49
12.7
74
0
49
-6.35
74
0
0
LTYPE
5
36
330
5
100
AcDbSymbolTableRecord
100
AcDbLinetypeTableRecord
2
DASHED2
70
0
3
Dashed (.5x) _ _ _ _ _ _ _ _ _ _ _ _ _ _ _ _ _
72
65
73
2
40
9.525
49
6.35
74
0
49
-3.175
74
0
0
LTYPE
5
37
330
5
100
AcDbSymbolTableRecord
100
AcDbLinetypeTableRecord
2
DASHEDX2
70
0
3
Dashed (2x) ____  ____  ____  ____  ____  ___
72
65
73
2
40
38.1
49
25.4
74
0
49
-12.7
74
0
0
LTYPE
5
38
330
5
100
AcDbSymbolTableRecord
100
AcDbLinetypeTableRecord
2
DASHDOT
70
0
3
Dash dot __ . __ . __ . __ . __ . __ . __ . __
72
65
73
4
40
25.4
49
12.7
74
0
49
-6.35
74
0
49
0
74
0
49
-6.35
74
0
0
LTYPE
5
39
330
5
100
AcDbSymbolTableRecord
100
AcDbLinetypeTableRecord
2
DASHDOT2
70
0
3
Dash dot (.5x) _._._._._._._._._._._._._._._.
72
65
73
4
40
12.7
49
6.35
74
0
49
-3.175
74
0
49
0
74
0
49
-3.175
74
0
0
LTYPE
5
3A
330
5
100
AcDbSymbolTableRecord
100
AcDbLinetypeTableRecord
2
DASHDOTX2
70
0
3
Dash dot (2x) ____  .  ____  .  ____  .  ___
72
65
73
4
40
50.8
49
25.4
74
0
49
-12.7
74
0
49
0
74
0
49
-12.7
74
0
0
LTYPE
5
3B
330
5
100
AcDbSymbolTableRecord
100
AcDbLinetypeTableRecord
2
DIVIDE
70
0
3
Divide ____ . . ____ . . ____ . . ____ . . ____
72
65
73
6
40
31.75
49
12.7
74
0
49
-6.35
74
0
49
0
74
0
49
-6.35
74
0
49
0
74
0
49
-6.35
74
0
0
LTYPE
5
3C
330
5
100
AcDbSymbolTableRecord
100
AcDbLinetypeTableRecord
2
DIVIDE2
70
0
3
Divide (.5x) __..__..__..__..__..__..__..__.._
72
65
73
6
40
15.875
49
6.35
74
0
49
-3.175
74
0
49
0
74
0
49
-3.175
74
0
49
0
74
0
49
-3.175
74
0
0
LTYPE
5
3D
330
5
100
AcDbSymbolTableRecord
100
AcDbLinetypeTableRecord
2
DIVIDEX2
70
0
3
Divide (2x) ________  .  .  ________  .  .  _
72
65
73
6
40
63.5
49
25.4
74
0
49
-12.7
74
0
49
0
74
0
49
-12.7
74
0
49
0
74
0
49
-12.7
74
0
0
LTYPE
5
3E
330
5
100
AcDbSymbolTableRecord
100
AcDbLinetypeTableRecord
2
BORDER
70
0
3
Border __ __ . __ __ . __ __ . __ __ . __ __ .
72
65
73
6
40
44.45
49
12.7
74
0
49
-6.35
74
0
49
12.7
74
0
49
-6.35
74
0
49
0
74
0
49
-6.35
74
0
0
LTYPE
5
3F
330
5
100
AcDbSymbolTableRecord
100
AcDbLinetypeTableRecord
2
BORDER2
70
0
3
Border (.5x) __.__.__.__.__.__.__.__.__.__.__.
72
65
73
6
40
22.225
49
6.35
74
0
49
-3.175
74
0
49
6.35
74
0
49
-3.175
74
0
49
0
74
0
49
-3.175
74
0
0
LTYPE
5
40
330
5
100
AcDbSymbolTableRecord
100
AcDbLinetypeTableRecord
2
BORDERX2
70
0
3
Border (2x) ____  ____  .  ____  ____  .  ___
72
65
73
6
40
88.9
49
25.4
74
0
49
-12.7
74
0
49
25.4
74
0
49
-12.7
74
0
49
0
74
0
49
-12.7
74
0
0
LTYPE
5
41
330
5
100
AcDbSymbolTableRecord
100
AcDbLinetypeTableRecord
2
CENTER
70
0
3
Center ____ _ ____ _ ____ _ ____ _ ____ _ ____
72
65
73
4
40
50.8
49
31.75
74
0
49
-6.35
74
0
49
6.35
74
0
49
-6.35
74
0
0
LTYPE
5
42
330
5
100
AcDbSymbolTableRecord
100
AcDbLinetypeTableRecord
2
CENTER2
70
0
3
Center (.5x) ___ _ ___ _ ___ _ ___ _ ___ _ ___
72
65
73
4
40
28.575
49
19.05
74
0
49
-3.175
74
0
49
3.175
74
0
49
-3.175
74
0
0
LTYPE
5
43
330
5
100
AcDbSymbolTableRecord
100
AcDbLinetypeTableRecord
2
CENTERX2
70
0
3
Center (2x) ________  __  ________  __  _____
72
65
73
4
40
101.6
49
63.5
74
0
49
-12.7
74
0
49
12.7
74
0
49
-12.7
74
0
0
ENDTAB
0
TABLE
2
LAYER
5
2
330
0
100
AcDbSymbolTable
70
1
0
LAYER
5
10
330
2
100
AcDbSymbolTableRecord
100
AcDbLayerTableRecord
2
0
70
0
62
7
6
CONTINUOUS
370
13
390
F
0
LAYER
5
44
330
2
100
AcDbSymbolTableRecord
100
AcDbLayerTableRecord
2
walking graph
70
0
62
1
6
CONTINUOUS
370
5
390
F
0
LAYER
5
45
330
2
100
AcDbSymbolTableRecord
100
AcDbLayerTableRecord
2
point
70
0
62
2
6
CONTINUOUS
370
140
390
F
0
LAYER
5
46
330
2
100
AcDbSymbolTableRecord
100
AcDbLayerTableRecord
2
reader
70
0
62
4
6
DASHED2
370
5
390
F
0
LAYER
5
47
330
2
100
AcDbSymbolTableRecord
100
AcDbLayerTableRecord
2
ID
70
0
62
7
6
CONTINUOUS
370
5
390
F
0
LAYER
5
48
330
2
100
AcDbSymbolTableRecord
100
AcDbLayerTableRecord
2
coordinate
70
0
62
3
6
CONTINUOUS
370
5
390
F
0
LAYER
5
49
330
2
100
AcDbSymbolTableRecord
100
AcDbLayerTableRecord
2
room
70
0
62
6
6
CONTINUOUS
370
5
390
F
0
ENDTAB
0
TABLE
2
STYLE
5
3
330
0
100
AcDbSymbolTable
70
3
0
STYLE
5
4A
330
2
100
AcDbSymbolTableRecord
100
AcDbTextStyleTableRecord
2
STANDARD
70
0
40
0
41
1
50
0
71
0
42
1
3
STANDARD
4

0
STYLE
5
4B
330
2
100
AcDbSymbolTableRecord
100
AcDbTextStyleTableRecord
2
standard
70
0
40
0
41
1
50
0
71
0
42
1
3
standard
4

0
ENDTAB
0
TABLE
2
VIEW
5
6
330
0
100
AcDbSymbolTable
70
0
0
ENDTAB
0
TABLE
2
UCS
5
7
330
0
100
AcDbSymbolTable
70
0
0
ENDTAB
0
TABLE
2
APPID
5
9
330
0
100
AcDbSymbolTable
70
1
0
APPID
5
12
330
9
100
AcDbSymbolTableRecord
100
AcDbRegAppTableRecord
2
ACAD
70
0
0
ENDTAB
0
TABLE
2
DIMSTYLE
5
A
330
0
100
AcDbSymbolTable
70
1
100
AcDbDimStyleTable
71
1
0
DIMSTYLE
105
4C
330
A
100
AcDbSymbolTableRecord
100
AcDbDimStyleTableRecord
2
Standard
70
0
40
1
41
2.5
42
0.625
43
0.38
44
1.25
45
0
46
0
47
0
48
0
140
2.5
141
0.09
142
0
143
25.4
144
1
145
0
146
1
147
0.625
148
0
71
0
72
0
73
0
74
1
75
0
76
0
77
0
78
0
79
0
170
0
171
2
172
0
173
0
174
0
175
0
176
0
177
0
178
0
179
0
271
4
272
4
273
2
274
2
275
0
276
0
277
2
278
46
279
0
280
0
281
0
282
0
283
1
284
0
285
0
286
0
288
0
289
3
340
Standard
341

371
-2
372
-2
0
ENDTAB
0
TABLE
2
BLOCK_RECORD
5
1
330
0
100
AcDbSymbolTable
70
2
0
BLOCK_RECORD
5
1F
330
1
100
AcDbSymbolTableRecord
100
AcDbBlockTableRecord
2
*Model_Space
70
0
280
1
281
0
0
BLOCK_RECORD
5
1E
330
1
100
AcDbSymbolTableRecord
100
AcDbBlockTableRecord
2
*Paper_Space
70
0
280
1
281
0
0
ENDTAB
0
ENDSEC
0
SECTION
2
BLOCKS
0
BLOCK
5
20
330
1F
100
AcDbEntity
8
0
100
AcDbBlockBegin
2
*Model_Space
70
0
10
0
20
0
30
0
3
*Model_Space
1

0
ENDBLK
5
21
330
1F
100
AcDbEntity
8
0
100
AcDbBlockEnd
0
BLOCK
5
1C
330
1B
100
AcDbEntity
8
0
100
AcDbBlockBegin
2
*Paper_Space
70
0
10
0
20
0
30
0
3
*Paper_Space
1

0
ENDBLK
5
1D
330
1F
100
AcDbEntity
8
0
100
AcDbBlockEnd
0
ENDSEC
0
SECTION
2
ENTITIES
0
LINE
5
4D
100
AcDbEntity
8
0
6
ByLayer
62
256
370
-1
100
AcDbLine
10
380
20
600
11
380
21
0
0
LINE
5
4E
100
AcDbEntity
8
0
6
ByLayer
62
256
370
-1
100
AcDbLine
10
380
20
0
11
280
21
0
0
LINE
5
4F
100
AcDbEntity
8
0
6
ByLayer
62
256
370
-1
100
AcDbLine
10
280
20
0
11
280
21
40
0
LINE
5
50
100
AcDbEntity
8
0
6
ByLayer
62
256
370
-1
100
AcDbLine
10
280
20
60
11
280
21
140
0
LINE
5
51
100
AcDbEntity
8
0
6
ByLayer
62
256
370
-1
100
AcDbLine
10
280
20
160
11
280
21
240
0
LINE
5
52
100
AcDbEntity
8
0
6
ByLayer
62
256
370
-1
100
AcDbLine
10
280
20
260
11
280
21
340
0
LINE
5
53
100
AcDbEntity
8
0
6
ByLayer
62
256
370
-1
100
AcDbLine
10
280
20
360
11
280
21
440
0
LINE
5
54
100
AcDbEntity
8
0
6
ByLayer
62
256
370
-1
100
AcDbLine
10
280
20
560
11
280
21
600
0
LINE
5
55
100
AcDbEntity
8
0
6
ByLayer
62
256
370
-1
100
AcDbLine
10
280
20
500
11
380
21
500
0
LINE
5
56
100
AcDbEntity
8
0
6
ByLayer
62
256
370
-1
100
AcDbLine
10
280
20
400
11
380
21
400
0
LINE
5
57
100
AcDbEntity
8
0
6
ByLayer
62
256
370
-1
100
AcDbLine
10
280
20
300
11
380
21
300
0
LINE
5
58
100
AcDbEntity
8
0
6
ByLayer
62
256
370
-1
100
AcDbLine
10
280
20
200
11
380
21
200
0
LINE
5
59
100
AcDbEntity
8
0
6
ByLayer
62
256
370
-1
100
AcDbLine
10
280
20
100
11
380
21
100
0
LINE
5
5A
100
AcDbEntity
8
0
6
ByLayer
62
256
370
-1
100
AcDbLine
10
280
20
460
11
280
21
540
0
LINE
5
5B
100
AcDbEntity
8
0
6
ByLayer
62
256
370
-1
100
AcDbLine
10
20
20
550
11
0
21
550
0
LINE
5
5C
100
AcDbEntity
8
0
6
ByLayer
62
256
370
-1
100
AcDbLine
10
0
20
550
11
0
21
600
0
LINE
5
5D
100
AcDbEntity
8
0
6
ByLayer
62
256
370
-1
100
AcDbLine
10
60
20
600
11
60
21
550
0
LINE
5
5E
100
AcDbEntity
8
0
6
ByLayer
62
256
370
-1
100
AcDbLine
10
120
20
600
11
120
21
550
0
LINE
5
5F
100
AcDbEntity
8
0
6
ByLayer
62
256
370
-1
100
AcDbLine
10
180
20
600
11
180
21
550
0
LINE
5
60
100
AcDbEntity
8
0
6
ByLayer
62
256
370
-1
100
AcDbLine
10
40
20
550
11
80
21
550
0
LINE
5
61
100
AcDbEntity
8
0
6
ByLayer
62
256
370
-1
100
AcDbLine
10
100
20
550
11
140
21
550
0
LINE
5
62
100
AcDbEntity
8
0
6
ByLayer
62
256
370
-1
100
AcDbLine
10
160
20
550
11
200
21
550
0
LINE
5
63
100
AcDbEntity
8
0
6
ByLayer
62
256
370
-1
100
AcDbLine
10
240
20
600
11
240
21
550
0
LINE
5
64
100
AcDbEntity
8
0
6
ByLayer
62
256
370
-1
100
AcDbLine
10
220
20
550
11
240
21
550
0
LINE
5
65
100
AcDbEntity
8
0
6
ByLayer
62
256
370
-1
100
AcDbLine
10
0
20
600
11
380
21
600
0
LINE
5
66
100
AcDbEntity
8
0
6
ByLayer
62
256
370
-1
100
AcDbLine
10
0
20
0
11
0
21
50
0
LINE
5
67
100
AcDbEntity
8
0
6
ByLayer
62
256
370
-1
100
AcDbLine
10
0
20
50
11
20
21
50
0
LINE
5
68
100
AcDbEntity
8
0
6
ByLayer
62
256
370
-1
100
AcDbLine
10
40
20
50
11
80
21
50
0
LINE
5
69
100
AcDbEntity
8
0
6
ByLayer
62
256
370
-1
100
AcDbLine
10
100
20
50
11
140
21
50
0
LINE
5
6A
100
AcDbEntity
8
0
6
ByLayer
62
256
370
-1
100
AcDbLine
10
160
20
50
11
200
21
50
0
LINE
5
6B
100
AcDbEntity
8
0
6
ByLayer
62
256
370
-1
100
AcDbLine
10
240
20
50
11
240
21
0
0
LINE
5
6C
100
AcDbEntity
8
0
6
ByLayer
62
256
370
-1
100
AcDbLine
10
240
20
0
11
0
21
0
0
LINE
5
6D
100
AcDbEntity
8
0
6
ByLayer
62
256
370
-1
100
AcDbLine
10
220
20
50
11
240
21
50
0
LINE
5
6E
100
AcDbEntity
8
0
6
ByLayer
62
256
370
-1
100
AcDbLine
10
60
20
50
11
60
21
0
0
LINE
5
6F
100
AcDbEntity
8
0
6
ByLayer
62
256
370
-1
100
AcDbLine
10
120
20
50
11
120
21
0
0
LINE
5
70
100
AcDbEntity
8
0
6
ByLayer
62
256
370
-1
100
AcDbLine
10
180
20
50
11
180
21
0
0
LINE
5
71
100
AcDbEntity
8
0
6
ByLayer
62
256
370
-1
100
AcDbLine
10
240
20
90
11
140
21
90
0
LINE
5
72
100
AcDbEntity
8
0
6
ByLayer
62
256
370
-1
100
AcDbLine
10
0
20
90
11
100
21
90
0
LINE
5
73
100
AcDbEntity
8
0
6
ByLayer
62
256
370
-1
100
AcDbLine
10
20
20
510
11
0
21
510
0
LINE
5
74
100
AcDbEntity
8
0
6
ByLayer
62
256
370
-1
100
AcDbLine
10
50
20
510
11
50
21
90
0
LINE
5
75
100
AcDbEntity
8
0
6
ByLayer
62
256
370
-1
100
AcDbLine
10
280
20
570
11
240
21
570
0
LINE
5
76
100
AcDbEntity
8
0
6
ByLayer
62
256
370
-1
100
AcDbLine
10
240
20
580
11
280
21
580
0
LINE
5
77
100
AcDbEntity
8
0
6
ByLayer
62
256
370
-1
100
AcDbLine
10
240
20
575
11
280
21
575
0
LINE
5
78
100
AcDbEntity
8
0
6
ByLayer
62
256
370
-1
100
AcDbLine
10
240
20
585.714285714
11
280
21
585.714285714
0
LINE
5
79
100
AcDbEntity
8
0
6
ByLayer
62
256
370
-1
100
AcDbLine
10
0
20
230
11
100
21
230
0
LINE
5
7A
100
AcDbEntity
8
0
6
ByLayer
62
256
370
-1
100
AcDbLine
10
0
20
370
11
100
21
370
0
LINE
5
7B
100
AcDbEntity
8
0
6
ByLayer
62
256
370
-1
100
AcDbLine
10
190
20
510
11
190
21
90
0
LINE
5
7C
100
AcDbEntity
8
0
6
ByLayer
62
256
370
-1
100
AcDbLine
10
140
20
370
11
240
21
370
0
LINE
5
7D
100
AcDbEntity
8
0
6
ByLayer
62
256
370
-1
100
AcDbLine
10
140
20
230
11
240
21
230
0
LINE
5
7E
100
AcDbEntity
8
0
6
ByLayer
62
256
370
-1
100
AcDbLine
10
40
20
510
11
60
21
510
0
LINE
5
7F
100
AcDbEntity
8
0
6
ByLayer
62
256
370
-1
100
AcDbLine
10
80
20
510
11
100
21
510
0
LINE
5
80
100
AcDbEntity
8
0
6
ByLayer
62
256
370
-1
100
AcDbLine
10
140
20
510
11
160
21
510
0
LINE
5
81
100
AcDbEntity
8
0
6
ByLayer
62
256
370
-1
100
AcDbLine
10
180
20
510
11
200
21
510
0
LINE
5
82
100
AcDbEntity
8
0
6
ByLayer
62
256
370
-1
100
AcDbLine
10
220
20
510
11
240
21
510
0
LINE
5
83
100
AcDbEntity
8
0
6
ByLayer
62
256
370
-1
100
AcDbLine
10
0
20
510
11
0
21
310
0
LINE
5
84
100
AcDbEntity
8
0
6
ByLayer
62
256
370
-1
100
AcDbLine
10
0
20
170
11
0
21
290
0
LINE
5
85
100
AcDbEntity
8
0
6
ByLayer
62
256
370
-1
100
AcDbLine
10
0
20
90
11
0
21
150
0
LINE
5
86
100
AcDbEntity
8
0
6
ByLayer
62
256
370
-1
100
AcDbLine
10
100
20
510
11
100
21
310
0
LINE
5
87
100
AcDbEntity
8
0
6
ByLayer
62
256
370
-1
100
AcDbLine
10
100
20
290
11
100
21
170
0
LINE
5
88
100
AcDbEntity
8
0
6
ByLayer
62
256
370
-1
100
AcDbLine
10
100
20
150
11
100
21
90
0
LINE
5
89
100
AcDbEntity
8
0
6
ByLayer
62
256
370
-1
100
AcDbLine
10
140
20
290
11
140
21
170
0
LINE
5
8A
100
AcDbEntity
8
0
6
ByLayer
62
256
370
-1
100
AcDbLine
10
140
20
150
11
140
21
90
0
LINE
5
8B
100
AcDbEntity
8
0
6
ByLayer
62
256
370
-1
100
AcDbLine
10
240
20
510
11
240
21
310
0
LINE
5
8C
100
AcDbEntity
8
0
6
ByLayer
62
256
370
-1
100
AcDbLine
10
240
20
290
11
240
21
170
0
LINE
5
8D
100
AcDbEntity
8
0
6
ByLayer
62
256
370
-1
100
AcDbLine
10
240
20
150
11
240
21
90
0
LINE
5
8E
100
AcDbEntity
8
0
6
ByLayer
62
256
370
-1
100
AcDbLine
10
140
20
510
11
140
21
310
0
LINE
5
8F
100
AcDbEntity
8
walking graph
6
ByLayer
62
256
370
-1
100
AcDbLine
10
30
20
570
11
30
21
440
0
LINE
5
90
100
AcDbEntity
8
walking graph
6
ByLayer
62
256
370
-1
100
AcDbLine
10
70
20
440
11
70
21
530
0
LINE
5
91
100
AcDbEntity
8
walking graph
6
ByLayer
62
256
370
-1
100
AcDbLine
10
90
20
530
11
90
21
570
0
LINE
5
92
100
AcDbEntity
8
walking graph
6
ByLayer
62
256
370
-1
100
AcDbLine
10
150
20
530
11
150
21
570
0
LINE
5
93
100
AcDbEntity
8
walking graph
6
ByLayer
62
256
370
-1
100
AcDbLine
10
170
20
530
11
170
21
440
0
LINE
5
94
100
AcDbEntity
8
walking graph
6
ByLayer
62
256
370
-1
100
AcDbLine
10
210
20
530
11
210
21
440
0
LINE
5
95
100
AcDbEntity
8
walking graph
6
ByLayer
62
256
370
-1
100
AcDbLine
10
260
20
530
11
260
21
0
0
LINE
5
96
100
AcDbEntity
8
walking graph
6
ByLayer
62
256
370
-1
100
AcDbLine
10
280
20
550
11
330
21
550
0
LINE
5
97
100
AcDbEntity
8
walking graph
6
ByLayer
62
256
370
-1
100
AcDbLine
10
260
20
450
11
330
21
450
0
LINE
5
98
100
AcDbEntity
8
walking graph
6
ByLayer
62
256
370
-1
100
AcDbLine
10
260
20
350
11
330
21
350
0
LINE
5
99
100
AcDbEntity
8
walking graph
6
ByLayer
62
256
370
-1
100
AcDbLine
10
260
20
250
11
330
21
250
0
LINE
5
9A
100
AcDbEntity
8
walking graph
6
ByLayer
62
256
370
-1
100
AcDbLine
10
260
20
150
11
330
21
150
0
LINE
5
9B
100
AcDbEntity
8
walking graph
6
ByLayer
62
256
370
-1
100
AcDbLine
10
260
20
50
11
330
21
50
0
LINE
5
9C
100
AcDbEntity
8
walking graph
6
ByLayer
62
256
370
-1
100
AcDbLine
10
120
20
530
11
120
21
70
0
LINE
5
9D
100
AcDbEntity
8
walking graph
6
ByLayer
62
256
370
-1
100
AcDbLine
10
120
20
300
11
80
21
300
0
LINE
5
9E
100
AcDbEntity
8
walking graph
6
ByLayer
62
256
370
-1
100
AcDbLine
10
120
20
300
11
160
21
300
0
LINE
5
9F
100
AcDbEntity
8
walking graph
6
ByLayer
62
256
370
-1
100
AcDbLine
10
120
20
160
11
80
21
160
0
LINE
5
A0
100
AcDbEntity
8
walking graph
6
ByLayer
62
256
370
-1
100
AcDbLine
10
120
20
160
11
160
21
160
0
LINE
5
A1
100
AcDbEntity
8
walking graph
6
ByLayer
62
256
370
-1
100
AcDbLine
10
0
20
70
11
260
21
70
0
LINE
5
A2
100
AcDbEntity
8
walking graph
6
ByLayer
62
256
370
-1
100
AcDbLine
10
30
20
70
11
30
21
30
0
LINE
5
A3
100
AcDbEntity
8
walking graph
6
ByLayer
62
256
370
-1
100
AcDbLine
10
90
20
70
11
90
21
30
0
LINE
5
A4
100
AcDbEntity
8
walking graph
6
ByLayer
62
256
370
-1
100
AcDbLine
10
210
20
70
11
210
21
30
0
LINE
5
A5
100
AcDbEntity
8
walking graph
6
ByLayer
62
256
370
-1
100
AcDbLine
10
150
20
70
11
150
21
30
0
LINE
5
A6
100
AcDbEntity
8
walking graph
6
ByLayer
62
256
370
-1
100
AcDbLine
10
260
20
530
11
0
21
530
0
POINT
5
A7
100
AcDbEntity
8
walking graph
6
ByLayer
62
256
370
-1
100
AcDbPoint
10
70
20
530
0
POINT
5
A8
100
AcDbEntity
8
walking graph
6
ByLayer
62
256
370
-1
100
AcDbPoint
10
70
20
530
0
POINT
5
A9
100
AcDbEntity
8
point
6
ByLayer
62
256
370
-1
100
AcDbPoint
10
0
20
530
0
POINT
5
AA
100
AcDbEntity
8
point
6
ByLayer
62
256
370
-1
100
AcDbPoint
10
30
20
530
0
POINT
5
AB
100
AcDbEntity
8
point
6
ByLayer
62
256
370
-1
100
AcDbPoint
10
30
20
550
0
POINT
5
AC
100
AcDbEntity
8
point
6
ByLayer
62
256
370
-1
100
AcDbPoint
10
30
20
570
0
POINT
5
AD
100
AcDbEntity
8
point
6
ByLayer
62
256
370
-1
100
AcDbPoint
10
90
20
570
0
POINT
5
AE
100
AcDbEntity
8
point
6
ByLayer
62
256
370
-1
100
AcDbPoint
10
90
20
550
0
POINT
5
AF
100
AcDbEntity
8
point
6
ByLayer
62
256
370
-1
100
AcDbPoint
10
150
20
570
0
POINT
5
B0
100
AcDbEntity
8
point
6
ByLayer
62
256
370
-1
100
AcDbPoint
10
150
20
550
0
POINT
5
B1
100
AcDbEntity
8
point
6
ByLayer
62
256
370
-1
100
AcDbPoint
10
70
20
530
0
POINT
5
B2
100
AcDbEntity
8
point
6
ByLayer
62
256
370
-1
100
AcDbPoint
10
90
20
530
0
POINT
5
B3
100
AcDbEntity
8
point
6
ByLayer
62
256
370
-1
100
AcDbPoint
10
120
20
530
0
POINT
5
B4
100
AcDbEntity
8
point
6
ByLayer
62
256
370
-1
100
AcDbPoint
10
150
20
530
0
POINT
5
B5
100
AcDbEntity
8
point
6
ByLayer
62
256
370
-1
100
AcDbPoint
10
170
20
530
0
POINT
5
B6
100
AcDbEntity
8
point
6
ByLayer
62
256
370
-1
100
AcDbPoint
10
210
20
530
0
POINT
5
B7
100
AcDbEntity
8
point
6
ByLayer
62
256
370
-1
100
AcDbPoint
10
280
20
550
0
POINT
5
B8
100
AcDbEntity
8
point
6
ByLayer
62
256
370
-1
100
AcDbPoint
10
330
20
550
0
POINT
5
B9
100
AcDbEntity
8
point
6
ByLayer
62
256
370
-1
100
AcDbPoint
10
330
20
450
0
POINT
5
BA
100
AcDbEntity
8
point
6
ByLayer
62
256
370
-1
100
AcDbPoint
10
280
20
450
0
POINT
5
BB
100
AcDbEntity
8
point
6
ByLayer
62
256
370
-1
100
AcDbPoint
10
260
20
450
0
POINT
5
BC
100
AcDbEntity
8
point
6
ByLayer
62
256
370
-1
100
AcDbPoint
10
210
20
510
0
POINT
5
BD
100
AcDbEntity
8
point
6
ByLayer
62
256
370
-1
100
AcDbPoint
10
210
20
440
0
POINT
5
BE
100
AcDbEntity
8
point
6
ByLayer
62
256
370
-1
100
AcDbPoint
10
170
20
440
0
POINT
5
BF
100
AcDbEntity
8
point
6
ByLayer
62
256
370
-1
100
AcDbPoint
10
170
20
510
0
POINT
5
C0
100
AcDbEntity
8
point
6
ByLayer
62
256
370
-1
100
AcDbPoint
10
70
20
510
0
POINT
5
C1
100
AcDbEntity
8
point
6
ByLayer
62
256
370
-1
100
AcDbPoint
10
70
20
440
0
POINT
5
C2
100
AcDbEntity
8
point
6
ByLayer
62
256
370
-1
100
AcDbPoint
10
30
20
440
0
POINT
5
C3
100
AcDbEntity
8
point
6
ByLayer
62
256
370
-1
100
AcDbPoint
10
30
20
510
0
POINT
5
C4
100
AcDbEntity
8
point
6
ByLayer
62
256
370
-1
100
AcDbPoint
10
120
20
300
0
POINT
5
C5
100
AcDbEntity
8
point
6
ByLayer
62
256
370
-1
100
AcDbPoint
10
80
20
300
0
POINT
5
C6
100
AcDbEntity
8
point
6
ByLayer
62
256
370
-1
100
AcDbPoint
10
160
20
300
0
POINT
5
C7
100
AcDbEntity
8
point
6
ByLayer
62
256
370
-1
100
AcDbPoint
10
260
20
350
0
POINT
5
C8
100
AcDbEntity
8
point
6
ByLayer
62
256
370
-1
100
AcDbPoint
10
280
20
350
0
POINT
5
C9
100
AcDbEntity
8
point
6
ByLayer
62
256
370
-1
100
AcDbPoint
10
330
20
350
0
POINT
5
CA
100
AcDbEntity
8
point
6
ByLayer
62
256
370
-1
100
AcDbPoint
10
330
20
250
0
POINT
5
CB
100
AcDbEntity
8
point
6
ByLayer
62
256
370
-1
100
AcDbPoint
10
280
20
250
0
POINT
5
CC
100
AcDbEntity
8
point
6
ByLayer
62
256
370
-1
100
AcDbPoint
10
260
20
250
0
POINT
5
CD
100
AcDbEntity
8
point
6
ByLayer
62
256
370
-1
100
AcDbPoint
10
260
20
150
0
POINT
5
CE
100
AcDbEntity
8
point
6
ByLayer
62
256
370
-1
100
AcDbPoint
10
280
20
150
0
POINT
5
CF
100
AcDbEntity
8
point
6
ByLayer
62
256
370
-1
100
AcDbPoint
10
330
20
150
0
POINT
5
D0
100
AcDbEntity
8
point
6
ByLayer
62
256
370
-1
100
AcDbPoint
10
330
20
50
0
POINT
5
D1
100
AcDbEntity
8
point
6
ByLayer
62
256
370
-1
100
AcDbPoint
10
280
20
50
0
POINT
5
D2
100
AcDbEntity
8
point
6
ByLayer
62
256
370
-1
100
AcDbPoint
10
260
20
0
0
POINT
5
D3
100
AcDbEntity
8
point
6
ByLayer
62
256
370
-1
100
AcDbPoint
10
260
20
70
0
POINT
5
D4
100
AcDbEntity
8
point
6
ByLayer
62
256
370
-1
100
AcDbPoint
10
210
20
70
0
POINT
5
D5
100
AcDbEntity
8
point
6
ByLayer
62
256
370
-1
100
AcDbPoint
10
260
20
50
0
POINT
5
D6
100
AcDbEntity
8
point
6
ByLayer
62
256
370
-1
100
AcDbPoint
10
210
20
30
0
POINT
5
D7
100
AcDbEntity
8
point
6
ByLayer
62
256
370
-1
100
AcDbPoint
10
150
20
30
0
POINT
5
D8
100
AcDbEntity
8
point
6
ByLayer
62
256
370
-1
100
AcDbPoint
10
120
20
70
0
POINT
5
D9
100
AcDbEntity
8
point
6
ByLayer
62
256
370
-1
100
AcDbPoint
10
90
20
70
0
POINT
5
DA
100
AcDbEntity
8
point
6
ByLayer
62
256
370
-1
100
AcDbPoint
10
90
20
30
0
POINT
5
DB
100
AcDbEntity
8
point
6
ByLayer
62
256
370
-1
100
AcDbPoint
10
30
20
30
0
POINT
5
DC
100
AcDbEntity
8
point
6
ByLayer
62
256
370
-1
100
AcDbPoint
10
30
20
70
0
POINT
5
DD
100
AcDbEntity
8
point
6
ByLayer
62
256
370
-1
100
AcDbPoint
10
0
20
70
0
POINT
5
DE
100
AcDbEntity
8
point
6
ByLayer
62
256
370
-1
100
AcDbPoint
10
120
20
160
0
POINT
5
DF
100
AcDbEntity
8
point
6
ByLayer
62
256
370
-1
100
AcDbPoint
10
100
20
160
0
POINT
5
E0
100
AcDbEntity
8
point
6
ByLayer
62
256
370
-1
100
AcDbPoint
10
80
20
160
0
POINT
5
E1
100
AcDbEntity
8
point
6
ByLayer
62
256
370
-1
100
AcDbPoint
10
140
20
160
0
POINT
5
E2
100
AcDbEntity
8
point
6
ByLayer
62
256
370
-1
100
AcDbPoint
10
160
20
160
0
LINE
5
E3
100
AcDbEntity
8
walking graph
6
ByLayer
62
256
370
-1
100
AcDbLine
10
210
20
530
11
210
21
570
0
LINE
5
E4
100
AcDbEntity
8
walking graph
6
ByLayer
62
256
370
-1
100
AcDbLine
10
260
20
300
11
220
21
300
0
LINE
5
E5
100
AcDbEntity
8
walking graph
6
ByLayer
62
256
370
-1
100
AcDbLine
10
260
20
160
11
220
21
160
0
POINT
5
E6
100
AcDbEntity
8
point
6
ByLayer
62
256
370
-1
100
AcDbPoint
10
210
20
550
0
POINT
5
E7
100
AcDbEntity
8
point
6
ByLayer
62
256
370
-1
100
AcDbPoint
10
210
20
570
0
POINT
5
E8
100
AcDbEntity
8
point
6
ByLayer
62
256
370
-1
100
AcDbPoint
10
260
20
300
0
POINT
5
E9
100
AcDbEntity
8
point
6
ByLayer
62
256
370
-1
100
AcDbPoint
10
240
20
300
0
POINT
5
EA
100
AcDbEntity
8
point
6
ByLayer
62
256
370
-1
100
AcDbPoint
10
220
20
300
0
POINT
5
EB
100
AcDbEntity
8
point
6
ByLayer
62
256
370
-1
100
AcDbPoint
10
260
20
160
0
POINT
5
EC
100
AcDbEntity
8
point
6
ByLayer
62
256
370
-1
100
AcDbPoint
10
240
20
160
0
POINT
5
ED
100
AcDbEntity
8
point
6
ByLayer
62
256
370
-1
100
AcDbPoint
10
220
20
160
0
CIRCLE
5
EE
100
AcDbEntity
8
reader
6
ByLayer
62
256
370
-1
100
AcDbCircle
10
0
20
530
40
20
0
CIRCLE
5
EF
100
AcDbEntity
8
reader
6
ByLayer
62
256
370
-1
100
AcDbCircle
10
70
20
530
40
20.0509554966
0
CIRCLE
5
F0
100
AcDbEntity
8
reader
6
ByLayer
62
256
370
-1
100
AcDbCircle
10
140
20
530
40
20
0
CIRCLE
5
F1
100
AcDbEntity
8
reader
6
ByLayer
62
256
370
-1
100
AcDbCircle
10
210
20
530
40
20.0509554966
0
CIRCLE
5
F2
100
AcDbEntity
8
reader
6
ByLayer
62
256
370
-1
100
AcDbCircle
10
260
20
530
40
20
0
CIRCLE
5
F3
100
AcDbEntity
8
reader
6
ByLayer
62
256
370
-1
100
AcDbCircle
10
260
20
450
40
20
0
CIRCLE
5
F4
100
AcDbEntity
8
reader
6
ByLayer
62
256
370
-1
100
AcDbCircle
10
260
20
370
40
20
0
CIRCLE
5
F5
100
AcDbEntity
8
reader
6
ByLayer
62
256
370
-1
100
AcDbCircle
10
260
20
290
40
20
0
CIRCLE
5
F6
100
AcDbEntity
8
reader
6
ByLayer
62
256
370
-1
100
AcDbCircle
10
260
20
210
40
20
0
CIRCLE
5
F7
100
AcDbEntity
8
reader
6
ByLayer
62
256
370
-1
100
AcDbCircle
10
260
20
130
40
20
0
CIRCLE
5
F8
100
AcDbEntity
8
reader
6
ByLayer
62
256
370
-1
100
AcDbCircle
10
260
20
50
40
20
0
CIRCLE
5
F9
100
AcDbEntity
8
reader
6
ByLayer
62
256
370
-1
100
AcDbCircle
10
120
20
450
40
20
0
CIRCLE
5
FA
100
AcDbEntity
8
reader
6
ByLayer
62
256
370
-1
100
AcDbCircle
10
120
20
370
40
20
0
CIRCLE
5
FB
100
AcDbEntity
8
reader
6
ByLayer
62
256
370
-1
100
AcDbCircle
10
120
20
290
40
20
0
CIRCLE
5
FC
100
AcDbEntity
8
reader
6
ByLayer
62
256
370
-1
100
AcDbCircle
10
120
20
210
40
20
0
CIRCLE
5
FD
100
AcDbEntity
8
reader
6
ByLayer
62
256
370
-1
100
AcDbCircle
10
120
20
130
40
20
0
CIRCLE
5
FE
100
AcDbEntity
8
reader
6
ByLayer
62
256
370
-1
100
AcDbCircle
10
0
20
70
40
20
0
CIRCLE
5
FF
100
AcDbEntity
8
reader
6
ByLayer
62
256
370
-1
100
AcDbCircle
10
70
20
70
40
20.0509554966
0
CIRCLE
5
100
100
AcDbEntity
8
reader
6
ByLayer
62
256
370
-1
100
AcDbCircle
10
140
20
70
40
20
0
CIRCLE
5
101
100
AcDbEntity
8
reader
6
ByLayer
62
256
370
-1
100
AcDbCircle
10
210
20
70
40
20.0509554966
0
MTEXT
5
102
100
AcDbEntity
8
ID
6
ByLayer
62
256
370
-1
100
AcDbMText
10
-3
20
79
30
0
40
5
41
5
71
1
72
1
1
01
7
standard
210
0
220
0
230
1
50
0
73
2
44
1
0
MTEXT
5
103
100
AcDbEntity
8
ID
6
ByLayer
62
256
370
-1
100
AcDbMText
10
30
20
80
30
0
40
5
41
6.11111111111
71
1
72
1
1
02
7
standard
210
0
220
0
230
1
50
0
73
2
44
1
0
MTEXT
5
104
100
AcDbEntity
8
ID
6
ByLayer
62
256
370
-1
100
AcDbMText
10
32
20
50
30
0
40
5
41
6.11111111111
71
1
72
1
1
03
7
standard
210
0
220
0
230
1
50
0
73
2
44
1
0
POINT
5
105
100
AcDbEntity
8
point
6
ByLayer
62
256
370
-1
100
AcDbPoint
10
30
20
50
0
POINT
5
106
100
AcDbEntity
8
point
6
ByLayer
62
256
370
-1
100
AcDbPoint
10
90
20
50
0
POINT
5
107
100
AcDbEntity
8
point
6
ByLayer
62
256
370
-1
100
AcDbPoint
10
150
20
50
0
POINT
5
108
100
AcDbEntity
8
point
6
ByLayer
62
256
370
-1
100
AcDbPoint
10
210
20
49.9490445034
0
MTEXT
5
109
100
AcDbEntity
8
ID
6
ByLayer
62
256
370
-1
100
AcDbMText
10
32
20
30
30
0
40
5
41
6.66666666667
71
1
72
1
1
04
7
standard
210
0
220
0
230
1
50
0
73
2
44
1
0
MTEXT
5
10A
100
AcDbEntity
8
ID
6
ByLayer
62
256
370
-1
100
AcDbMText
10
90
20
80
30
0
40
5
41
6.11111111111
71
1
72
1
1
05
7
standard
210
0
220
0
230
1
50
0
73
2
44
1
0
MTEXT
5
10B
100
AcDbEntity
8
ID
6
ByLayer
62
256
370
-1
100
AcDbMText
10
92
20
50
30
0
40
5
41
6.11111111111
71
1
72
1
1
06
7
standard
210
0
220
0
230
1
50
0
73
2
44
1
0
MTEXT
5
10C
100
AcDbEntity
8
ID
6
ByLayer
62
256
370
-1
100
AcDbMText
10
92
20
30
30
0
40
5
41
6.11111111111
71
1
72
1
1
07
7
standard
210
0
220
0
230
1
50
0
73
2
44
1
0
MTEXT
5
10D
100
AcDbEntity
8
ID
6
ByLayer
62
256
370
-1
100
AcDbMText
10
124
20
80
30
0
40
5
41
6.11111111111
71
1
72
1
1
08
7
standard
210
0
220
0
230
1
50
0
73
2
44
1
0
MTEXT
5
10E
100
AcDbEntity
8
ID
6
ByLayer
62
256
370
-1
100
AcDbMText
10
147
20
80
30
0
40
5
41
6.11111111111
71
1
72
1
1
09
7
standard
210
0
220
0
230
1
50
0
73
2
44
1
0
POINT
5
10F
100
AcDbEntity
8
point
6
ByLayer
62
256
370
-1
100
AcDbPoint
10
150
20
70
0
MTEXT
5
110
100
AcDbEntity
8
ID
6
ByLayer
62
256
370
-1
100
AcDbMText
10
152
20
50
30
0
40
5
41
5
71
1
72
1
1
10
7
standard
210
0
220
0
230
1
50
0
73
2
44
1
0
MTEXT
5
111
100
AcDbEntity
8
ID
6
ByLayer
62
256
370
-1
100
AcDbMText
10
152
20
30
30
0
40
5
41
3.88888888889
71
1
72
1
1
11
7
standard
210
0
220
0
230
1
50
0
73
2
44
1
0
MTEXT
5
112
100
AcDbEntity
8
ID
6
ByLayer
62
256
370
-1
100
AcDbMText
10
210
20
80
30
0
40
5
41
5
71
1
72
1
1
12
7
standard
210
0
220
0
230
1
50
0
73
2
44
1
0
MTEXT
5
113
100
AcDbEntity
8
ID
6
ByLayer
62
256
370
-1
100
AcDbMText
10
212
20
50
30
0
40
5
41
5
71
1
72
1
1
13
7
standard
210
0
220
0
230
1
50
0
73
2
44
1
0
MTEXT
5
114
100
AcDbEntity
8
ID
6
ByLayer
62
256
370
-1
100
AcDbMText
10
212
20
30
30
0
40
5
41
5.55555555556
71
1
72
1
1
14
7
standard
210
0
220
0
230
1
50
0
73
2
44
1
0
MTEXT
5
115
100
AcDbEntity
8
ID
6
ByLayer
62
256
370
-1
100
AcDbMText
10
260
20
80
30
0
40
5
41
5
71
1
72
1
1
15
7
standard
210
0
220
0
230
1
50
0
73
2
44
1
0
MTEXT
5
116
100
AcDbEntity
8
ID
6
ByLayer
62
256
370
-1
100
AcDbMText
10
262
20
48
30
0
40
5
41
5
71
1
72
1
1
16
7
standard
210
0
220
0
230
1
50
0
73
2
44
1
0
MTEXT
5
117
100
AcDbEntity
8
ID
6
ByLayer
62
256
370
-1
100
AcDbMText
10
262
20
8
30
0
40
5
41
5
71
1
72
1
1
17
7
standard
210
0
220
0
230
1
50
0
73
2
44
1
0
MTEXT
5
118
100
AcDbEntity
8
ID
6
ByLayer
62
256
370
-1
100
AcDbMText
10
282
20
48
30
0
40
5
41
5
71
1
72
1
1
18
7
standard
210
0
220
0
230
1
50
0
73
2
44
1
0
MTEXT
5
119
100
AcDbEntity
8
ID
6
ByLayer
62
256
370
-1
100
AcDbMText
10
332
20
48
30
0
40
5
41
5
71
1
72
1
1
19
7
standard
210
0
220
0
230
1
50
0
73
2
44
1
0
MTEXT
5
11A
100
AcDbEntity
8
ID
6
ByLayer
62
256
370
-1
100
AcDbMText
10
262
20
148
30
0
40
5
41
6.11111111111
71
1
72
1
1
20
7
standard
210
0
220
0
230
1
50
0
73
2
44
1
0
MTEXT
5
11B
100
AcDbEntity
8
ID
6
ByLayer
62
256
370
-1
100
AcDbMText
10
282
20
148
30
0
40
5
41
5
71
1
72
1
1
21
7
standard
210
0
220
0
230
1
50
0
73
2
44
1
0
MTEXT
5
11C
100
AcDbEntity
8
ID
6
ByLayer
62
256
370
-1
100
AcDbMText
10
332
20
148
30
0
40
5
41
6.11111111111
71
1
72
1
1
22
7
standard
210
0
220
0
230
1
50
0
73
2
44
1
0
MTEXT
5
11D
100
AcDbEntity
8
ID
6
ByLayer
62
256
370
-1
100
AcDbMText
10
262
20
158
30
0
40
5
41
6.11111111111
71
1
72
1
1
23
7
standard
210
0
220
0
230
1
50
0
73
2
44
1
0
MTEXT
5
11E
100
AcDbEntity
8
ID
6
ByLayer
62
256
370
-1
100
AcDbMText
10
242
20
158
30
0
40
5
41
6.66666666667
71
1
72
1
1
24
7
standard
210
0
220
0
230
1
50
0
73
2
44
1
0
MTEXT
5
11F
100
AcDbEntity
8
ID
6
ByLayer
62
256
370
-1
100
AcDbMText
10
222
20
158
30
0
40
5
41
6.11111111111
71
1
72
1
1
25
7
standard
210
0
220
0
230
1
50
0
73
2
44
1
0
MTEXT
5
120
100
AcDbEntity
8
ID
6
ByLayer
62
256
370
-1
100
AcDbMText
10
262
20
248
30
0
40
5
41
6.11111111111
71
1
72
1
1
26
7
standard
210
0
220
0
230
1
50
0
73
2
44
1
0
MTEXT
5
121
100
AcDbEntity
8
ID
6
ByLayer
62
256
370
-1
100
AcDbMText
10
282
20
248
30
0
40
5
41
6.11111111111
71
1
72
1
1
27
7
standard
210
0
220
0
230
1
50
0
73
2
44
1
0
MTEXT
5
122
100
AcDbEntity
8
ID
6
ByLayer
62
256
370
-1
100
AcDbMText
10
332
20
248
30
0
40
5
41
6.11111111111
71
1
72
1
1
28
7
standard
210
0
220
0
230
1
50
0
73
2
44
1
0
MTEXT
5
123
100
AcDbEntity
8
ID
6
ByLayer
62
256
370
-1
100
AcDbMText
10
262
20
298
30
0
40
5
41
6.11111111111
71
1
72
1
1
29
7
standard
210
0
220
0
230
1
50
0
73
2
44
1
0
MTEXT
5
124
100
AcDbEntity
8
ID
6
ByLayer
62
256
370
-1
100
AcDbMText
10
242
20
298
30
0
40
5
41
6.11111111111
71
1
72
1
1
30
7
standard
210
0
220
0
230
1
50
0
73
2
44
1
0
MTEXT
5
125
100
AcDbEntity
8
ID
6
ByLayer
62
256
370
-1
100
AcDbMText
10
222
20
298
30
0
40
5
41
5
71
1
72
1
1
31
7
standard
210
0
220
0
230
1
50
0
73
2
44
1
0
MTEXT
5
126
100
AcDbEntity
8
ID
6
ByLayer
62
256
370
-1
100
AcDbMText
10
262
20
348
30
0
40
5
41
6.11111111111
71
1
72
1
1
32
7
standard
210
0
220
0
230
1
50
0
73
2
44
1
0
MTEXT
5
127
100
AcDbEntity
8
ID
6
ByLayer
62
256
370
-1
100
AcDbMText
10
282
20
348
30
0
40
5
41
6.11111111111
71
1
72
1
1
33
7
standard
210
0
220
0
230
1
50
0
73
2
44
1
0
MTEXT
5
128
100
AcDbEntity
8
ID
6
ByLayer
62
256
370
-1
100
AcDbMText
10
332
20
348
30
0
40
5
41
6.66666666667
71
1
72
1
1
34
7
standard
210
0
220
0
230
1
50
0
73
2
44
1
0
MTEXT
5
129
100
AcDbEntity
8
ID
6
ByLayer
62
256
370
-1
100
AcDbMText
10
262
20
448
30
0
40
5
41
6.11111111111
71
1
72
1
1
35
7
standard
210
0
220
0
230
1
50
0
73
2
44
1
0
MTEXT
5
12A
100
AcDbEntity
8
ID
6
ByLayer
62
256
370
-1
100
AcDbMText
10
282
20
448
30
0
40
5
41
6.11111111111
71
1
72
1
1
36
7
standard
210
0
220
0
230
1
50
0
73
2
44
1
0
MTEXT
5
12B
100
AcDbEntity
8
ID
6
ByLayer
62
256
370
-1
100
AcDbMText
10
332
20
448
30
0
40
5
41
6.11111111111
71
1
72
1
1
37
7
standard
210
0
220
0
230
1
50
0
73
2
44
1
0
MTEXT
5
12C
100
AcDbEntity
8
ID
6
ByLayer
62
256
370
-1
100
AcDbMText
10
262
20
528
30
0
40
5
41
6.11111111111
71
1
72
1
1
38
7
standard
210
0
220
0
230
1
50
0
73
2
44
1
0
MTEXT
5
12D
100
AcDbEntity
8
ID
6
ByLayer
62
256
370
-1
100
AcDbMText
10
282
20
548
30
0
40
5
41
6.11111111111
71
1
72
1
1
39
7
standard
210
0
220
0
230
1
50
0
73
2
44
1
0
MTEXT
5
12E
100
AcDbEntity
8
ID
6
ByLayer
62
256
370
-1
100
AcDbMText
10
332
20
548
30
0
40
5
41
6.66666666667
71
1
72
1
1
40
7
standard
210
0
220
0
230
1
50
0
73
2
44
1
0
MTEXT
5
12F
100
AcDbEntity
8
ID
6
ByLayer
62
256
370
-1
100
AcDbMText
10
212
20
528
30
0
40
5
41
5.55555555556
71
1
72
1
1
41
7
standard
210
0
220
0
230
1
50
0
73
2
44
1
0
MTEXT
5
130
100
AcDbEntity
8
ID
6
ByLayer
62
256
370
-1
100
AcDbMText
10
212
20
548
30
0
40
5
41
6.66666666667
71
1
72
1
1
42
7
standard
210
0
220
0
230
1
50
0
73
2
44
1
0
MTEXT
5
131
100
AcDbEntity
8
ID
6
ByLayer
62
256
370
-1
100
AcDbMText
10
212
20
568
30
0
40
5
41
6.66666666667
71
1
72
1
1
43
7
standard
210
0
220
0
230
1
50
0
73
2
44
1
0
MTEXT
5
132
100
AcDbEntity
8
ID
6
ByLayer
62
256
370
-1
100
AcDbMText
10
212
20
508
30
0
40
5
41
7.22222222222
71
1
72
1
1
44
7
standard
210
0
220
0
230
1
50
0
73
2
44
1
0
MTEXT
5
133
100
AcDbEntity
8
ID
6
ByLayer
62
256
370
-1
100
AcDbMText
10
212
20
438
30
0
40
5
41
6.66666666667
71
1
72
1
1
45
7
standard
210
0
220
0
230
1
50
0
73
2
44
1
0
MTEXT
5
134
100
AcDbEntity
8
ID
6
ByLayer
62
256
370
-1
100
AcDbMText
10
172
20
528
30
0
40
5
41
6.66666666667
71
1
72
1
1
46
7
standard
210
0
220
0
230
1
50
0
73
2
44
1
0
MTEXT
5
135
100
AcDbEntity
8
ID
6
ByLayer
62
256
370
-1
100
AcDbMText
10
172
20
508
30
0
40
5
41
6.66666666667
71
1
72
1
1
47
7
standard
210
0
220
0
230
1
50
0
73
2
44
1
0
MTEXT
5
136
100
AcDbEntity
8
ID
6
ByLayer
62
256
370
-1
100
AcDbMText
10
172
20
438
30
0
40
5
41
6.66666666667
71
1
72
1
1
48
7
standard
210
0
220
0
230
1
50
0
73
2
44
1
0
MTEXT
5
137
100
AcDbEntity
8
ID
6
ByLayer
62
256
370
-1
100
AcDbMText
10
152
20
528
30
0
40
5
41
6.66666666667
71
1
72
1
1
49
7
standard
210
0
220
0
230
1
50
0
73
2
44
1
0
MTEXT
5
138
100
AcDbEntity
8
ID
6
ByLayer
62
256
370
-1
100
AcDbMText
10
152
20
568
30
0
40
5
41
5
71
1
72
1
1
51
7
standard
210
0
220
0
230
1
50
0
73
2
44
1
0
MTEXT
5
139
100
AcDbEntity
8
ID
6
ByLayer
62
256
370
-1
100
AcDbMText
10
122
20
528
30
0
40
5
41
6.11111111111
71
1
72
1
1
52
7
standard
210
0
220
0
230
1
50
0
73
2
44
1
0
MTEXT
5
13A
100
AcDbEntity
8
ID
6
ByLayer
62
256
370
-1
100
AcDbMText
10
122
20
298
30
0
40
5
41
6.11111111111
71
1
72
1
1
53
7
standard
210
0
220
0
230
1
50
0
73
2
44
1
0
MTEXT
5
13B
100
AcDbEntity
8
ID
6
ByLayer
62
256
370
-1
100
AcDbMText
10
162
20
298
30
0
40
5
41
6.66666666667
71
1
72
1
1
54
7
standard
210
0
220
0
230
1
50
0
73
2
44
1
0
MTEXT
5
13C
100
AcDbEntity
8
ID
6
ByLayer
62
256
370
-1
100
AcDbMText
10
82
20
298
30
0
40
5
41
6.11111111111
71
1
72
1
1
55
7
standard
210
0
220
0
230
1
50
0
73
2
44
1
0
MTEXT
5
13D
100
AcDbEntity
8
ID
6
ByLayer
62
256
370
-1
100
AcDbMText
10
122
20
158
30
0
40
5
41
6.11111111111
71
1
72
1
1
56
7
standard
210
0
220
0
230
1
50
0
73
2
44
1
0
MTEXT
5
13E
100
AcDbEntity
8
ID
6
ByLayer
62
256
370
-1
100
AcDbMText
10
142
20
158
30
0
40
5
41
6.11111111111
71
1
72
1
1
57
7
standard
210
0
220
0
230
1
50
0
73
2
44
1
0
MTEXT
5
13F
100
AcDbEntity
8
ID
6
ByLayer
62
256
370
-1
100
AcDbMText
10
162
20
158
30
0
40
5
41
6.11111111111
71
1
72
1
1
58
7
standard
210
0
220
0
230
1
50
0
73
2
44
1
0
MTEXT
5
140
100
AcDbEntity
8
ID
6
ByLayer
62
256
370
-1
100
AcDbMText
10
102
20
158
30
0
40
5
41
6.11111111111
71
1
72
1
1
59
7
standard
210
0
220
0
230
1
50
0
73
2
44
1
0
MTEXT
5
141
100
AcDbEntity
8
ID
6
ByLayer
62
256
370
-1
100
AcDbMText
10
82
20
158
30
0
40
5
41
6.11111111111
71
1
72
1
1
60
7
standard
210
0
220
0
230
1
50
0
73
2
44
1
0
MTEXT
5
142
100
AcDbEntity
8
ID
6
ByLayer
62
256
370
-1
100
AcDbMText
10
92
20
528
30
0
40
5
41
5
71
1
72
1
1
61
7
standard
210
0
220
0
230
1
50
0
73
2
44
1
0
MTEXT
5
143
100
AcDbEntity
8
ID
6
ByLayer
62
256
370
-1
100
AcDbMText
10
92
20
548
30
0
40
5
41
6.11111111111
71
1
72
1
1
62
7
standard
210
0
220
0
230
1
50
0
73
2
44
1
0
MTEXT
5
144
100
AcDbEntity
8
ID
6
ByLayer
62
256
370
-1
100
AcDbMText
10
92
20
568
30
0
40
5
41
6.11111111111
71
1
72
1
1
63
7
standard
210
0
220
0
230
1
50
0
73
2
44
1
0
MTEXT
5
145
100
AcDbEntity
8
ID
6
ByLayer
62
256
370
-1
100
AcDbMText
10
72
20
528
30
0
40
5
41
6.66666666667
71
1
72
1
1
64
7
standard
210
0
220
0
230
1
50
0
73
2
44
1
0
MTEXT
5
146
100
AcDbEntity
8
ID
6
ByLayer
62
256
370
-1
100
AcDbMText
10
72
20
508
30
0
40
5
41
6.11111111111
71
1
72
1
1
65
7
standard
210
0
220
0
230
1
50
0
73
2
44
1
0
MTEXT
5
147
100
AcDbEntity
8
ID
6
ByLayer
62
256
370
-1
100
AcDbMText
10
72
20
438
30
0
40
5
41
6.11111111111
71
1
72
1
1
66
7
standard
210
0
220
0
230
1
50
0
73
2
44
1
0
MTEXT
5
148
100
AcDbEntity
8
ID
6
ByLayer
62
256
370
-1
100
AcDbMText
10
32
20
528
30
0
40
5
41
6.11111111111
71
1
72
1
1
67
7
standard
210
0
220
0
230
1
50
0
73
2
44
1
0
MTEXT
5
149
100
AcDbEntity
8
ID
6
ByLayer
62
256
370
-1
100
AcDbMText
10
32
20
548
30
0
40
5
41
6.11111111111
71
1
72
1
1
68
7
standard
210
0
220
0
230
1
50
0
73
2
44
1
0
MTEXT
5
14A
100
AcDbEntity
8
ID
6
ByLayer
62
256
370
-1
100
AcDbMText
10
32
20
568
30
0
40
5
41
6.11111111111
71
1
72
1
1
69
7
standard
210
0
220
0
230
1
50
0
73
2
44
1
0
MTEXT
5
14B
100
AcDbEntity
8
ID
6
ByLayer
62
256
370
-1
100
AcDbMText
10
32
20
508
30
0
40
5
41
6.11111111111
71
1
72
1
1
70
7
standard
210
0
220
0
230
1
50
0
73
2
44
1
0
MTEXT
5
14C
100
AcDbEntity
8
ID
6
ByLayer
62
256
370
-1
100
AcDbMText
10
32
20
438
30
0
40
5
41
5
71
1
72
1
1
71
7
standard
210
0
220
0
230
1
50
0
73
2
44
1
0
MTEXT
5
14D
100
AcDbEntity
8
ID
6
ByLayer
62
256
370
-1
100
AcDbMText
10
2
20
528
30
0
40
5
41
6.11111111111
71
1
72
1
1
72
7
standard
210
0
220
0
230
1
50
0
73
2
44
1
0
MTEXT
5
14E
100
AcDbEntity
8
ID
6
ByLayer
62
256
370
-1
100
AcDbMText
10
156
20
548
30
0
40
5
41
6.11111111111
71
1
72
1
1
50
7
standard
210
0
220
0
230
1
50
0
73
2
44
1
0
LINE
5
14F
100
AcDbEntity
8
coordinate
6
ByLayer
62
256
370
-1
100
AcDbLine
10
0
20
70
11
-5
21
65
0
LINE
5
150
100
AcDbEntity
8
coordinate
6
ByLayer
62
256
370
-1
100
AcDbLine
10
-5
20
65
11
-15
21
65
0
LINE
5
151
100
AcDbEntity
8
coordinate
6
ByLayer
62
256
370
-1
100
AcDbLine
10
90
20
70
11
85
21
65
0
LINE
5
152
100
AcDbEntity
8
coordinate
6
ByLayer
62
256
370
-1
100
AcDbLine
10
85
20
65
11
75
21
65
0
LINE
5
153
100
AcDbEntity
8
coordinate
6
ByLayer
62
256
370
-1
100
AcDbLine
10
120
20
70
11
115
21
65
0
LINE
5
154
100
AcDbEntity
8
coordinate
6
ByLayer
62
256
370
-1
100
AcDbLine
10
115
20
65
11
105
21
65
0
LINE
5
155
100
AcDbEntity
8
coordinate
6
ByLayer
62
256
370
-1
100
AcDbLine
10
150
20
70
11
145
21
65
0
LINE
5
156
100
AcDbEntity
8
coordinate
6
ByLayer
62
256
370
-1
100
AcDbLine
10
145
20
65
11
135
21
65
0
LINE
5
157
100
AcDbEntity
8
coordinate
6
ByLayer
62
256
370
-1
100
AcDbLine
10
210
20
70
11
205
21
65
0
LINE
5
158
100
AcDbEntity
8
coordinate
6
ByLayer
62
256
370
-1
100
AcDbLine
10
205
20
65
11
195
21
65
0
LINE
5
159
100
AcDbEntity
8
coordinate
6
ByLayer
62
256
370
-1
100
AcDbLine
10
30
20
70
11
35
21
65
0
LINE
5
15A
100
AcDbEntity
8
coordinate
6
ByLayer
62
256
370
-1
100
AcDbLine
10
35
20
65
11
45
21
65
0
LINE
5
15B
100
AcDbEntity
8
coordinate
6
ByLayer
62
256
370
-1
100
AcDbLine
10
30
20
50
11
25
21
43
0
LINE
5
15C
100
AcDbEntity
8
coordinate
6
ByLayer
62
256
370
-1
100
AcDbLine
10
25
20
43
11
15
21
43
0
LINE
5
15D
100
AcDbEntity
8
coordinate
6
ByLayer
62
256
370
-1
100
AcDbLine
10
30
20
30
11
25
21
25
0
LINE
5
15E
100
AcDbEntity
8
coordinate
6
ByLayer
62
256
370
-1
100
AcDbLine
10
25
20
25
11
15
21
25
0
LINE
5
15F
100
AcDbEntity
8
coordinate
6
ByLayer
62
256
370
-1
100
AcDbLine
10
90
20
50
11
85
21
43
0
LINE
5
160
100
AcDbEntity
8
coordinate
6
ByLayer
62
256
370
-1
100
AcDbLine
10
85
20
43
11
75
21
43
0
LINE
5
161
100
AcDbEntity
8
coordinate
6
ByLayer
62
256
370
-1
100
AcDbLine
10
90
20
30
11
85
21
25
0
LINE
5
162
100
AcDbEntity
8
coordinate
6
ByLayer
62
256
370
-1
100
AcDbLine
10
85
20
25
11
75
21
25
0
LINE
5
163
100
AcDbEntity
8
coordinate
6
ByLayer
62
256
370
-1
100
AcDbLine
10
150
20
50
11
145
21
43
0
LINE
5
164
100
AcDbEntity
8
coordinate
6
ByLayer
62
256
370
-1
100
AcDbLine
10
145
20
43
11
135
21
43
0
LINE
5
165
100
AcDbEntity
8
coordinate
6
ByLayer
62
256
370
-1
100
AcDbLine
10
150
20
30
11
145
21
25
0
LINE
5
166
100
AcDbEntity
8
coordinate
6
ByLayer
62
256
370
-1
100
AcDbLine
10
145
20
25
11
135
21
25
0
LINE
5
167
100
AcDbEntity
8
coordinate
6
ByLayer
62
256
370
-1
100
AcDbLine
10
210
20
50
11
205
21
43
0
LINE
5
168
100
AcDbEntity
8
coordinate
6
ByLayer
62
256
370
-1
100
AcDbLine
10
205
20
43
11
195
21
43
0
LINE
5
169
100
AcDbEntity
8
coordinate
6
ByLayer
62
256
370
-1
100
AcDbLine
10
210
20
30
11
205
21
25
0
LINE
5
16A
100
AcDbEntity
8
coordinate
6
ByLayer
62
256
370
-1
100
AcDbLine
10
205
20
25
11
195
21
25
0
LINE
5
16B
100
AcDbEntity
8
coordinate
6
ByLayer
62
256
370
-1
100
AcDbLine
10
260
20
70
11
257
21
62
0
LINE
5
16C
100
AcDbEntity
8
coordinate
6
ByLayer
62
256
370
-1
100
AcDbLine
10
257
20
62
11
249
21
62
0
LINE
5
16D
100
AcDbEntity
8
coordinate
6
ByLayer
62
256
370
-1
100
AcDbLine
10
249
20
62
11
248
21
62
0
LINE
5
16E
100
AcDbEntity
8
coordinate
6
ByLayer
62
256
370
-1
100
AcDbLine
10
260
20
50
11
255
21
45
0
LINE
5
16F
100
AcDbEntity
8
coordinate
6
ByLayer
62
256
370
-1
100
AcDbLine
10
255
20
45
11
245
21
45
0
LINE
5
170
100
AcDbEntity
8
coordinate
6
ByLayer
62
256
370
-1
100
AcDbLine
10
260
20
0
11
255
21
-5
0
LINE
5
171
100
AcDbEntity
8
coordinate
6
ByLayer
62
256
370
-1
100
AcDbLine
10
255
20
-5
11
245
21
-5
0
LINE
5
172
100
AcDbEntity
8
coordinate
6
ByLayer
62
256
370
-1
100
AcDbLine
10
280
20
50
11
285
21
55
0
LINE
5
173
100
AcDbEntity
8
coordinate
6
ByLayer
62
256
370
-1
100
AcDbLine
10
285
20
55
11
295
21
55
0
LINE
5
174
100
AcDbEntity
8
coordinate
6
ByLayer
62
256
370
-1
100
AcDbLine
10
330
20
50
11
325
21
45
0
LINE
5
175
100
AcDbEntity
8
coordinate
6
ByLayer
62
256
370
-1
100
AcDbLine
10
325
20
45
11
315
21
45
0
LINE
5
176
100
AcDbEntity
8
coordinate
6
ByLayer
62
256
370
-1
100
AcDbLine
10
260
20
150
11
257
21
142
0
LINE
5
177
100
AcDbEntity
8
coordinate
6
ByLayer
62
256
370
-1
100
AcDbLine
10
257
20
142
11
247
21
142
0
LINE
5
178
100
AcDbEntity
8
coordinate
6
ByLayer
62
256
370
-1
100
AcDbLine
10
280
20
150
11
285
21
155
0
LINE
5
179
100
AcDbEntity
8
coordinate
6
ByLayer
62
256
370
-1
100
AcDbLine
10
285
20
155
11
295
21
155
0
LINE
5
17A
100
AcDbEntity
8
coordinate
6
ByLayer
62
256
370
-1
100
AcDbLine
10
330
20
150
11
335
21
155
0
LINE
5
17B
100
AcDbEntity
8
coordinate
6
ByLayer
62
256
370
-1
100
AcDbLine
10
335
20
155
11
345
21
155
0
LINE
5
17C
100
AcDbEntity
8
coordinate
6
ByLayer
62
256
370
-1
100
AcDbLine
10
260
20
160
11
265
21
165
0
LINE
5
17D
100
AcDbEntity
8
coordinate
6
ByLayer
62
256
370
-1
100
AcDbLine
10
265
20
165
11
275
21
165
0
LINE
5
17E
100
AcDbEntity
8
coordinate
6
ByLayer
62
256
370
-1
100
AcDbLine
10
240
20
160
11
245
21
165
0
LINE
5
17F
100
AcDbEntity
8
coordinate
6
ByLayer
62
256
370
-1
100
AcDbLine
10
245
20
165
11
255
21
165
0
LINE
5
180
100
AcDbEntity
8
coordinate
6
ByLayer
62
256
370
-1
100
AcDbLine
10
220
20
160
11
215
21
155
0
LINE
5
181
100
AcDbEntity
8
coordinate
6
ByLayer
62
256
370
-1
100
AcDbLine
10
215
20
155
11
205
21
155
0
LINE
5
182
100
AcDbEntity
8
coordinate
6
ByLayer
62
256
370
-1
100
AcDbLine
10
260
20
250
11
255
21
245
0
LINE
5
183
100
AcDbEntity
8
coordinate
6
ByLayer
62
256
370
-1
100
AcDbLine
10
255
20
245
11
245
21
245
0
LINE
5
184
100
AcDbEntity
8
coordinate
6
ByLayer
62
256
370
-1
100
AcDbLine
10
280
20
250
11
285
21
255
0
LINE
5
185
100
AcDbEntity
8
coordinate
6
ByLayer
62
256
370
-1
100
AcDbLine
10
285
20
255
11
295
21
255
0
LINE
5
186
100
AcDbEntity
8
coordinate
6
ByLayer
62
256
370
-1
100
AcDbLine
10
330
20
250
11
335
21
255
0
LINE
5
187
100
AcDbEntity
8
coordinate
6
ByLayer
62
256
370
-1
100
AcDbLine
10
335
20
255
11
345
21
255
0
LINE
5
188
100
AcDbEntity
8
coordinate
6
ByLayer
62
256
370
-1
100
AcDbLine
10
260
20
300
11
256
21
287
0
LINE
5
189
100
AcDbEntity
8
coordinate
6
ByLayer
62
256
370
-1
100
AcDbLine
10
256
20
287
11
247
21
287
0
LINE
5
18A
100
AcDbEntity
8
coordinate
6
ByLayer
62
256
370
-1
100
AcDbLine
10
240
20
300
11
235
21
305
0
LINE
5
18B
100
AcDbEntity
8
coordinate
6
ByLayer
62
256
370
-1
100
AcDbLine
10
235
20
305
11
225
21
305
0
LINE
5
18C
100
AcDbEntity
8
coordinate
6
ByLayer
62
256
370
-1
100
AcDbLine
10
220
20
300
11
215
21
295
0
LINE
5
18D
100
AcDbEntity
8
coordinate
6
ByLayer
62
256
370
-1
100
AcDbLine
10
215
20
295
11
205
21
295
0
LINE
5
18E
100
AcDbEntity
8
coordinate
6
ByLayer
62
256
370
-1
100
AcDbLine
10
260
20
350
11
255
21
345
0
LINE
5
18F
100
AcDbEntity
8
coordinate
6
ByLayer
62
256
370
-1
100
AcDbLine
10
255
20
345
11
245
21
345
0
LINE
5
190
100
AcDbEntity
8
coordinate
6
ByLayer
62
256
370
-1
100
AcDbLine
10
280
20
350
11
285
21
355
0
LINE
5
191
100
AcDbEntity
8
coordinate
6
ByLayer
62
256
370
-1
100
AcDbLine
10
285
20
355
11
295
21
355
0
LINE
5
192
100
AcDbEntity
8
coordinate
6
ByLayer
62
256
370
-1
100
AcDbLine
10
330
20
350
11
335
21
355
0
LINE
5
193
100
AcDbEntity
8
coordinate
6
ByLayer
62
256
370
-1
100
AcDbLine
10
335
20
355
11
345
21
355
0
LINE
5
194
100
AcDbEntity
8
coordinate
6
ByLayer
62
256
370
-1
100
AcDbLine
10
260
20
450
11
255
21
445
0
LINE
5
195
100
AcDbEntity
8
coordinate
6
ByLayer
62
256
370
-1
100
AcDbLine
10
255
20
445
11
245
21
445
0
LINE
5
196
100
AcDbEntity
8
coordinate
6
ByLayer
62
256
370
-1
100
AcDbLine
10
280
20
450
11
285
21
455
0
LINE
5
197
100
AcDbEntity
8
coordinate
6
ByLayer
62
256
370
-1
100
AcDbLine
10
285
20
455
11
295
21
455
0
LINE
5
198
100
AcDbEntity
8
coordinate
6
ByLayer
62
256
370
-1
100
AcDbLine
10
330
20
450
11
335
21
455
0
LINE
5
199
100
AcDbEntity
8
coordinate
6
ByLayer
62
256
370
-1
100
AcDbLine
10
335
20
455
11
345
21
455
0
LINE
5
19A
100
AcDbEntity
8
coordinate
6
ByLayer
62
256
370
-1
100
AcDbLine
10
260
20
530
11
255
21
525
0
LINE
5
19B
100
AcDbEntity
8
coordinate
6
ByLayer
62
256
370
-1
100
AcDbLine
10
255
20
525
11
245
21
525
0
LINE
5
19C
100
AcDbEntity
8
coordinate
6
ByLayer
62
256
370
-1
100
AcDbLine
10
280
20
550
11
285
21
555
0
LINE
5
19D
100
AcDbEntity
8
coordinate
6
ByLayer
62
256
370
-1
100
AcDbLine
10
285
20
555
11
295
21
555
0
LINE
5
19E
100
AcDbEntity
8
coordinate
6
ByLayer
62
256
370
-1
100
AcDbLine
10
330
20
550
11
335
21
555
0
LINE
5
19F
100
AcDbEntity
8
coordinate
6
ByLayer
62
256
370
-1
100
AcDbLine
10
335
20
555
11
345
21
555
0
LINE
5
1A0
100
AcDbEntity
8
coordinate
6
ByLayer
62
256
370
-1
100
AcDbLine
10
210
20
530
11
205
21
525
0
LINE
5
1A1
100
AcDbEntity
8
coordinate
6
ByLayer
62
256
370
-1
100
AcDbLine
10
205
20
525
11
195
21
525
0
LINE
5
1A2
100
AcDbEntity
8
coordinate
6
ByLayer
62
256
370
-1
100
AcDbLine
10
210
20
550
11
207
21
542
0
LINE
5
1A3
100
AcDbEntity
8
coordinate
6
ByLayer
62
256
370
-1
100
AcDbLine
10
207
20
542
11
197
21
542
0
LINE
5
1A4
100
AcDbEntity
8
coordinate
6
ByLayer
62
256
370
-1
100
AcDbLine
10
210
20
570
11
205
21
565
0
LINE
5
1A5
100
AcDbEntity
8
coordinate
6
ByLayer
62
256
370
-1
100
AcDbLine
10
205
20
565
11
195
21
565
0
LINE
5
1A6
100
AcDbEntity
8
coordinate
6
ByLayer
62
256
370
-1
100
AcDbLine
10
210
20
509.949044503
11
205
21
505
0
LINE
5
1A7
100
AcDbEntity
8
coordinate
6
ByLayer
62
256
370
-1
100
AcDbLine
10
205
20
505
11
195
21
505
0
LINE
5
1A8
100
AcDbEntity
8
coordinate
6
ByLayer
62
256
370
-1
100
AcDbLine
10
210
20
440
11
205
21
435
0
LINE
5
1A9
100
AcDbEntity
8
coordinate
6
ByLayer
62
256
370
-1
100
AcDbLine
10
205
20
435
11
195
21
435
0
LINE
5
1AA
100
AcDbEntity
8
coordinate
6
ByLayer
62
256
370
-1
100
AcDbLine
10
170
20
530
11
175
21
535
0
LINE
5
1AB
100
AcDbEntity
8
coordinate
6
ByLayer
62
256
370
-1
100
AcDbLine
10
175
20
535
11
185
21
535
0
LINE
5
1AC
100
AcDbEntity
8
coordinate
6
ByLayer
62
256
370
-1
100
AcDbLine
10
170
20
510
11
165
21
505
0
LINE
5
1AD
100
AcDbEntity
8
coordinate
6
ByLayer
62
256
370
-1
100
AcDbLine
10
165
20
505
11
155
21
505
0
LINE
5
1AE
100
AcDbEntity
8
coordinate
6
ByLayer
62
256
370
-1
100
AcDbLine
10
170
20
440
11
165
21
435
0
LINE
5
1AF
100
AcDbEntity
8
coordinate
6
ByLayer
62
256
370
-1
100
AcDbLine
10
165
20
435
11
155
21
435
0
LINE
5
1B0
100
AcDbEntity
8
coordinate
6
ByLayer
62
256
370
-1
100
AcDbLine
10
150
20
530
11
145
21
525
0
LINE
5
1B1
100
AcDbEntity
8
coordinate
6
ByLayer
62
256
370
-1
100
AcDbLine
10
145
20
525
11
135
21
525
0
LINE
5
1B2
100
AcDbEntity
8
coordinate
6
ByLayer
62
256
370
-1
100
AcDbLine
10
150
20
550
11
145
21
544
0
LINE
5
1B3
100
AcDbEntity
8
coordinate
6
ByLayer
62
256
370
-1
100
AcDbLine
10
145
20
544
11
134
21
544
0
LINE
5
1B4
100
AcDbEntity
8
coordinate
6
ByLayer
62
256
370
-1
100
AcDbLine
10
150
20
570
11
145
21
565
0
LINE
5
1B5
100
AcDbEntity
8
coordinate
6
ByLayer
62
256
370
-1
100
AcDbLine
10
145
20
565
11
135
21
565
0
LINE
5
1B6
100
AcDbEntity
8
coordinate
6
ByLayer
62
256
370
-1
100
AcDbLine
10
120
20
530
11
115
21
525
0
LINE
5
1B7
100
AcDbEntity
8
coordinate
6
ByLayer
62
256
370
-1
100
AcDbLine
10
115
20
525
11
105
21
525
0
LINE
5
1B8
100
AcDbEntity
8
coordinate
6
ByLayer
62
256
370
-1
100
AcDbLine
10
120
20
300
11
115
21
295
0
LINE
5
1B9
100
AcDbEntity
8
coordinate
6
ByLayer
62
256
370
-1
100
AcDbLine
10
115
20
295
11
105
21
295
0
LINE
5
1BA
100
AcDbEntity
8
coordinate
6
ByLayer
62
256
370
-1
100
AcDbLine
10
160
20
300
11
155
21
295
0
LINE
5
1BB
100
AcDbEntity
8
coordinate
6
ByLayer
62
256
370
-1
100
AcDbLine
10
155
20
295
11
145
21
295
0
LINE
5
1BC
100
AcDbEntity
8
coordinate
6
ByLayer
62
256
370
-1
100
AcDbLine
10
80
20
300
11
75
21
295
0
LINE
5
1BD
100
AcDbEntity
8
coordinate
6
ByLayer
62
256
370
-1
100
AcDbLine
10
75
20
295
11
65
21
295
0
LINE
5
1BE
100
AcDbEntity
8
coordinate
6
ByLayer
62
256
370
-1
100
AcDbLine
10
120
20
160
11
125
21
165
0
LINE
5
1BF
100
AcDbEntity
8
coordinate
6
ByLayer
62
256
370
-1
100
AcDbLine
10
125
20
165
11
135
21
165
0
LINE
5
1C0
100
AcDbEntity
8
coordinate
6
ByLayer
62
256
370
-1
100
AcDbLine
10
140
20
160
11
145
21
165
0
LINE
5
1C1
100
AcDbEntity
8
coordinate
6
ByLayer
62
256
370
-1
100
AcDbLine
10
145
20
165
11
155
21
165
0
LINE
5
1C2
100
AcDbEntity
8
coordinate
6
ByLayer
62
256
370
-1
100
AcDbLine
10
160
20
160
11
165
21
165
0
LINE
5
1C3
100
AcDbEntity
8
coordinate
6
ByLayer
62
256
370
-1
100
AcDbLine
10
165
20
165
11
175
21
165
0
LINE
5
1C4
100
AcDbEntity
8
coordinate
6
ByLayer
62
256
370
-1
100
AcDbLine
10
100
20
160
11
105
21
165
0
LINE
5
1C5
100
AcDbEntity
8
coordinate
6
ByLayer
62
256
370
-1
100
AcDbLine
10
105
20
165
11
115
21
165
0
LINE
5
1C6
100
AcDbEntity
8
coordinate
6
ByLayer
62
256
370
-1
100
AcDbLine
10
80
20
160
11
85
21
165
0
LINE
5
1C7
100
AcDbEntity
8
coordinate
6
ByLayer
62
256
370
-1
100
AcDbLine
10
85
20
165
11
95
21
165
0
LINE
5
1C8
100
AcDbEntity
8
coordinate
6
ByLayer
62
256
370
-1
100
AcDbLine
10
90.0509554966
20
530
11
95
21
535
0
LINE
5
1C9
100
AcDbEntity
8
coordinate
6
ByLayer
62
256
370
-1
100
AcDbLine
10
95
20
535
11
105
21
535
0
LINE
5
1CA
100
AcDbEntity
8
coordinate
6
ByLayer
62
256
370
-1
100
AcDbLine
10
90
20
550
11
95
21
555
0
LINE
5
1CB
100
AcDbEntity
8
coordinate
6
ByLayer
62
256
370
-1
100
AcDbLine
10
95
20
555
11
105
21
555
0
LINE
5
1CC
100
AcDbEntity
8
coordinate
6
ByLayer
62
256
370
-1
100
AcDbLine
10
90
20
570
11
95
21
575
0
LINE
5
1CD
100
AcDbEntity
8
coordinate
6
ByLayer
62
256
370
-1
100
AcDbLine
10
95
20
575
11
105
21
575
0
LINE
5
1CE
100
AcDbEntity
8
coordinate
6
ByLayer
62
256
370
-1
100
AcDbLine
10
70
20
530
11
75
21
535
0
LINE
5
1CF
100
AcDbEntity
8
coordinate
6
ByLayer
62
256
370
-1
100
AcDbLine
10
75
20
535
11
85
21
535
0
LINE
5
1D0
100
AcDbEntity
8
coordinate
6
ByLayer
62
256
370
-1
100
AcDbLine
10
70
20
509.949044503
11
65
21
505
0
LINE
5
1D1
100
AcDbEntity
8
coordinate
6
ByLayer
62
256
370
-1
100
AcDbLine
10
65
20
505
11
55
21
505
0
LINE
5
1D2
100
AcDbEntity
8
coordinate
6
ByLayer
62
256
370
-1
100
AcDbLine
10
70
20
440
11
65
21
435
0
LINE
5
1D3
100
AcDbEntity
8
coordinate
6
ByLayer
62
256
370
-1
100
AcDbLine
10
65
20
435
11
55
21
435
0
LINE
5
1D4
100
AcDbEntity
8
coordinate
6
ByLayer
62
256
370
-1
100
AcDbLine
10
30
20
530
11
35
21
535
0
LINE
5
1D5
100
AcDbEntity
8
coordinate
6
ByLayer
62
256
370
-1
100
AcDbLine
10
35
20
535
11
45
21
535
0
LINE
5
1D6
100
AcDbEntity
8
coordinate
6
ByLayer
62
256
370
-1
100
AcDbLine
10
30
20
550
11
25
21
555
0
LINE
5
1D7
100
AcDbEntity
8
coordinate
6
ByLayer
62
256
370
-1
100
AcDbLine
10
25
20
555
11
15
21
555
0
LINE
5
1D8
100
AcDbEntity
8
coordinate
6
ByLayer
62
256
370
-1
100
AcDbLine
10
30
20
570
11
25
21
575
0
LINE
5
1D9
100
AcDbEntity
8
coordinate
6
ByLayer
62
256
370
-1
100
AcDbLine
10
25
20
575
11
15
21
575
0
LINE
5
1DA
100
AcDbEntity
8
coordinate
6
ByLayer
62
256
370
-1
100
AcDbLine
10
30
20
510
11
25
21
505
0
LINE
5
1DB
100
AcDbEntity
8
coordinate
6
ByLayer
62
256
370
-1
100
AcDbLine
10
25
20
505
11
15
21
505
0
LINE
5
1DC
100
AcDbEntity
8
coordinate
6
ByLayer
62
256
370
-1
100
AcDbLine
10
30
20
440
11
25
21
435
0
LINE
5
1DD
100
AcDbEntity
8
coordinate
6
ByLayer
62
256
370
-1
100
AcDbLine
10
25
20
435
11
15
21
435
0
LINE
5
1DE
100
AcDbEntity
8
coordinate
6
ByLayer
62
256
370
-1
100
AcDbLine
10
0
20
530
11
-5
21
525
0
LINE
5
1DF
100
AcDbEntity
8
coordinate
6
ByLayer
62
256
370
-1
100
AcDbLine
10
-5
20
525
11
-15
21
525
0
MTEXT
5
1E0
100
AcDbEntity
8
coordinate
6
ByLayer
62
256
370
-1
100
AcDbMText
10
-11
20
69
30
0
40
3
41
1.33333333333
71
1
72
1
1
0
7
STANDARD
210
0
220
0
230
1
50
0
73
2
44
1
0
MTEXT
5
1E1
100
AcDbEntity
8
coordinate
6
ByLayer
62
256
370
-1
100
AcDbMText
10
-11
20
64
30
0
40
3
41
1.33333333333
71
1
72
1
1
7
7
STANDARD
210
0
220
0
230
1
50
0
73
2
44
1
0
MTEXT
5
1E2
100
AcDbEntity
8
coordinate
6
ByLayer
62
256
370
-1
100
AcDbMText
10
39
20
64
30
0
40
3
41
1.33333333333
71
1
72
1
1
7
7
STANDARD
210
0
220
0
230
1
50
0
73
2
44
1
0
MTEXT
5
1E3
100
AcDbEntity
8
coordinate
6
ByLayer
62
256
370
-1
100
AcDbMText
10
79
20
64
30
0
40
3
41
1.33333333333
71
1
72
1
1
7
7
STANDARD
210
0
220
0
230
1
50
0
73
2
44
1
0
MTEXT
5
1E4
100
AcDbEntity
8
coordinate
6
ByLayer
62
256
370
-1
100
AcDbMText
10
109
20
64
30
0
40
3
41
1.33333333333
71
1
72
1
1
7
7
STANDARD
210
0
220
0
230
1
50
0
73
2
44
1
0
MTEXT
5
1E5
100
AcDbEntity
8
coordinate
6
ByLayer
62
256
370
-1
100
AcDbMText
10
139
20
64
30
0
40
3
41
1.33333333333
71
1
72
1
1
7
7
STANDARD
210
0
220
0
230
1
50
0
73
2
44
1
0
MTEXT
5
1E6
100
AcDbEntity
8
coordinate
6
ByLayer
62
256
370
-1
100
AcDbMText
10
199
20
64
30
0
40
3
41
1.33333333333
71
1
72
1
1
7
7
STANDARD
210
0
220
0
230
1
50
0
73
2
44
1
0
MTEXT
5
1E7
100
AcDbEntity
8
coordinate
6
ByLayer
62
256
370
-1
100
AcDbMText
10
252
20
61
30
0
40
3
41
1.33333333333
71
1
72
1
1
7
7
STANDARD
210
0
220
0
230
1
50
0
73
2
44
1
0
MTEXT
5
1E8
100
AcDbEntity
8
coordinate
6
ByLayer
62
256
370
-1
100
AcDbMText
10
-11
20
529
30
0
40
3
41
1.33333333333
71
1
72
1
1
0
7
STANDARD
210
0
220
0
230
1
50
0
73
2
44
1
0
MTEXT
5
1E9
100
AcDbEntity
8
coordinate
6
ByLayer
62
256
370
-1
100
AcDbMText
10
39
20
69
30
0
40
3
41
1.33333333333
71
1
72
1
1
3
7
STANDARD
210
0
220
0
230
1
50
0
73
2
44
1
0
MTEXT
5
1EA
100
AcDbEntity
8
coordinate
6
ByLayer
62
256
370
-1
100
AcDbMText
10
19
20
47
30
0
40
3
41
1.33333333333
71
1
72
1
1
3
7
STANDARD
210
0
220
0
230
1
50
0
73
2
44
1
0
MTEXT
5
1EB
100
AcDbEntity
8
coordinate
6
ByLayer
62
256
370
-1
100
AcDbMText
10
19
20
29
30
0
40
3
41
1.33333333333
71
1
72
1
1
3
7
STANDARD
210
0
220
0
230
1
50
0
73
2
44
1
0
MTEXT
5
1EC
100
AcDbEntity
8
coordinate
6
ByLayer
62
256
370
-1
100
AcDbMText
10
19
20
439
30
0
40
3
41
1.33333333333
71
1
72
1
1
3
7
STANDARD
210
0
220
0
230
1
50
0
73
2
44
1
0
MTEXT
5
1ED
100
AcDbEntity
8
coordinate
6
ByLayer
62
256
370
-1
100
AcDbMText
10
19
20
509
30
0
40
3
41
1.33333333333
71
1
72
1
1
3
7
STANDARD
210
0
220
0
230
1
50
0
73
2
44
1
0
MTEXT
5
1EE
100
AcDbEntity
8
coordinate
6
ByLayer
62
256
370
-1
100
AcDbMText
10
39
20
539
30
0
40
3
41
1.33333333333
71
1
72
1
1
3
7
STANDARD
210
0
220
0
230
1
50
0
73
2
44
1
0
MTEXT
5
1EF
100
AcDbEntity
8
coordinate
6
ByLayer
62
256
370
-1
100
AcDbMText
10
19
20
559
30
0
40
3
41
1.33333333333
71
1
72
1
1
3
7
STANDARD
210
0
220
0
230
1
50
0
73
2
44
1
0
MTEXT
5
1F0
100
AcDbEntity
8
coordinate
6
ByLayer
62
256
370
-1
100
AcDbMText
10
19
20
579
30
0
40
3
41
1.33333333333
71
1
72
1
1
3
7
STANDARD
210
0
220
0
230
1
50
0
73
2
44
1
0
MTEXT
5
1F1
100
AcDbEntity
8
coordinate
6
ByLayer
62
256
370
-1
100
AcDbMText
10
19
20
42
30
0
40
3
41
1.33333333333
71
1
72
1
1
5
7
STANDARD
210
0
220
0
230
1
50
0
73
2
44
1
0
MTEXT
5
1F2
100
AcDbEntity
8
coordinate
6
ByLayer
62
256
370
-1
100
AcDbMText
10
80
20
42
30
0
40
3
41
1.33333333333
71
1
72
1
1
5
7
STANDARD
210
0
220
0
230
1
50
0
73
2
44
1
0
MTEXT
5
1F3
100
AcDbEntity
8
coordinate
6
ByLayer
62
256
370
-1
100
AcDbMText
10
140
20
42
30
0
40
3
41
1.33333333333
71
1
72
1
1
5
7
STANDARD
210
0
220
0
230
1
50
0
73
2
44
1
0
MTEXT
5
1F4
100
AcDbEntity
8
coordinate
6
ByLayer
62
256
370
-1
100
AcDbMText
10
200
20
42
30
0
40
3
41
1.33333333333
71
1
72
1
1
5
7
STANDARD
210
0
220
0
230
1
50
0
73
2
44
1
0
MTEXT
5
1F5
100
AcDbEntity
8
coordinate
6
ByLayer
62
256
370
-1
100
AcDbMText
10
249
20
44
30
0
40
3
41
1.33333333333
71
1
72
1
1
5
7
STANDARD
210
0
220
0
230
1
50
0
73
2
44
1
0
MTEXT
5
1F6
100
AcDbEntity
8
coordinate
6
ByLayer
62
256
370
-1
100
AcDbMText
10
289
20
54
30
0
40
3
41
1.33333333333
71
1
72
1
1
5
7
STANDARD
210
0
220
0
230
1
50
0
73
2
44
1
0
MTEXT
5
1F7
100
AcDbEntity
8
coordinate
6
ByLayer
62
256
370
-1
100
AcDbMText
10
319
20
44
30
0
40
3
41
1.33333333333
71
1
72
1
1
5
7
STANDARD
210
0
220
0
230
1
50
0
73
2
44
1
0
MTEXT
5
1F8
100
AcDbEntity
8
coordinate
6
ByLayer
62
256
370
-1
100
AcDbMText
10
19
20
24
30
0
40
3
41
1.33333333333
71
1
72
1
1
3
7
STANDARD
210
0
220
0
230
1
50
0
73
2
44
1
0
MTEXT
5
1F9
100
AcDbEntity
8
coordinate
6
ByLayer
62
256
370
-1
100
AcDbMText
10
79
20
24
30
0
40
3
41
1.33333333333
71
1
72
1
1
3
7
STANDARD
210
0
220
0
230
1
50
0
73
2
44
1
0
MTEXT
5
1FA
100
AcDbEntity
8
coordinate
6
ByLayer
62
256
370
-1
100
AcDbMText
10
139
20
24
30
0
40
3
41
1.33333333333
71
1
72
1
1
3
7
STANDARD
210
0
220
0
230
1
50
0
73
2
44
1
0
MTEXT
5
1FB
100
AcDbEntity
8
coordinate
6
ByLayer
62
256
370
-1
100
AcDbMText
10
199
20
24
30
0
40
3
41
1.33333333333
71
1
72
1
1
3
7
STANDARD
210
0
220
0
230
1
50
0
73
2
44
1
0
MTEXT
5
1FC
100
AcDbEntity
8
coordinate
6
ByLayer
62
256
370
-1
100
AcDbMText
10
79
20
69
30
0
40
3
41
1.33333333333
71
1
72
1
1
9
7
STANDARD
210
0
220
0
230
1
50
0
73
2
44
1
0
MTEXT
5
1FD
100
AcDbEntity
8
coordinate
6
ByLayer
62
256
370
-1
100
AcDbMText
10
80
20
47
30
0
40
3
41
1.33333333333
71
1
72
1
1
9
7
STANDARD
210
0
220
0
230
1
50
0
73
2
44
1
0
MTEXT
5
1FE
100
AcDbEntity
8
coordinate
6
ByLayer
62
256
370
-1
100
AcDbMText
10
79
20
29
30
0
40
3
41
1.33333333333
71
1
72
1
1
9
7
STANDARD
210
0
220
0
230
1
50
0
73
2
44
1
0
MTEXT
5
1FF
100
AcDbEntity
8
coordinate
6
ByLayer
62
256
370
-1
100
AcDbMText
10
109
20
69
30
0
40
3
41
3
71
1
72
1
1
12
7
STANDARD
210
0
220
0
230
1
50
0
73
2
44
1
0
MTEXT
5
200
100
AcDbEntity
8
coordinate
6
ByLayer
62
256
370
-1
100
AcDbMText
10
129
20
169
30
0
40
3
41
3
71
1
72
1
1
12
7
STANDARD
210
0
220
0
230
1
50
0
73
2
44
1
0
MTEXT
5
201
100
AcDbEntity
8
coordinate
6
ByLayer
62
256
370
-1
100
AcDbMText
10
109
20
299
30
0
40
3
41
3
71
1
72
1
1
12
7
STANDARD
210
0
220
0
230
1
50
0
73
2
44
1
0
MTEXT
5
202
100
AcDbEntity
8
coordinate
6
ByLayer
62
256
370
-1
100
AcDbMText
10
109
20
529
30
0
40
3
41
3
71
1
72
1
1
12
7
STANDARD
210
0
220
0
230
1
50
0
73
2
44
1
0
MTEXT
5
203
100
AcDbEntity
8
coordinate
6
ByLayer
62
256
370
-1
100
AcDbMText
10
139
20
69
30
0
40
3
41
3
71
1
72
1
1
15
7
STANDARD
210
0
220
0
230
1
50
0
73
2
44
1
0
MTEXT
5
204
100
AcDbEntity
8
coordinate
6
ByLayer
62
256
370
-1
100
AcDbMText
10
139
20
47
30
0
40
3
41
3
71
1
72
1
1
15
7
STANDARD
210
0
220
0
230
1
50
0
73
2
44
1
0
MTEXT
5
205
100
AcDbEntity
8
coordinate
6
ByLayer
62
256
370
-1
100
AcDbMText
10
139
20
29
30
0
40
3
41
3
71
1
72
1
1
15
7
STANDARD
210
0
220
0
230
1
50
0
73
2
44
1
0
MTEXT
5
206
100
AcDbEntity
8
coordinate
6
ByLayer
62
256
370
-1
100
AcDbMText
10
199
20
69
30
0
40
3
41
3
71
1
72
1
1
21
7
STANDARD
210
0
220
0
230
1
50
0
73
2
44
1
0
MTEXT
5
207
100
AcDbEntity
8
coordinate
6
ByLayer
62
256
370
-1
100
AcDbMText
10
199
20
48
30
0
40
3
41
3
71
1
72
1
1
21
7
STANDARD
210
0
220
0
230
1
50
0
73
2
44
1
0
MTEXT
5
208
100
AcDbEntity
8
coordinate
6
ByLayer
62
256
370
-1
100
AcDbMText
10
198
20
29
30
0
40
3
41
3
71
1
72
1
1
21
7
STANDARD
210
0
220
0
230
1
50
0
73
2
44
1
0
MTEXT
5
209
100
AcDbEntity
8
coordinate
6
ByLayer
62
256
370
-1
100
AcDbMText
10
251
20
66
30
0
40
3
41
3.66666666667
71
1
72
1
1
26
7
STANDARD
210
0
220
0
230
1
50
0
73
2
44
1
0
MTEXT
5
20A
100
AcDbEntity
8
coordinate
6
ByLayer
62
256
370
-1
100
AcDbMText
10
248
20
49
30
0
40
3
41
3.66666666667
71
1
72
1
1
26
7
STANDARD
210
0
220
0
230
1
50
0
73
2
44
1
0
MTEXT
5
20B
100
AcDbEntity
8
coordinate
6
ByLayer
62
256
370
-1
100
AcDbMText
10
248
20
-1
30
0
40
3
41
3.66666666667
71
1
72
1
1
26
7
STANDARD
210
0
220
0
230
1
50
0
73
2
44
1
0
MTEXT
5
20C
100
AcDbEntity
8
coordinate
6
ByLayer
62
256
370
-1
100
AcDbMText
10
251
20
146
30
0
40
3
41
3.66666666667
71
1
72
1
1
26
7
STANDARD
210
0
220
0
230
1
50
0
73
2
44
1
0
MTEXT
5
20D
100
AcDbEntity
8
coordinate
6
ByLayer
62
256
370
-1
100
AcDbMText
10
268
20
169
30
0
40
3
41
3.66666666667
71
1
72
1
1
26
7
STANDARD
210
0
220
0
230
1
50
0
73
2
44
1
0
MTEXT
5
20E
100
AcDbEntity
8
coordinate
6
ByLayer
62
256
370
-1
100
AcDbMText
10
248
20
249
30
0
40
3
41
3.66666666667
71
1
72
1
1
26
7
STANDARD
210
0
220
0
230
1
50
0
73
2
44
1
0
MTEXT
5
20F
100
AcDbEntity
8
coordinate
6
ByLayer
62
256
370
-1
100
AcDbMText
10
250
20
291
30
0
40
3
41
3.66666666667
71
1
72
1
1
26
7
STANDARD
210
0
220
0
230
1
50
0
73
2
44
1
0
MTEXT
5
210
100
AcDbEntity
8
coordinate
6
ByLayer
62
256
370
-1
100
AcDbMText
10
248
20
349
30
0
40
3
41
3.66666666667
71
1
72
1
1
26
7
STANDARD
210
0
220
0
230
1
50
0
73
2
44
1
0
MTEXT
5
211
100
AcDbEntity
8
coordinate
6
ByLayer
62
256
370
-1
100
AcDbMText
10
248
20
449
30
0
40
3
41
3.66666666667
71
1
72
1
1
26
7
STANDARD
210
0
220
0
230
1
50
0
73
2
44
1
0
MTEXT
5
212
100
AcDbEntity
8
coordinate
6
ByLayer
62
256
370
-1
100
AcDbMText
10
248
20
529
30
0
40
3
41
3.66666666667
71
1
72
1
1
26
7
STANDARD
210
0
220
0
230
1
50
0
73
2
44
1
0
MTEXT
5
213
100
AcDbEntity
8
coordinate
6
ByLayer
62
256
370
-1
100
AcDbMText
10
249
20
-6
30
0
40
3
41
1.33333333333
71
1
72
1
1
0
7
STANDARD
210
0
220
0
230
1
50
0
73
2
44
1
0
MTEXT
5
214
100
AcDbEntity
8
coordinate
6
ByLayer
62
256
370
-1
100
AcDbMText
10
288
20
59
30
0
40
3
41
3.66666666667
71
1
72
1
1
28
7
STANDARD
210
0
220
0
230
1
50
0
73
2
44
1
0
MTEXT
5
215
100
AcDbEntity
8
coordinate
6
ByLayer
62
256
370
-1
100
AcDbMText
10
288
20
159
30
0
40
3
41
3.66666666667
71
1
72
1
1
28
7
STANDARD
210
0
220
0
230
1
50
0
73
2
44
1
0
MTEXT
5
216
100
AcDbEntity
8
coordinate
6
ByLayer
62
256
370
-1
100
AcDbMText
10
288
20
259
30
0
40
3
41
3.66666666667
71
1
72
1
1
28
7
STANDARD
210
0
220
0
230
1
50
0
73
2
44
1
0
MTEXT
5
217
100
AcDbEntity
8
coordinate
6
ByLayer
62
256
370
-1
100
AcDbMText
10
288
20
359
30
0
40
3
41
3.66666666667
71
1
72
1
1
28
7
STANDARD
210
0
220
0
230
1
50
0
73
2
44
1
0
MTEXT
5
218
100
AcDbEntity
8
coordinate
6
ByLayer
62
256
370
-1
100
AcDbMText
10
288
20
459
30
0
40
3
41
3.66666666667
71
1
72
1
1
28
7
STANDARD
210
0
220
0
230
1
50
0
73
2
44
1
0
MTEXT
5
219
100
AcDbEntity
8
coordinate
6
ByLayer
62
256
370
-1
100
AcDbMText
10
288
20
559
30
0
40
3
41
3.66666666667
71
1
72
1
1
28
7
STANDARD
210
0
220
0
230
1
50
0
73
2
44
1
0
MTEXT
5
21A
100
AcDbEntity
8
coordinate
6
ByLayer
62
256
370
-1
100
AcDbMText
10
318
20
49
30
0
40
3
41
3.66666666667
71
1
72
1
1
33
7
STANDARD
210
0
220
0
230
1
50
0
73
2
44
1
0
MTEXT
5
21B
100
AcDbEntity
8
coordinate
6
ByLayer
62
256
370
-1
100
AcDbMText
10
338
20
159
30
0
40
3
41
3.66666666667
71
1
72
1
1
33
7
STANDARD
210
0
220
0
230
1
50
0
73
2
44
1
0
MTEXT
5
21C
100
AcDbEntity
8
coordinate
6
ByLayer
62
256
370
-1
100
AcDbMText
10
338
20
259
30
0
40
3
41
3.66666666667
71
1
72
1
1
33
7
STANDARD
210
0
220
0
230
1
50
0
73
2
44
1
0
MTEXT
5
21D
100
AcDbEntity
8
coordinate
6
ByLayer
62
256
370
-1
100
AcDbMText
10
338
20
359
30
0
40
3
41
3.66666666667
71
1
72
1
1
33
7
STANDARD
210
0
220
0
230
1
50
0
73
2
44
1
0
MTEXT
5
21E
100
AcDbEntity
8
coordinate
6
ByLayer
62
256
370
-1
100
AcDbMText
10
338
20
459
30
0
40
3
41
3.66666666667
71
1
72
1
1
33
7
STANDARD
210
0
220
0
230
1
50
0
73
2
44
1
0
MTEXT
5
21F
100
AcDbEntity
8
coordinate
6
ByLayer
62
256
370
-1
100
AcDbMText
10
338
20
559
30
0
40
3
41
3.66666666667
71
1
72
1
1
33
7
STANDARD
210
0
220
0
230
1
50
0
73
2
44
1
0
MTEXT
5
220
100
AcDbEntity
8
coordinate
6
ByLayer
62
256
370
-1
100
AcDbMText
10
251
20
141
30
0
40
3
41
3
71
1
72
1
1
15
7
STANDARD
210
0
220
0
230
1
50
0
73
2
44
1
0
MTEXT
5
221
100
AcDbEntity
8
coordinate
6
ByLayer
62
256
370
-1
100
AcDbMText
10
288
20
154
30
0
40
3
41
3
71
1
72
1
1
15
7
STANDARD
210
0
220
0
230
1
50
0
73
2
44
1
0
MTEXT
5
222
100
AcDbEntity
8
coordinate
6
ByLayer
62
256
370
-1
100
AcDbMText
10
338
20
154
30
0
40
3
41
3
71
1
72
1
1
15
7
STANDARD
210
0
220
0
230
1
50
0
73
2
44
1
0
MTEXT
5
223
100
AcDbEntity
8
coordinate
6
ByLayer
62
256
370
-1
100
AcDbMText
10
268
20
164
30
0
40
3
41
3
71
1
72
1
1
16
7
STANDARD
210
0
220
0
230
1
50
0
73
2
44
1
0
MTEXT
5
224
100
AcDbEntity
8
coordinate
6
ByLayer
62
256
370
-1
100
AcDbMText
10
248
20
164
30
0
40
3
41
3
71
1
72
1
1
16
7
STANDARD
210
0
220
0
230
1
50
0
73
2
44
1
0
MTEXT
5
225
100
AcDbEntity
8
coordinate
6
ByLayer
62
256
370
-1
100
AcDbMText
10
208
20
154
30
0
40
3
41
3
71
1
72
1
1
16
7
STANDARD
210
0
220
0
230
1
50
0
73
2
44
1
0
MTEXT
5
226
100
AcDbEntity
8
coordinate
6
ByLayer
62
256
370
-1
100
AcDbMText
10
168
20
164
30
0
40
3
41
3
71
1
72
1
1
16
7
STANDARD
210
0
220
0
230
1
50
0
73
2
44
1
0
MTEXT
5
227
100
AcDbEntity
8
coordinate
6
ByLayer
62
256
370
-1
100
AcDbMText
10
148
20
164
30
0
40
3
41
3
71
1
72
1
1
16
7
STANDARD
210
0
220
0
230
1
50
0
73
2
44
1
0
MTEXT
5
228
100
AcDbEntity
8
coordinate
6
ByLayer
62
256
370
-1
100
AcDbMText
10
129
20
164
30
0
40
3
41
3
71
1
72
1
1
16
7
STANDARD
210
0
220
0
230
1
50
0
73
2
44
1
0
MTEXT
5
229
100
AcDbEntity
8
coordinate
6
ByLayer
62
256
370
-1
100
AcDbMText
10
108
20
164
30
0
40
3
41
3
71
1
72
1
1
16
7
STANDARD
210
0
220
0
230
1
50
0
73
2
44
1
0
MTEXT
5
22A
100
AcDbEntity
8
coordinate
6
ByLayer
62
256
370
-1
100
AcDbMText
10
88
20
164
30
0
40
3
41
3
71
1
72
1
1
16
7
STANDARD
210
0
220
0
230
1
50
0
73
2
44
1
0
MTEXT
5
22B
100
AcDbEntity
8
coordinate
6
ByLayer
62
256
370
-1
100
AcDbMText
10
248
20
169
30
0
40
3
41
4
71
1
72
1
1
24
7
STANDARD
210
0
220
0
230
1
50
0
73
2
44
1
0
MTEXT
5
22C
100
AcDbEntity
8
coordinate
6
ByLayer
62
256
370
-1
100
AcDbMText
10
229
20
309
30
0
40
3
41
4
71
1
72
1
1
24
7
STANDARD
210
0
220
0
230
1
50
0
73
2
44
1
0
MTEXT
5
22D
100
AcDbEntity
8
coordinate
6
ByLayer
62
256
370
-1
100
AcDbMText
10
208
20
159
30
0
40
3
41
3.66666666667
71
1
72
1
1
22
7
STANDARD
210
0
220
0
230
1
50
0
73
2
44
1
0
MTEXT
5
22E
100
AcDbEntity
8
coordinate
6
ByLayer
62
256
370
-1
100
AcDbMText
10
208
20
299
30
0
40
3
41
3.66666666667
71
1
72
1
1
22
7
STANDARD
210
0
220
0
230
1
50
0
73
2
44
1
0
MTEXT
5
22F
100
AcDbEntity
8
coordinate
6
ByLayer
62
256
370
-1
100
AcDbMText
10
248
20
244
30
0
40
3
41
3.66666666667
71
1
72
1
1
25
7
STANDARD
210
0
220
0
230
1
50
0
73
2
44
1
0
MTEXT
5
230
100
AcDbEntity
8
coordinate
6
ByLayer
62
256
370
-1
100
AcDbMText
10
288
20
254
30
0
40
3
41
3.66666666667
71
1
72
1
1
25
7
STANDARD
210
0
220
0
230
1
50
0
73
2
44
1
0
MTEXT
5
231
100
AcDbEntity
8
coordinate
6
ByLayer
62
256
370
-1
100
AcDbMText
10
338
20
254
30
0
40
3
41
3.66666666667
71
1
72
1
1
25
7
STANDARD
210
0
220
0
230
1
50
0
73
2
44
1
0
MTEXT
5
232
100
AcDbEntity
8
coordinate
6
ByLayer
62
256
370
-1
100
AcDbMText
10
250
20
286
30
0
40
3
41
3.66666666667
71
1
72
1
1
30
7
STANDARD
210
0
220
0
230
1
50
0
73
2
44
1
0
MTEXT
5
233
100
AcDbEntity
8
coordinate
6
ByLayer
62
256
370
-1
100
AcDbMText
10
229
20
304
30
0
40
3
41
3.66666666667
71
1
72
1
1
30
7
STANDARD
210
0
220
0
230
1
50
0
73
2
44
1
0
MTEXT
5
234
100
AcDbEntity
8
coordinate
6
ByLayer
62
256
370
-1
100
AcDbMText
10
208
20
294
30
0
40
3
41
3.66666666667
71
1
72
1
1
30
7
STANDARD
210
0
220
0
230
1
50
0
73
2
44
1
0
MTEXT
5
235
100
AcDbEntity
8
coordinate
6
ByLayer
62
256
370
-1
100
AcDbMText
10
148
20
294
30
0
40
3
41
3.66666666667
71
1
72
1
1
30
7
STANDARD
210
0
220
0
230
1
50
0
73
2
44
1
0
MTEXT
5
236
100
AcDbEntity
8
coordinate
6
ByLayer
62
256
370
-1
100
AcDbMText
10
109
20
294
30
0
40
3
41
3.66666666667
71
1
72
1
1
30
7
STANDARD
210
0
220
0
230
1
50
0
73
2
44
1
0
MTEXT
5
237
100
AcDbEntity
8
coordinate
6
ByLayer
62
256
370
-1
100
AcDbMText
10
68
20
294
30
0
40
3
41
3.66666666667
71
1
72
1
1
30
7
STANDARD
210
0
220
0
230
1
50
0
73
2
44
1
0
MTEXT
5
238
100
AcDbEntity
8
coordinate
6
ByLayer
62
256
370
-1
100
AcDbMText
10
248
20
344
30
0
40
3
41
3.66666666667
71
1
72
1
1
35
7
STANDARD
210
0
220
0
230
1
50
0
73
2
44
1
0
MTEXT
5
239
100
AcDbEntity
8
coordinate
6
ByLayer
62
256
370
-1
100
AcDbMText
10
288
20
354
30
0
40
3
41
3.66666666667
71
1
72
1
1
35
7
STANDARD
210
0
220
0
230
1
50
0
73
2
44
1
0
MTEXT
5
23A
100
AcDbEntity
8
coordinate
6
ByLayer
62
256
370
-1
100
AcDbMText
10
338
20
354
30
0
40
3
41
3.66666666667
71
1
72
1
1
35
7
STANDARD
210
0
220
0
230
1
50
0
73
2
44
1
0
MTEXT
5
23B
100
AcDbEntity
8
coordinate
6
ByLayer
62
256
370
-1
100
AcDbMText
10
248
20
444
30
0
40
3
41
4
71
1
72
1
1
45
7
STANDARD
210
0
220
0
230
1
50
0
73
2
44
1
0
MTEXT
5
23C
100
AcDbEntity
8
coordinate
6
ByLayer
62
256
370
-1
100
AcDbMText
10
288
20
454
30
0
40
3
41
4
71
1
72
1
1
45
7
STANDARD
210
0
220
0
230
1
50
0
73
2
44
1
0
MTEXT
5
23D
100
AcDbEntity
8
coordinate
6
ByLayer
62
256
370
-1
100
AcDbMText
10
338
20
454
30
0
40
3
41
4
71
1
72
1
1
45
7
STANDARD
210
0
220
0
230
1
50
0
73
2
44
1
0
MTEXT
5
23E
100
AcDbEntity
8
coordinate
6
ByLayer
62
256
370
-1
100
AcDbMText
10
248
20
524
30
0
40
3
41
3.66666666667
71
1
72
1
1
53
7
STANDARD
210
0
220
0
230
1
50
0
73
2
44
1
0
MTEXT
5
23F
100
AcDbEntity
8
coordinate
6
ByLayer
62
256
370
-1
100
AcDbMText
10
198
20
524
30
0
40
3
41
3.66666666667
71
1
72
1
1
53
7
STANDARD
210
0
220
0
230
1
50
0
73
2
44
1
0
MTEXT
5
240
100
AcDbEntity
8
coordinate
6
ByLayer
62
256
370
-1
100
AcDbMText
10
178
20
534
30
0
40
3
41
3.66666666667
71
1
72
1
1
53
7
STANDARD
210
0
220
0
230
1
50
0
73
2
44
1
0
MTEXT
5
241
100
AcDbEntity
8
coordinate
6
ByLayer
62
256
370
-1
100
AcDbMText
10
138
20
524
30
0
40
3
41
3.66666666667
71
1
72
1
1
53
7
STANDARD
210
0
220
0
230
1
50
0
73
2
44
1
0
MTEXT
5
242
100
AcDbEntity
8
coordinate
6
ByLayer
62
256
370
-1
100
AcDbMText
10
109
20
524
30
0
40
3
41
3.66666666667
71
1
72
1
1
53
7
STANDARD
210
0
220
0
230
1
50
0
73
2
44
1
0
MTEXT
5
243
100
AcDbEntity
8
coordinate
6
ByLayer
62
256
370
-1
100
AcDbMText
10
98
20
534
30
0
40
3
41
3.66666666667
71
1
72
1
1
53
7
STANDARD
210
0
220
0
230
1
50
0
73
2
44
1
0
MTEXT
5
244
100
AcDbEntity
8
coordinate
6
ByLayer
62
256
370
-1
100
AcDbMText
10
78
20
534
30
0
40
3
41
3.66666666667
71
1
72
1
1
53
7
STANDARD
210
0
220
0
230
1
50
0
73
2
44
1
0
MTEXT
5
245
100
AcDbEntity
8
coordinate
6
ByLayer
62
256
370
-1
100
AcDbMText
10
38
20
534
30
0
40
3
41
3.66666666667
71
1
72
1
1
53
7
STANDARD
210
0
220
0
230
1
50
0
73
2
44
1
0
MTEXT
5
246
100
AcDbEntity
8
coordinate
6
ByLayer
62
256
370
-1
100
AcDbMText
10
-12
20
524
30
0
40
3
41
3.66666666667
71
1
72
1
1
53
7
STANDARD
210
0
220
0
230
1
50
0
73
2
44
1
0
MTEXT
5
247
100
AcDbEntity
8
coordinate
6
ByLayer
62
256
370
-1
100
AcDbMText
10
288
20
554
30
0
40
3
41
3.66666666667
71
1
72
1
1
55
7
STANDARD
210
0
220
0
230
1
50
0
73
2
44
1
0
MTEXT
5
248
100
AcDbEntity
8
coordinate
6
ByLayer
62
256
370
-1
100
AcDbMText
10
338
20
554
30
0
40
3
41
3.66666666667
71
1
72
1
1
55
7
STANDARD
210
0
220
0
230
1
50
0
73
2
44
1
0
MTEXT
5
249
100
AcDbEntity
8
coordinate
6
ByLayer
62
256
370
-1
100
AcDbMText
10
201
20
541
30
0
40
3
41
3.66666666667
71
1
72
1
1
55
7
STANDARD
210
0
220
0
230
1
50
0
73
2
44
1
0
MTEXT
5
24A
100
AcDbEntity
8
coordinate
6
ByLayer
62
256
370
-1
100
AcDbMText
10
138
20
543
30
0
40
3
41
3.66666666667
71
1
72
1
1
55
7
STANDARD
210
0
220
0
230
1
50
0
73
2
44
1
0
MTEXT
5
24B
100
AcDbEntity
8
coordinate
6
ByLayer
62
256
370
-1
100
AcDbMText
10
98
20
554
30
0
40
3
41
3.66666666667
71
1
72
1
1
55
7
STANDARD
210
0
220
0
230
1
50
0
73
2
44
1
0
MTEXT
5
24C
100
AcDbEntity
8
coordinate
6
ByLayer
62
256
370
-1
100
AcDbMText
10
18
20
554
30
0
40
3
41
3.66666666667
71
1
72
1
1
55
7
STANDARD
210
0
220
0
230
1
50
0
73
2
44
1
0
MTEXT
5
24D
100
AcDbEntity
8
coordinate
6
ByLayer
62
256
370
-1
100
AcDbMText
10
198
20
529
30
0
40
3
41
3
71
1
72
1
1
21
7
STANDARD
210
0
220
0
230
1
50
0
73
2
44
1
0
MTEXT
5
24E
100
AcDbEntity
8
coordinate
6
ByLayer
62
256
370
-1
100
AcDbMText
10
198
20
509
30
0
40
3
41
3
71
1
72
1
1
21
7
STANDARD
210
0
220
0
230
1
50
0
73
2
44
1
0
MTEXT
5
24F
100
AcDbEntity
8
coordinate
6
ByLayer
62
256
370
-1
100
AcDbMText
10
198
20
439
30
0
40
3
41
3
71
1
72
1
1
21
7
STANDARD
210
0
220
0
230
1
50
0
73
2
44
1
0
MTEXT
5
250
100
AcDbEntity
8
coordinate
6
ByLayer
62
256
370
-1
100
AcDbMText
10
201
20
546
30
0
40
3
41
3
71
1
72
1
1
21
7
STANDARD
210
0
220
0
230
1
50
0
73
2
44
1
0
MTEXT
5
251
100
AcDbEntity
8
coordinate
6
ByLayer
62
256
370
-1
100
AcDbMText
10
198
20
569
30
0
40
3
41
3
71
1
72
1
1
21
7
STANDARD
210
0
220
0
230
1
50
0
73
2
44
1
0
MTEXT
5
252
100
AcDbEntity
8
coordinate
6
ByLayer
62
256
370
-1
100
AcDbMText
10
198
20
564
30
0
40
3
41
3.66666666667
71
1
72
1
1
57
7
STANDARD
210
0
220
0
230
1
50
0
73
2
44
1
0
MTEXT
5
253
100
AcDbEntity
8
coordinate
6
ByLayer
62
256
370
-1
100
AcDbMText
10
138
20
564
30
0
40
3
41
3.66666666667
71
1
72
1
1
57
7
STANDARD
210
0
220
0
230
1
50
0
73
2
44
1
0
MTEXT
5
254
100
AcDbEntity
8
coordinate
6
ByLayer
62
256
370
-1
100
AcDbMText
10
98
20
574
30
0
40
3
41
3.66666666667
71
1
72
1
1
57
7
STANDARD
210
0
220
0
230
1
50
0
73
2
44
1
0
MTEXT
5
255
100
AcDbEntity
8
coordinate
6
ByLayer
62
256
370
-1
100
AcDbMText
10
18
20
574
30
0
40
3
41
3.66666666667
71
1
72
1
1
57
7
STANDARD
210
0
220
0
230
1
50
0
73
2
44
1
0
MTEXT
5
256
100
AcDbEntity
8
coordinate
6
ByLayer
62
256
370
-1
100
AcDbMText
10
198
20
504
30
0
40
3
41
3
71
1
72
1
1
51
7
STANDARD
210
0
220
0
230
1
50
0
73
2
44
1
0
MTEXT
5
257
100
AcDbEntity
8
coordinate
6
ByLayer
62
256
370
-1
100
AcDbMText
10
158
20
504
30
0
40
3
41
3
71
1
72
1
1
51
7
STANDARD
210
0
220
0
230
1
50
0
73
2
44
1
0
MTEXT
5
258
100
AcDbEntity
8
coordinate
6
ByLayer
62
256
370
-1
100
AcDbMText
10
58
20
504
30
0
40
3
41
3
71
1
72
1
1
51
7
STANDARD
210
0
220
0
230
1
50
0
73
2
44
1
0
MTEXT
5
259
100
AcDbEntity
8
coordinate
6
ByLayer
62
256
370
-1
100
AcDbMText
10
18
20
504
30
0
40
3
41
3
71
1
72
1
1
51
7
STANDARD
210
0
220
0
230
1
50
0
73
2
44
1
0
MTEXT
5
25A
100
AcDbEntity
8
coordinate
6
ByLayer
62
256
370
-1
100
AcDbMText
10
198
20
434
30
0
40
3
41
4.33333333333
71
1
72
1
1
44
7
STANDARD
210
0
220
0
230
1
50
0
73
2
44
1
0
MTEXT
5
25B
100
AcDbEntity
8
coordinate
6
ByLayer
62
256
370
-1
100
AcDbMText
10
158
20
434
30
0
40
3
41
4.33333333333
71
1
72
1
1
44
7
STANDARD
210
0
220
0
230
1
50
0
73
2
44
1
0
MTEXT
5
25C
100
AcDbEntity
8
coordinate
6
ByLayer
62
256
370
-1
100
AcDbMText
10
58
20
434
30
0
40
3
41
4.33333333333
71
1
72
1
1
44
7
STANDARD
210
0
220
0
230
1
50
0
73
2
44
1
0
MTEXT
5
25D
100
AcDbEntity
8
coordinate
6
ByLayer
62
256
370
-1
100
AcDbMText
10
18
20
434
30
0
40
3
41
4.33333333333
71
1
72
1
1
44
7
STANDARD
210
0
220
0
230
1
50
0
73
2
44
1
0
MTEXT
5
25E
100
AcDbEntity
8
coordinate
6
ByLayer
62
256
370
-1
100
AcDbMText
10
178
20
539
30
0
40
3
41
3
71
1
72
1
1
17
7
STANDARD
210
0
220
0
230
1
50
0
73
2
44
1
0
MTEXT
5
25F
100
AcDbEntity
8
coordinate
6
ByLayer
62
256
370
-1
100
AcDbMText
10
158
20
509
30
0
40
3
41
3
71
1
72
1
1
17
7
STANDARD
210
0
220
0
230
1
50
0
73
2
44
1
0
MTEXT
5
260
100
AcDbEntity
8
coordinate
6
ByLayer
62
256
370
-1
100
AcDbMText
10
158
20
439
30
0
40
3
41
3
71
1
72
1
1
17
7
STANDARD
210
0
220
0
230
1
50
0
73
2
44
1
0
MTEXT
5
261
100
AcDbEntity
8
coordinate
6
ByLayer
62
256
370
-1
100
AcDbMText
10
138
20
529
30
0
40
3
41
3
71
1
72
1
1
15
7
STANDARD
210
0
220
0
230
1
50
0
73
2
44
1
0
MTEXT
5
262
100
AcDbEntity
8
coordinate
6
ByLayer
62
256
370
-1
100
AcDbMText
10
138
20
548
30
0
40
3
41
3
71
1
72
1
1
15
7
STANDARD
210
0
220
0
230
1
50
0
73
2
44
1
0
MTEXT
5
263
100
AcDbEntity
8
coordinate
6
ByLayer
62
256
370
-1
100
AcDbMText
10
138
20
569
30
0
40
3
41
3
71
1
72
1
1
15
7
STANDARD
210
0
220
0
230
1
50
0
73
2
44
1
0
MTEXT
5
264
100
AcDbEntity
8
coordinate
6
ByLayer
62
256
370
-1
100
AcDbMText
10
148
20
299
30
0
40
3
41
3
71
1
72
1
1
16
7
STANDARD
210
0
220
0
230
1
50
0
73
2
44
1
0
MTEXT
5
265
100
AcDbEntity
8
coordinate
6
ByLayer
62
256
370
-1
100
AcDbMText
10
168
20
169
30
0
40
3
41
3
71
1
72
1
1
16
7
STANDARD
210
0
220
0
230
1
50
0
73
2
44
1
0
POINT
5
266
100
AcDbEntity
8
point
6
ByLayer
62
256
370
-1
100
AcDbPoint
10
140
20
300
0
POINT
5
267
100
AcDbEntity
8
point
6
ByLayer
62
256
370
-1
100
AcDbPoint
10
100
20
300
0
MTEXT
5
268
100
AcDbEntity
8
ID
6
ByLayer
62
256
370
-1
100
AcDbMText
10
93
20
298
30
0
40
5
41
6.11111111111
71
1
72
1
1
73
7
STANDARD
210
0
220
0
230
1
50
0
73
2
44
1
0
MTEXT
5
269
100
AcDbEntity
8
ID
6
ByLayer
62
256
370
-1
100
AcDbMText
10
133
20
298
30
0
40
5
41
6.66666666667
71
1
72
1
1
74
7
STANDARD
210
0
220
0
230
1
50
0
73
2
44
1
0
LINE
5
26A
100
AcDbEntity
8
coordinate
6
ByLayer
62
256
370
-1
100
AcDbLine
10
100
20
300
11
95
21
305
0
LINE
5
26B
100
AcDbEntity
8
coordinate
6
ByLayer
62
256
370
-1
100
AcDbLine
10
95
20
305
11
85
21
305
0
LINE
5
26C
100
AcDbEntity
8
coordinate
6
ByLayer
62
256
370
-1
100
AcDbLine
10
140
20
300
11
145
21
305
0
LINE
5
26D
100
AcDbEntity
8
coordinate
6
ByLayer
62
256
370
-1
100
AcDbLine
10
145
20
305
11
155
21
305
0
MTEXT
5
26E
100
AcDbEntity
8
coordinate
6
ByLayer
62
256
370
-1
100
AcDbMText
10
148
20
309
30
0
40
3
41
3.33333333333
71
1
72
1
1
14
7
STANDARD
210
0
220
0
230
1
50
0
73
2
44
1
0
MTEXT
5
26F
100
AcDbEntity
8
coordinate
6
ByLayer
62
256
370
-1
100
AcDbMText
10
148
20
169
30
0
40
3
41
3.33333333333
71
1
72
1
1
14
7
STANDARD
210
0
220
0
230
1
50
0
73
2
44
1
0
MTEXT
5
270
100
AcDbEntity
8
coordinate
6
ByLayer
62
256
370
-1
100
AcDbMText
10
88
20
309
30
0
40
3
41
3
71
1
72
1
1
10
7
STANDARD
210
0
220
0
230
1
50
0
73
2
44
1
0
MTEXT
5
271
100
AcDbEntity
8
coordinate
6
ByLayer
62
256
370
-1
100
AcDbMText
10
108
20
169
30
0
40
3
41
3
71
1
72
1
1
10
7
STANDARD
210
0
220
0
230
1
50
0
73
2
44
1
0
MTEXT
5
272
100
AcDbEntity
8
coordinate
6
ByLayer
62
256
370
-1
100
AcDbMText
10
69
20
299
30
0
40
3
41
1.33333333333
71
1
72
1
1
8
7
STANDARD
210
0
220
0
230
1
50
0
73
2
44
1
0
MTEXT
5
273
100
AcDbEntity
8
coordinate
6
ByLayer
62
256
370
-1
100
AcDbMText
10
89
20
169
30
0
40
3
41
1.33333333333
71
1
72
1
1
8
7
STANDARD
210
0
220
0
230
1
50
0
73
2
44
1
0
MTEXT
5
274
100
AcDbEntity
8
coordinate
6
ByLayer
62
256
370
-1
100
AcDbMText
10
148
20
304
30
0
40
3
41
3.66666666667
71
1
72
1
1
30
7
STANDARD
210
0
220
0
230
1
50
0
73
2
44
1
0
MTEXT
5
275
100
AcDbEntity
8
coordinate
6
ByLayer
62
256
370
-1
100
AcDbMText
10
88
20
304
30
0
40
3
41
3.66666666667
71
1
72
1
1
30
7
STANDARD
210
0
220
0
230
1
50
0
73
2
44
1
0
MTEXT
5
276
100
AcDbEntity
8
coordinate
6
ByLayer
62
256
370
-1
100
AcDbMText
10
99
20
539
30
0
40
3
41
1.33333333333
71
1
72
1
1
9
7
STANDARD
210
0
220
0
230
1
50
0
73
2
44
1
0
MTEXT
5
277
100
AcDbEntity
8
coordinate
6
ByLayer
62
256
370
-1
100
AcDbMText
10
99
20
559
30
0
40
3
41
1.33333333333
71
1
72
1
1
9
7
STANDARD
210
0
220
0
230
1
50
0
73
2
44
1
0
MTEXT
5
278
100
AcDbEntity
8
coordinate
6
ByLayer
62
256
370
-1
100
AcDbMText
10
99
20
579
30
0
40
3
41
1.33333333333
71
1
72
1
1
9
7
STANDARD
210
0
220
0
230
1
50
0
73
2
44
1
0
MTEXT
5
279
100
AcDbEntity
8
coordinate
6
ByLayer
62
256
370
-1
100
AcDbMText
10
79
20
539
30
0
40
3
41
1.33333333333
71
1
72
1
1
7
7
STANDARD
210
0
220
0
230
1
50
0
73
2
44
1
0
MTEXT
5
27A
100
AcDbEntity
8
coordinate
6
ByLayer
62
256
370
-1
100
AcDbMText
10
59
20
509
30
0
40
3
41
1.33333333333
71
1
72
1
1
7
7
STANDARD
210
0
220
0
230
1
50
0
73
2
44
1
0
MTEXT
5
27B
100
AcDbEntity
8
coordinate
6
ByLayer
62
256
370
-1
100
AcDbMText
10
59
20
439
30
0
40
3
41
1.33333333333
71
1
72
1
1
7
7
STANDARD
210
0
220
0
230
1
50
0
73
2
44
1
0
MTEXT
5
27C
100
AcDbEntity
8
room
6
ByLayer
62
256
370
-1
100
AcDbMText
10
25.1964314136
20
19.4340188482
30
0
40
10
41
10
71
1
72
1
1
01
7

210
0
220
0
230
1
50
0
73
2
44
1
0
MTEXT
5
27D
100
AcDbEntity
8
room
6
ByLayer
62
256
370
-1
100
AcDbMText
10
82.9759162305
20
19.9495287958
30
0
40
10
41
12.2222222222
71
1
72
1
1
02
7

210
0
220
0
230
1
50
0
73
2
44
1
0
MTEXT
5
27E
100
AcDbEntity
8
room
6
ByLayer
62
256
370
-1
100
AcDbMText
10
144.269960733
20
19.0337041885
30
0
40
10
41
12.2222222222
71
1
72
1
1
03
7

210
0
220
0
230
1
50
0
73
2
44
1
0
MTEXT
5
27F
100
AcDbEntity
8
room
6
ByLayer
62
256
370
-1
100
AcDbMText
10
205.453664922
20
19.1992146597
30
0
40
10
41
13.3333333333
71
1
72
1
1
04
7

210
0
220
0
230
1
50
0
73
2
44
1
0
MTEXT
5
280
100
AcDbEntity
8
room
6
ByLayer
62
256
370
-1
100
AcDbMText
10
326.193553665
20
37.239856021
30
0
40
10
41
12.2222222222
71
1
72
1
1
05
7

210
0
220
0
230
1
50
0
73
2
44
1
0
MTEXT
5
281
100
AcDbEntity
8
room
6
ByLayer
62
256
370
-1
100
AcDbMText
10
328.650349722
20
137.386621605
30
0
40
10
41
12.2222222222
71
1
72
1
1
06
7

210
0
220
0
230
1
50
0
73
2
44
1
0
MTEXT
5
282
100
AcDbEntity
8
room
6
ByLayer
62
256
370
-1
100
AcDbMText
10
329.727891853
20
233.287871196
30
0
40
10
41
12.2222222222
71
1
72
1
1
07
7

210
0
220
0
230
1
50
0
73
2
44
1
0
MTEXT
5
283
100
AcDbEntity
8
room
6
ByLayer
62
256
370
-1
100
AcDbMText
10
330.670741216
20
329.323813554
30
0
40
10
41
12.2222222222
71
1
72
1
1
08
7

210
0
220
0
230
1
50
0
73
2
44
1
0
MTEXT
5
284
100
AcDbEntity
8
room
6
ByLayer
62
256
370
-1
100
AcDbMText
10
328.650349722
20
433.71070742
30
0
40
10
41
12.2222222222
71
1
72
1
1
09
7

210
0
220
0
230
1
50
0
73
2
44
1
0
MTEXT
5
285
100
AcDbEntity
8
room
6
ByLayer
62
256
370
-1
100
AcDbMText
10
332.017668879
20
536.750673624
30
0
40
10
41
10
71
1
72
1
1
10
7

210
0
220
0
230
1
50
0
73
2
44
1
0
MTEXT
5
286
100
AcDbEntity
8
room
6
ByLayer
62
256
370
-1
100
AcDbMText
10
206.888089006
20
588.251799739
30
0
40
10
41
7.77777777778
71
1
72
1
1
11
7

210
0
220
0
230
1
50
0
73
2
44
1
0
MTEXT
5
287
100
AcDbEntity
8
room
6
ByLayer
62
256
370
-1
100
AcDbMText
10
145.166475786
20
588.596613221
30
0
40
10
41
10
71
1
72
1
1
12
7

210
0
220
0
230
1
50
0
73
2
44
1
0
MTEXT
5
288
100
AcDbEntity
8
room
6
ByLayer
62
256
370
-1
100
AcDbMText
10
85.8585569373
20
590.320680629
30
0
40
10
41
10
71
1
72
1
1
13
7

210
0
220
0
230
1
50
0
73
2
44
1
0
MTEXT
5
289
100
AcDbEntity
8
room
6
ByLayer
62
256
370
-1
100
AcDbMText
10
26.2058246074
20
590.665494111
30
0
40
10
41
11.1111111111
71
1
72
1
1
14
7

210
0
220
0
230
1
50
0
73
2
44
1
0
MTEXT
5
28A
100
AcDbEntity
8
room
6
ByLayer
62
256
370
-1
100
AcDbMText
10
24.481757199
20
423.430955498
30
0
40
10
41
10
71
1
72
1
1
15
7

210
0
220
0
230
1
50
0
73
2
44
1
0
MTEXT
5
28B
100
AcDbEntity
8
room
6
ByLayer
62
256
370
-1
100
AcDbMText
10
69.3075098168
20
423.430955498
30
0
40
10
41
10
71
1
72
1
1
16
7

210
0
220
0
230
1
50
0
73
2
44
1
0
MTEXT
5
28C
100
AcDbEntity
8
room
6
ByLayer
62
256
370
-1
100
AcDbMText
10
161.717522906
20
425.84464987
30
0
40
10
41
10
71
1
72
1
1
17
7

210
0
220
0
230
1
50
0
73
2
44
1
0
MTEXT
5
28D
100
AcDbEntity
8
room
6
ByLayer
62
256
370
-1
100
AcDbMText
10
207.232902487
20
425.499836388
30
0
40
10
41
10
71
1
72
1
1
18
7

210
0
220
0
230
1
50
0
73
2
44
1
0
MTEXT
5
28E
100
AcDbEntity
8
room
6
ByLayer
62
256
370
-1
100
AcDbMText
10
20.3439954189
20
303.780677356
30
0
40
10
41
10
71
1
72
1
1
19
7

210
0
220
0
230
1
50
0
73
2
44
1
0
MTEXT
5
28F
100
AcDbEntity
8
room
6
ByLayer
62
256
370
-1
100
AcDbMText
10
67.9282558901
20
327.917621074
30
0
40
10
41
12.2222222222
71
1
72
1
1
20
7

210
0
220
0
230
1
50
0
73
2
44
1
0
MTEXT
5
290
100
AcDbEntity
8
room
6
ByLayer
62
256
370
-1
100
AcDbMText
10
162.407149869
20
328.607248037
30
0
40
10
41
10
71
1
72
1
1
21
7

210
0
220
0
230
1
50
0
73
2
44
1
0
MTEXT
5
291
100
AcDbEntity
8
room
6
ByLayer
62
256
370
-1
100
AcDbMText
10
206.543275524
20
328.952061519
30
0
40
10
41
12.2222222222
71
1
72
1
1
22
7

210
0
220
0
230
1
50
0
73
2
44
1
0
MTEXT
5
292
100
AcDbEntity
8
room
6
ByLayer
62
256
370
-1
100
AcDbMText
10
21.5508426047
20
190.078431774
30
0
40
10
41
12.2222222222
71
1
72
1
1
23
7

210
0
220
0
230
1
50
0
73
2
44
1
0
MTEXT
5
293
100
AcDbEntity
8
room
6
ByLayer
62
256
370
-1
100
AcDbMText
10
68.5316794831
20
190.078431774
30
0
40
10
41
13.3333333333
71
1
72
1
1
24
7

210
0
220
0
230
1
50
0
73
2
44
1
0
MTEXT
5
294
100
AcDbEntity
8
room
6
ByLayer
62
256
370
-1
100
AcDbMText
10
162.062336388
20
190.078431774
30
0
40
10
41
12.2222222222
71
1
72
1
1
25
7

210
0
220
0
230
1
50
0
73
2
44
1
0
MTEXT
5
295
100
AcDbEntity
8
room
6
ByLayer
62
256
370
-1
100
AcDbMText
10
210.336223822
20
190.509448626
30
0
40
10
41
12.2222222222
71
1
72
1
1
26
7

210
0
220
0
230
1
50
0
73
2
44
1
0
MTEXT
5
296
100
AcDbEntity
8
reader
6
CONTINUOUS
62
256
370
-1
100
AcDbMText
10
0.176544502618
20
65.8510994765
30
0
40
5
41
5
71
1
72
1
1
01
7

210
0
220
0
230
1
50
0
73
2
44
1
0
MTEXT
5
297
100
AcDbEntity
8
reader
6
CONTINUOUS
62
256
370
-1
100
AcDbMText
10
64.6152879582
20
66.557277487
30
0
40
5
41
6.11111111111
71
1
72
1
1
02
7

210
0
220
0
230
1
50
0
73
2
44
1
0
MTEXT
5
298
100
AcDbEntity
8
reader
6
CONTINUOUS
62
256
370
-1
100
AcDbMText
10
136.433591623
20
76.6909319373
30
0
40
5
41
6.11111111111
71
1
72
1
1
03
7

210
0
220
0
230
1
50
0
73
2
44
1
0
MTEXT
5
299
100
AcDbEntity
8
reader
6
CONTINUOUS
62
256
370
-1
100
AcDbMText
10
214.148481676
20
67.0869109949
30
0
40
5
41
6.66666666667
71
1
72
1
1
04
7

210
0
220
0
230
1
50
0
73
2
44
1
0
MTEXT
5
29A
100
AcDbEntity
8
reader
6
CONTINUOUS
62
256
370
-1
100
AcDbMText
10
263.051308901
20
56.847329843
30
0
40
5
41
6.11111111111
71
1
72
1
1
05
7

210
0
220
0
230
1
50
0
73
2
44
1
0
MTEXT
5
29B
100
AcDbEntity
8
reader
6
CONTINUOUS
62
256
370
-1
100
AcDbMText
10
263.051308901
20
131.52565445
30
0
40
5
41
6.11111111111
71
1
72
1
1
06
7

210
0
220
0
230
1
50
0
73
2
44
1
0
MTEXT
5
29C
100
AcDbEntity
8
reader
6
CONTINUOUS
62
256
370
-1
100
AcDbMText
10
263.713350786
20
211.412041885
30
0
40
5
41
6.11111111111
71
1
72
1
1
07
7

210
0
220
0
230
1
50
0
73
2
44
1
0
MTEXT
5
29D
100
AcDbEntity
8
reader
6
CONTINUOUS
62
256
370
-1
100
AcDbMText
10
263.404397906
20
289.179895288
30
0
40
5
41
6.11111111111
71
1
72
1
1
08
7

210
0
220
0
230
1
50
0
73
2
44
1
0
MTEXT
5
29E
100
AcDbEntity
8
reader
6
CONTINUOUS
62
256
370
-1
100
AcDbMText
10
265.169842932
20
371.802722514
30
0
40
5
41
6.11111111111
71
1
72
1
1
09
7

210
0
220
0
230
1
50
0
73
2
44
1
0
MTEXT
5
29F
100
AcDbEntity
8
reader
6
CONTINUOUS
62
256
370
-1
100
AcDbMText
10
263.376150786
20
457.829327749
30
0
40
5
41
5
71
1
72
1
1
10
7

210
0
220
0
230
1
50
0
73
2
44
1
0
MTEXT
5
2A0
100
AcDbEntity
8
reader
6
CONTINUOUS
62
256
370
-1
100
AcDbMText
10
254.563049215
20
538.955057592
30
0
40
5
41
3.88888888889
71
1
72
1
1
11
7

210
0
220
0
230
1
50
0
73
2
44
1
0
MTEXT
5
2A1
100
AcDbEntity
8
reader
6
CONTINUOUS
62
256
370
-1
100
AcDbMText
10
213.209264922
20
537.712184294
30
0
40
5
41
5
71
1
72
1
1
12
7

210
0
220
0
230
1
50
0
73
2
44
1
0
MTEXT
5
2A2
100
AcDbEntity
8
reader
6
CONTINUOUS
62
256
370
-1
100
AcDbMText
10
137.032430576
20
537.192437278
30
0
40
5
41
5
71
1
72
1
1
13
7

210
0
220
0
230
1
50
0
73
2
44
1
0
MTEXT
5
2A3
100
AcDbEntity
8
reader
6
CONTINUOUS
62
256
370
-1
100
AcDbMText
10
63.8158944503
20
537.73478199
30
0
40
5
41
5.55555555556
71
1
72
1
1
14
7

210
0
220
0
230
1
50
0
73
2
44
1
0
MTEXT
5
2A4
100
AcDbEntity
8
reader
6
CONTINUOUS
62
256
370
-1
100
AcDbMText
10
1.26547099477
20
537.73478199
30
0
40
5
41
5
71
1
72
1
1
15
7

210
0
220
0
230
1
50
0
73
2
44
1
0
MTEXT
5
2A5
100
AcDbEntity
8
reader
6
CONTINUOUS
62
256
370
-1
100
AcDbMText
10
122.479514136
20
452.970823037
30
0
40
5
41
5
71
1
72
1
1
16
7

210
0
220
0
230
1
50
0
73
2
44
1
0
MTEXT
5
2A6
100
AcDbEntity
8
reader
6
CONTINUOUS
62
256
370
-1
100
AcDbMText
10
123.581151833
20
371.273089006
30
0
40
5
41
5
71
1
72
1
1
17
7

210
0
220
0
230
1
50
0
73
2
44
1
0
MTEXT
5
2A7
100
AcDbEntity
8
reader
6
CONTINUOUS
62
256
370
-1
100
AcDbMText
10
123.157445026
20
289.391748691
30
0
40
5
41
5
71
1
72
1
1
18
7

210
0
220
0
230
1
50
0
73
2
44
1
0
MTEXT
5
2A8
100
AcDbEntity
8
reader
6
CONTINUOUS
62
256
370
-1
100
AcDbMText
10
122.592502618
20
211.994638744
30
0
40
5
41
5
71
1
72
1
1
19
7

210
0
220
0
230
1
50
0
73
2
44
1
0
POINT
5
2A9
100
AcDbEntity
8
point
6
ByLayer
62
256
370
-1
100
AcDbPoint
10
260
20
530
0
POINT
5
2AA
100
AcDbEntity
8
point
6
CONTINUOUS
62
256
370
-1
100
AcDbPoint
10
260
20
550
0
MTEXT
5
2AB
100
AcDbEntity
8
ID
6
CONTINUOUS
62
256
370
-1
100
AcDbMText
10
262
20
547
30
0
40
5
41
6.11111111111
71
1
72
1
1
75
7

210
0
220
0
230
1
50
0
73
2
44
1
0
LINE
5
2AC
100
AcDbEntity
8
walking graph
6
CONTINUOUS
62
256
370
-1
100
AcDbLine
10
260
20
550
11
260
21
530
0
LINE
5
2AD
100
AcDbEntity
8
walking graph
6
CONTINUOUS
62
256
370
-1
100
AcDbLine
10
260
20
550
11
280
21
550
0
LINE
5
2AE
100
AcDbEntity
8
coordinate
6
CONTINUOUS
62
256
370
-1
100
AcDbLine
10
260
20
550
11
265
21
555
0
LINE
5
2AF
100
AcDbEntity
8
coordinate
6
CONTINUOUS
62
256
370
-1
100
AcDbLine
10
265
20
555
11
275
21
555
0
MTEXT
5
2B0
100
AcDbEntity
8
coordinate
6
CONTINUOUS
62
256
370
-1
100
AcDbMText
10
268
20
559
30
0
40
3
41
3.66666666667
71
1
72
1
1
26
7

210
0
220
0
230
1
50
0
73
2
44
1
0
MTEXT
5
2B1
100
AcDbEntity
8
coordinate
6
CONTINUOUS
62
256
370
-1
100
AcDbMText
10
268
20
554
30
0
40
3
41
3.66666666667
71
1
72
1
1
55
7

210
0
220
0
230
1
50
0
73
2
44
1
0
ENDSEC
0
SECTION
2
OBJECTS
0
DICTIONARY
5
C
330
0
100
AcDbDictionary
281
1
3
ACAD_GROUP
350
D
0
DICTIONARY
5
D
330
C
100
AcDbDictionary
281
1
0
ENDSEC
0
EOF
