999
dxfrw 0.5.10
0
SECTION
2
HEADER
9
$ACADVER
1
AC1021
9
$HANDSEED
5
20000
9
$DWGCODEPAGE
3
ANSI_1252
9
$INSBASE
10
0
20
0
30
0
9
$EXTMIN
10
-120
20
-254.631042481
30
0
9
$EXTMAX
10
2436.51275635
20
3253.36895752
30
0
9
$LIMMIN
10
0
20
0
9
$LIMMAX
10
420
20
297
9
$ORTHOMODE
70
0
9
$LTSCALE
40
1
9
$TEXTSTYLE
7
STANDARD
9
$DIMASZ
40
2.5
9
$DIMSCALE
40
1
9
$DIMEXO
40
0.625
9
$DIMEXE
40
1.25
9
$DIMTXT
40
5
9
$DIMTSZ
40
0
9
$DIMAUNIT
70
0
9
$DIMADEC
70
2
9
$DIMLUNIT
70
2
9
$DIMSTYLE
2
STANDARD
9
$DIMGAP
40
0.625
9
$DIMTIH
70
0
9
$LUNITS
70
2
9
$LUPREC
70
4
9
$AUNITS
70
0
9
$AUPREC
70
2
9
$SPLINESEGS
70
8
9
$GRIDMODE
70
1
9
$SNAPSTYLE
70
0
9
$GRIDUNIT
10
0
20
0
9
$PINSBASE
10
0
20
0
30
0
9
$PLIMMIN
10
0
20
0
9
$PLIMMAX
10
210
20
297
9
$INSUNITS
70
4
9
$PSVPSCALE
40
1
0
ENDSEC
0
SECTION
2
CLASSES
0
ENDSEC
0
SECTION
2
TABLES
0
TABLE
2
VPORT
5
8
330
0
100
AcDbSymbolTable
70
1
0
VPORT
5
31
330
2
100
AcDbSymbolTableRecord
100
AcDbViewportTableRecord
2
*ACTIVE
70
0
10
0
20
0
11
1
21
1
12
521.093750009
22
1366.09375002
13
0
23
0
14
10
24
10
15
10
25
10
16
0
26
0
36
1
17
0
27
0
37
0
40
246.250000004
41
1.91370558376
42
50
43
0
44
0
50
0
51
0
71
0
72
100
73
1
74
3
75
0
76
1
77
0
78
0
281
0
65
1
110
0
120
0
130
0
111
1
121
0
131
0
112
0
122
1
132
0
79
0
146
0
348
10020
60
7
61
5
292
1
282
1
141
0
142
0
63
250
421
3358443
0
ENDTAB
0
TABLE
2
LTYPE
5
5
330
0
100
AcDbSymbolTable
70
4
0
LTYPE
5
14
330
5
100
AcDbSymbolTableRecord
100
AcDbLinetypeTableRecord
2
ByBlock
70
0
3

72
65
73
0
40
0
0
LTYPE
5
15
330
5
100
AcDbSymbolTableRecord
100
AcDbLinetypeTableRecord
2
ByLayer
70
0
3

72
65
73
0
40
0
0
LTYPE
5
16
330
5
100
AcDbSymbolTableRecord
100
AcDbLinetypeTableRecord
2
Continuous
70
0
3
Solid line
72
65
73
0
40
0
0
LTYPE
5
32
330
5
100
AcDbSymbolTableRecord
100
AcDbLinetypeTableRecord
2
DOT
70
0
3
Dot . . . . . . . . . . . . . . . . . . . . . .
72
65
73
2
40
6.35
49
0
74
0
49
-6.35
74
0
0
LTYPE
5
33
330
5
100
AcDbSymbolTableRecord
100
AcDbLinetypeTableRecord
2
DOT2
70
0
3
Dot (.5x) .....................................
72
65
73
2
40
3.175
49
0
74
0
49
-3.175
74
0
0
LTYPE
5
34
330
5
100
AcDbSymbolTableRecord
100
AcDbLinetypeTableRecord
2
DOTX2
70
0
3
Dot (2x) .  .  .  .  .  .  .  .  .  .  .  .  .
72
65
73
2
40
12.7
49
0
74
0
49
-12.7
74
0
0
LTYPE
5
35
330
5
100
AcDbSymbolTableRecord
100
AcDbLinetypeTableRecord
2
DASHED
70
0
3
Dot . . . . . . . . . . . . . . . . . . . . . .
72
65
73
2
40
19.05
49
12.7
74
0
49
-6.35
74
0
0
LTYPE
5
36
330
5
100
AcDbSymbolTableRecord
100
AcDbLinetypeTableRecord
2
DASHED2
70
0
3
Dashed (.5x) _ _ _ _ _ _ _ _ _ _ _ _ _ _ _ _ _
72
65
73
2
40
9.525
49
6.35
74
0
49
-3.175
74
0
0
LTYPE
5
37
330
5
100
AcDbSymbolTableRecord
100
AcDbLinetypeTableRecord
2
DASHEDX2
70
0
3
Dashed (2x) ____  ____  ____  ____  ____  ___
72
65
73
2
40
38.1
49
25.4
74
0
49
-12.7
74
0
0
LTYPE
5
38
330
5
100
AcDbSymbolTableRecord
100
AcDbLinetypeTableRecord
2
DASHDOT
70
0
3
Dash dot __ . __ . __ . __ . __ . __ . __ . __
72
65
73
4
40
25.4
49
12.7
74
0
49
-6.35
74
0
49
0
74
0
49
-6.35
74
0
0
LTYPE
5
39
330
5
100
AcDbSymbolTableRecord
100
AcDbLinetypeTableRecord
2
DASHDOT2
70
0
3
Dash dot (.5x) _._._._._._._._._._._._._._._.
72
65
73
4
40
12.7
49
6.35
74
0
49
-3.175
74
0
49
0
74
0
49
-3.175
74
0
0
LTYPE
5
3A
330
5
100
AcDbSymbolTableRecord
100
AcDbLinetypeTableRecord
2
DASHDOTX2
70
0
3
Dash dot (2x) ____  .  ____  .  ____  .  ___
72
65
73
4
40
50.8
49
25.4
74
0
49
-12.7
74
0
49
0
74
0
49
-12.7
74
0
0
LTYPE
5
3B
330
5
100
AcDbSymbolTableRecord
100
AcDbLinetypeTableRecord
2
DIVIDE
70
0
3
Divide ____ . . ____ . . ____ . . ____ . . ____
72
65
73
6
40
31.75
49
12.7
74
0
49
-6.35
74
0
49
0
74
0
49
-6.35
74
0
49
0
74
0
49
-6.35
74
0
0
LTYPE
5
3C
330
5
100
AcDbSymbolTableRecord
100
AcDbLinetypeTableRecord
2
DIVIDE2
70
0
3
Divide (.5x) __..__..__..__..__..__..__..__.._
72
65
73
6
40
15.875
49
6.35
74
0
49
-3.175
74
0
49
0
74
0
49
-3.175
74
0
49
0
74
0
49
-3.175
74
0
0
LTYPE
5
3D
330
5
100
AcDbSymbolTableRecord
100
AcDbLinetypeTableRecord
2
DIVIDEX2
70
0
3
Divide (2x) ________  .  .  ________  .  .  _
72
65
73
6
40
63.5
49
25.4
74
0
49
-12.7
74
0
49
0
74
0
49
-12.7
74
0
49
0
74
0
49
-12.7
74
0
0
LTYPE
5
3E
330
5
100
AcDbSymbolTableRecord
100
AcDbLinetypeTableRecord
2
BORDER
70
0
3
Border __ __ . __ __ . __ __ . __ __ . __ __ .
72
65
73
6
40
44.45
49
12.7
74
0
49
-6.35
74
0
49
12.7
74
0
49
-6.35
74
0
49
0
74
0
49
-6.35
74
0
0
LTYPE
5
3F
330
5
100
AcDbSymbolTableRecord
100
AcDbLinetypeTableRecord
2
BORDER2
70
0
3
Border (.5x) __.__.__.__.__.__.__.__.__.__.__.
72
65
73
6
40
22.225
49
6.35
74
0
49
-3.175
74
0
49
6.35
74
0
49
-3.175
74
0
49
0
74
0
49
-3.175
74
0
0
LTYPE
5
40
330
5
100
AcDbSymbolTableRecord
100
AcDbLinetypeTableRecord
2
BORDERX2
70
0
3
Border (2x) ____  ____  .  ____  ____  .  ___
72
65
73
6
40
88.9
49
25.4
74
0
49
-12.7
74
0
49
25.4
74
0
49
-12.7
74
0
49
0
74
0
49
-12.7
74
0
0
LTYPE
5
41
330
5
100
AcDbSymbolTableRecord
100
AcDbLinetypeTableRecord
2
CENTER
70
0
3
Center ____ _ ____ _ ____ _ ____ _ ____ _ ____
72
65
73
4
40
50.8
49
31.75
74
0
49
-6.35
74
0
49
6.35
74
0
49
-6.35
74
0
0
LTYPE
5
42
330
5
100
AcDbSymbolTableRecord
100
AcDbLinetypeTableRecord
2
CENTER2
70
0
3
Center (.5x) ___ _ ___ _ ___ _ ___ _ ___ _ ___
72
65
73
4
40
28.575
49
19.05
74
0
49
-3.175
74
0
49
3.175
74
0
49
-3.175
74
0
0
LTYPE
5
43
330
5
100
AcDbSymbolTableRecord
100
AcDbLinetypeTableRecord
2
CENTERX2
70
0
3
Center (2x) ________  __  ________  __  _____
72
65
73
4
40
101.6
49
63.5
74
0
49
-12.7
74
0
49
12.7
74
0
49
-12.7
74
0
0
ENDTAB
0
TABLE
2
LAYER
5
2
330
0
100
AcDbSymbolTable
70
1
0
LAYER
5
10
330
2
100
AcDbSymbolTableRecord
100
AcDbLayerTableRecord
2
0
70
1
62
7
6
CONTINUOUS
370
0
390
F
0
LAYER
5
44
330
2
100
AcDbSymbolTableRecord
100
AcDbLayerTableRecord
2
edge
70
4
62
1
6
CONTINUOUS
370
200
390
F
0
LAYER
5
45
330
2
100
AcDbSymbolTableRecord
100
AcDbLayerTableRecord
2
node
70
4
62
2
6
CONTINUOUS
370
211
390
F
0
LAYER
5
46
330
2
100
AcDbSymbolTableRecord
100
AcDbLayerTableRecord
2
room
70
4
62
7
6
CONTINUOUS
370
100
390
F
0
LAYER
5
47
330
2
100
AcDbSymbolTableRecord
100
AcDbLayerTableRecord
2
node_text
70
4
62
2
6
CONTINUOUS
370
100
390
F
0
LAYER
5
48
330
2
100
AcDbSymbolTableRecord
100
AcDbLayerTableRecord
2
rfid
70
5
62
4
6
DOT2
370
140
390
F
0
LAYER
5
49
330
2
100
AcDbSymbolTableRecord
100
AcDbLayerTableRecord
2
room_text
70
4
62
7
6
CONTINUOUS
370
100
390
F
0
LAYER
5
4A
330
2
100
AcDbSymbolTableRecord
100
AcDbLayerTableRecord
2
rfid_text
70
5
62
4
6
CONTINUOUS
370
100
390
F
0
LAYER
5
4B
330
2
100
AcDbSymbolTableRecord
100
AcDbLayerTableRecord
2
hall
70
4
62
7
6
DOT
370
0
390
F
0
LAYER
5
4C
330
2
100
AcDbSymbolTableRecord
100
AcDbLayerTableRecord
2
hall_text
70
4
62
7
6
CONTINUOUS
370
0
390
F
0
LAYER
5
4D
330
2
100
AcDbSymbolTableRecord
100
AcDbLayerTableRecord
2
rfid2
70
4
62
4
6
DOT2
370
140
390
F
0
LAYER
5
4E
330
2
100
AcDbSymbolTableRecord
100
AcDbLayerTableRecord
2
rfid_text2
70
4
62
4
6
CONTINUOUS
370
100
390
F
0
ENDTAB
0
TABLE
2
STYLE
5
3
330
0
100
AcDbSymbolTable
70
3
0
STYLE
5
4F
330
2
100
AcDbSymbolTableRecord
100
AcDbTextStyleTableRecord
2
standard
70
0
40
0
41
1
50
0
71
0
42
1
3
standard
4

0
ENDTAB
0
TABLE
2
VIEW
5
6
330
0
100
AcDbSymbolTable
70
0
0
ENDTAB
0
TABLE
2
UCS
5
7
330
0
100
AcDbSymbolTable
70
0
0
ENDTAB
0
TABLE
2
APPID
5
9
330
0
100
AcDbSymbolTable
70
1
0
APPID
5
12
330
9
100
AcDbSymbolTableRecord
100
AcDbRegAppTableRecord
2
ACAD
70
0
0
ENDTAB
0
TABLE
2
DIMSTYLE
5
A
330
0
100
AcDbSymbolTable
70
1
100
AcDbDimStyleTable
71
1
0
DIMSTYLE
105
50
330
A
100
AcDbSymbolTableRecord
100
AcDbDimStyleTableRecord
2
Standard
70
0
40
1
41
2.5
42
0.625
43
0.38
44
1.25
45
0
46
0
47
0
48
0
140
5
141
0.09
142
0
143
25.4
144
1
145
0
146
1
147
0.625
148
0
71
0
72
0
73
0
74
1
75
0
76
0
77
0
78
0
79
0
170
0
171
2
172
0
173
0
174
0
175
0
176
0
177
0
178
0
179
0
271
4
272
4
273
2
274
2
275
0
276
0
277
2
278
46
279
0
280
0
281
0
282
0
283
1
284
0
285
0
286
0
288
0
289
3
340
Standard
341

371
-2
372
-2
0
ENDTAB
0
TABLE
2
BLOCK_RECORD
5
1
330
0
100
AcDbSymbolTable
70
2
0
BLOCK_RECORD
5
1F
330
1
100
AcDbSymbolTableRecord
100
AcDbBlockTableRecord
2
*Model_Space
70
0
280
1
281
0
0
BLOCK_RECORD
5
1E
330
1
100
AcDbSymbolTableRecord
100
AcDbBlockTableRecord
2
*Paper_Space
70
0
280
1
281
0
0
ENDTAB
0
ENDSEC
0
SECTION
2
BLOCKS
0
BLOCK
5
20
330
1F
100
AcDbEntity
8
0
100
AcDbBlockBegin
2
*Model_Space
70
0
10
0
20
0
30
0
3
*Model_Space
1

0
ENDBLK
5
21
330
1F
100
AcDbEntity
8
0
100
AcDbBlockEnd
0
BLOCK
5
1C
330
1B
100
AcDbEntity
8
0
100
AcDbBlockBegin
2
*Paper_Space
70
0
10
0
20
0
30
0
3
*Paper_Space
1

0
ENDBLK
5
1D
330
1F
100
AcDbEntity
8
0
100
AcDbBlockEnd
0
ENDSEC
0
SECTION
2
ENTITIES
0
IMAGE
5
53
100
AcDbEntity
8
0
6
ByLayer
62
256
370
-1
100
AcDbRasterImage
10
-113.487243653
20
-254.631042481
30
0
11
1
21
0
31
0
12
6.12323399574e-17
22
1
32
0
13
2550
23
3508
340
51
70
1
280
0
281
50
282
50
283
0
360
52
0
POINT
5
54
100
AcDbEntity
8
node
6
ByLayer
62
256
370
-1
100
AcDbPoint
10
180
20
550
0
POINT
5
55
100
AcDbEntity
8
node
6
ByLayer
62
256
370
-1
100
AcDbPoint
10
180
20
300
0
POINT
5
56
100
AcDbEntity
8
node
6
ByLayer
62
256
370
-1
100
AcDbPoint
10
180
20
790
0
POINT
5
57
100
AcDbEntity
8
node
6
ByLayer
62
256
370
-1
100
AcDbPoint
10
180
20
1090
0
POINT
5
58
100
AcDbEntity
8
node
6
ByLayer
62
256
370
-1
100
AcDbPoint
10
510
20
790
0
POINT
5
59
100
AcDbEntity
8
node
6
ByLayer
62
256
370
-1
100
AcDbPoint
10
510
20
1090
0
POINT
5
5A
100
AcDbEntity
8
node
6
ByLayer
62
256
370
-1
100
AcDbPoint
10
860
20
550
0
POINT
5
5B
100
AcDbEntity
8
node
6
ByLayer
62
256
370
-1
100
AcDbPoint
10
860
20
300
0
POINT
5
5C
100
AcDbEntity
8
node
6
ByLayer
62
256
370
-1
100
AcDbPoint
10
1278
20
550
0
POINT
5
5D
100
AcDbEntity
8
node
6
ByLayer
62
256
370
-1
100
AcDbPoint
10
1278
20
300
0
POINT
5
5E
100
AcDbEntity
8
node
6
ByLayer
62
256
370
-1
100
AcDbPoint
10
1650
20
320
0
POINT
5
5F
100
AcDbEntity
8
node
6
ByLayer
62
256
370
-1
100
AcDbPoint
10
1650
20
0
0
POINT
5
60
100
AcDbEntity
8
node
6
ByLayer
62
256
370
-1
100
AcDbPoint
10
2080
20
320
0
POINT
5
61
100
AcDbEntity
8
node
6
ByLayer
62
256
370
-1
100
AcDbPoint
10
1650
20
850
0
POINT
5
62
100
AcDbEntity
8
node
6
ByLayer
62
256
370
-1
100
AcDbPoint
10
1770
20
320
0
POINT
5
63
100
AcDbEntity
8
node
6
ByLayer
62
256
370
-1
100
AcDbPoint
10
1770
20
850
0
POINT
5
64
100
AcDbEntity
8
node
6
ByLayer
62
256
370
-1
100
AcDbPoint
10
2080
20
850
0
POINT
5
65
100
AcDbEntity
8
node
6
ByLayer
62
256
370
-1
100
AcDbPoint
10
1650
20
950
0
POINT
5
66
100
AcDbEntity
8
node
6
ByLayer
62
256
370
-1
100
AcDbPoint
10
1350
20
950
0
POINT
5
67
100
AcDbEntity
8
node
6
ByLayer
62
256
370
-1
100
AcDbPoint
10
1650
20
1370
0
POINT
5
68
100
AcDbEntity
8
node
6
ByLayer
62
256
370
-1
100
AcDbPoint
10
1770
20
1370
0
POINT
5
69
100
AcDbEntity
8
node
6
ByLayer
62
256
370
-1
100
AcDbPoint
10
2080
20
1370
0
POINT
5
6A
100
AcDbEntity
8
node
6
ByLayer
62
256
370
-1
100
AcDbPoint
10
1650
20
1440
0
POINT
5
6B
100
AcDbEntity
8
node
6
ByLayer
62
256
370
-1
100
AcDbPoint
10
1350
20
1440
0
POINT
5
6C
100
AcDbEntity
8
node
6
ByLayer
62
256
370
-1
100
AcDbPoint
10
1650
20
1890
0
POINT
5
6D
100
AcDbEntity
8
node
6
ByLayer
62
256
370
-1
100
AcDbPoint
10
1770
20
1890
0
POINT
5
6E
100
AcDbEntity
8
node
6
ByLayer
62
256
370
-1
100
AcDbPoint
10
2080
20
1890
0
POINT
5
6F
100
AcDbEntity
8
node
6
ByLayer
62
256
370
-1
100
AcDbPoint
10
1650
20
2340
0
POINT
5
70
100
AcDbEntity
8
node
6
ByLayer
62
256
370
-1
100
AcDbPoint
10
1770
20
2340
0
POINT
5
71
100
AcDbEntity
8
node
6
ByLayer
62
256
370
-1
100
AcDbPoint
10
2080
20
2340
0
POINT
5
72
100
AcDbEntity
8
node
6
ByLayer
62
256
370
-1
100
AcDbPoint
10
1370
20
2510
0
POINT
5
73
100
AcDbEntity
8
node
6
ByLayer
62
256
370
-1
100
AcDbPoint
10
1370
20
2070
0
POINT
5
74
100
AcDbEntity
8
node
6
ByLayer
62
256
370
-1
100
AcDbPoint
10
1370
20
2740
0
POINT
5
75
100
AcDbEntity
8
node
6
ByLayer
62
256
370
-1
100
AcDbPoint
10
1370
20
3000
0
POINT
5
76
100
AcDbEntity
8
node
6
ByLayer
62
256
370
-1
100
AcDbPoint
10
1030
20
2740
0
POINT
5
77
100
AcDbEntity
8
node
6
ByLayer
62
256
370
-1
100
AcDbPoint
10
1030
20
3000
0
POINT
5
78
100
AcDbEntity
8
node
6
ByLayer
62
256
370
-1
100
AcDbPoint
10
640
20
2740
0
POINT
5
79
100
AcDbEntity
8
node
6
ByLayer
62
256
370
-1
100
AcDbPoint
10
640
20
3000
0
POINT
5
7A
100
AcDbEntity
8
node
6
ByLayer
62
256
370
-1
100
AcDbPoint
10
490
20
2510
0
POINT
5
7B
100
AcDbEntity
8
node
6
ByLayer
62
256
370
-1
100
AcDbPoint
10
490
20
2250
0
POINT
5
7C
100
AcDbEntity
8
node
6
ByLayer
62
256
370
-1
100
AcDbPoint
10
190
20
2250
0
POINT
5
7D
100
AcDbEntity
8
node
6
ByLayer
62
256
370
-1
100
AcDbPoint
10
190
20
2510
0
POINT
5
7E
100
AcDbEntity
8
node
6
ByLayer
62
256
370
-1
100
AcDbPoint
10
190
20
2740
0
POINT
5
7F
100
AcDbEntity
8
node
6
ByLayer
62
256
370
-1
100
AcDbPoint
10
190
20
3000
0
POINT
5
80
100
AcDbEntity
8
node
6
ByLayer
62
256
370
-1
100
AcDbPoint
10
730
20
2270
0
POINT
5
81
100
AcDbEntity
8
node
6
ByLayer
62
256
370
-1
100
AcDbPoint
10
1020
20
2270
0
POINT
5
82
100
AcDbEntity
8
node
6
ByLayer
62
256
370
-1
100
AcDbPoint
10
730
20
1660
0
POINT
5
83
100
AcDbEntity
8
node
6
ByLayer
62
256
370
-1
100
AcDbPoint
10
480
20
1660
0
POINT
5
84
100
AcDbEntity
8
node
6
ByLayer
62
256
370
-1
100
AcDbPoint
10
1020
20
1660
0
POINT
5
85
100
AcDbEntity
8
node
6
ByLayer
62
256
370
-1
100
AcDbPoint
10
730
20
1030
0
POINT
5
86
100
AcDbEntity
8
node
6
ByLayer
62
256
370
-1
100
AcDbPoint
10
1020
20
1030
0
POINT
5
87
100
AcDbEntity
8
node
6
ByLayer
62
256
370
-1
100
AcDbPoint
10
510
20
300
0
POINT
5
88
100
AcDbEntity
8
node
6
ByLayer
62
256
370
-1
100
AcDbPoint
10
510
20
550
0
LINE
5
89
100
AcDbEntity
8
room
6
ByLayer
62
256
370
-1
100
AcDbLine
10
0
20
0
11
360
21
0
0
LINE
5
8A
100
AcDbEntity
8
room
6
ByLayer
62
256
370
-1
100
AcDbLine
10
0
20
550
11
0
21
0
0
LINE
5
8B
100
AcDbEntity
8
room
6
ByLayer
62
256
370
-1
100
AcDbLine
10
360
20
0
11
690
21
0
0
LINE
5
8C
100
AcDbEntity
8
room
6
ByLayer
62
256
370
-1
100
AcDbLine
10
360
20
550
11
360
21
0
0
LINE
5
8D
100
AcDbEntity
8
room
6
ByLayer
62
256
370
-1
100
AcDbLine
10
690
20
0
11
1080
21
0
0
LINE
5
8E
100
AcDbEntity
8
room
6
ByLayer
62
256
370
-1
100
AcDbLine
10
690
20
550
11
690
21
0
0
LINE
5
8F
100
AcDbEntity
8
room
6
ByLayer
62
256
370
-1
100
AcDbLine
10
1080
20
0
11
1530
21
0
0
LINE
5
90
100
AcDbEntity
8
room
6
ByLayer
62
256
370
-1
100
AcDbLine
10
1530
20
0
11
1530
21
550
0
LINE
5
91
100
AcDbEntity
8
room
6
ByLayer
62
256
370
-1
100
AcDbLine
10
1080
20
550
11
1080
21
0
0
LINE
5
92
100
AcDbEntity
8
room
6
ByLayer
62
256
370
-1
100
AcDbLine
10
1770
20
0
11
2380
21
0
0
LINE
5
93
100
AcDbEntity
8
room
6
ByLayer
62
256
370
-1
100
AcDbLine
10
2380
20
0
11
2380
21
640
0
LINE
5
94
100
AcDbEntity
8
room
6
ByLayer
62
256
370
-1
100
AcDbLine
10
1770
20
640
11
2380
21
640
0
LINE
5
95
100
AcDbEntity
8
room
6
ByLayer
62
256
370
-1
100
AcDbLine
10
2380
20
640
11
2380
21
1100
0
LINE
5
96
100
AcDbEntity
8
room
6
ByLayer
62
256
370
-1
100
AcDbLine
10
1770
20
1100
11
2380
21
1100
0
LINE
5
97
100
AcDbEntity
8
room
6
ByLayer
62
256
370
-1
100
AcDbLine
10
2380
20
1100
11
2380
21
1630
0
LINE
5
98
100
AcDbEntity
8
room
6
ByLayer
62
256
370
-1
100
AcDbLine
10
1770
20
1630
11
2380
21
1630
0
LINE
5
99
100
AcDbEntity
8
room
6
ByLayer
62
256
370
-1
100
AcDbLine
10
2380
20
1630
11
2380
21
2120
0
LINE
5
9A
100
AcDbEntity
8
room
6
ByLayer
62
256
370
-1
100
AcDbLine
10
1770
20
2120
11
2380
21
2120
0
LINE
5
9B
100
AcDbEntity
8
room
6
ByLayer
62
256
370
-1
100
AcDbLine
10
2380
20
2120
11
2380
21
2550
0
LINE
5
9C
100
AcDbEntity
8
room
6
ByLayer
62
256
370
-1
100
AcDbLine
10
2380
20
2550
11
1770
21
2550
0
LINE
5
9D
100
AcDbEntity
8
room
6
ByLayer
62
256
370
-1
100
AcDbLine
10
1770
20
2550
11
2380
21
2550
0
LINE
5
9E
100
AcDbEntity
8
room
6
ByLayer
62
256
370
-1
100
AcDbLine
10
2380
20
2550
11
2380
21
3210
0
LINE
5
9F
100
AcDbEntity
8
room
6
ByLayer
62
256
370
-1
100
AcDbLine
10
2380
20
3210
11
1770
21
3210
0
LINE
5
A0
100
AcDbEntity
8
room
6
ByLayer
62
256
370
-1
100
AcDbLine
10
0
20
1360
11
0
21
790
0
LINE
5
A1
100
AcDbEntity
8
room
6
ByLayer
62
256
370
-1
100
AcDbLine
10
630
20
790
11
630
21
1360
0
LINE
5
A2
100
AcDbEntity
8
room
6
ByLayer
62
256
370
-1
100
AcDbLine
10
350
20
1360
11
350
21
790
0
LINE
5
A3
100
AcDbEntity
8
room
6
ByLayer
62
256
370
-1
100
AcDbLine
10
350
20
1360
11
630
21
1360
0
LINE
5
A4
100
AcDbEntity
8
room
6
ByLayer
62
256
370
-1
100
AcDbLine
10
350
20
1980
11
630
21
1980
0
LINE
5
A5
100
AcDbEntity
8
room
6
ByLayer
62
256
370
-1
100
AcDbLine
10
630
20
1980
11
630
21
2510
0
LINE
5
A6
100
AcDbEntity
8
room
6
ByLayer
62
256
370
-1
100
AcDbLine
10
1580
20
2740
11
1580
21
3210
0
LINE
5
A7
100
AcDbEntity
8
room
6
ByLayer
62
256
370
-1
100
AcDbLine
10
1580
20
3210
11
1230
21
3210
0
LINE
5
A8
100
AcDbEntity
8
room
6
ByLayer
62
256
370
-1
100
AcDbLine
10
1230
20
2740
11
1230
21
3210
0
LINE
5
A9
100
AcDbEntity
8
room
6
ByLayer
62
256
370
-1
100
AcDbLine
10
1230
20
3210
11
830
21
3210
0
LINE
5
AA
100
AcDbEntity
8
room
6
ByLayer
62
256
370
-1
100
AcDbLine
10
830
20
2740
11
830
21
3210
0
LINE
5
AB
100
AcDbEntity
8
room
6
ByLayer
62
256
370
-1
100
AcDbLine
10
830
20
3210
11
420
21
3210
0
LINE
5
AC
100
AcDbEntity
8
room
6
ByLayer
62
256
370
-1
100
AcDbLine
10
420
20
2740
11
420
21
3210
0
LINE
5
AD
100
AcDbEntity
8
room
6
ByLayer
62
256
370
-1
100
AcDbLine
10
420
20
3210
11
0
21
3210
0
LINE
5
AE
100
AcDbEntity
8
room
6
ByLayer
62
256
370
-1
100
AcDbLine
10
0
20
3210
11
0
21
2740
0
LINE
5
AF
100
AcDbEntity
8
room
6
ByLayer
62
256
370
-1
100
AcDbLine
10
1190
20
2510
11
1190
21
2040
0
LINE
5
B0
100
AcDbEntity
8
room
6
ByLayer
62
256
370
-1
100
AcDbLine
10
0
20
550
11
140
21
550
0
LINE
5
B1
100
AcDbEntity
8
room
6
ByLayer
62
256
370
-1
100
AcDbLine
10
140
20
550
11
140
21
550
0
LINE
5
B2
100
AcDbEntity
8
room
6
ByLayer
62
256
370
-1
100
AcDbLine
10
140
20
550
11
0
21
550
0
LINE
5
B3
100
AcDbEntity
8
room
6
ByLayer
62
256
370
-1
100
AcDbLine
10
0
20
550
11
0
21
550
0
LINE
5
B4
100
AcDbEntity
8
room
6
ByLayer
62
256
370
-1
100
AcDbLine
10
220
20
550
11
470
21
550
0
LINE
5
B5
100
AcDbEntity
8
room
6
ByLayer
62
256
370
-1
100
AcDbLine
10
550
20
550
11
820
21
550
0
LINE
5
B6
100
AcDbEntity
8
room
6
ByLayer
62
256
370
-1
100
AcDbLine
10
900
20
550
11
1240
21
550
0
LINE
5
B7
100
AcDbEntity
8
room
6
ByLayer
62
256
370
-1
100
AcDbLine
10
1320
20
550
11
1530
21
550
0
LINE
5
B8
100
AcDbEntity
8
room
6
ByLayer
62
256
370
-1
100
AcDbLine
10
1770
20
0
11
1770
21
280
0
LINE
5
B9
100
AcDbEntity
8
room
6
ByLayer
62
256
370
-1
100
AcDbLine
10
1770
20
360
11
1770
21
810
0
LINE
5
BA
100
AcDbEntity
8
room
6
ByLayer
62
256
370
-1
100
AcDbLine
10
1770
20
890
11
1770
21
1330
0
LINE
5
BB
100
AcDbEntity
8
room
6
ByLayer
62
256
370
-1
100
AcDbLine
10
1770
20
1410
11
1770
21
1850
0
LINE
5
BC
100
AcDbEntity
8
room
6
ByLayer
62
256
370
-1
100
AcDbLine
10
1770
20
1930
11
1770
21
2300
0
LINE
5
BD
100
AcDbEntity
8
room
6
ByLayer
62
256
370
-1
100
AcDbLine
10
1770
20
2380
11
1770
21
2550
0
LINE
5
BE
100
AcDbEntity
8
room
6
ByLayer
62
256
370
-1
100
AcDbLine
10
1580
20
2740
11
1410
21
2740
0
LINE
5
BF
100
AcDbEntity
8
room
6
ByLayer
62
256
370
-1
100
AcDbLine
10
1330
20
2740
11
1070
21
2740
0
LINE
5
C0
100
AcDbEntity
8
room
6
ByLayer
62
256
370
-1
100
AcDbLine
10
990
20
2740
11
680
21
2740
0
LINE
5
C1
100
AcDbEntity
8
room
6
ByLayer
62
256
370
-1
100
AcDbLine
10
600
20
2740
11
230
21
2740
0
LINE
5
C2
100
AcDbEntity
8
room
6
ByLayer
62
256
370
-1
100
AcDbLine
10
0
20
2740
11
150
21
2740
0
LINE
5
C3
100
AcDbEntity
8
room
6
ByLayer
62
256
370
-1
100
AcDbLine
10
350
20
1980
11
350
21
2510
0
LINE
5
C4
100
AcDbEntity
8
room
6
ByLayer
62
256
370
-1
100
AcDbLine
10
0
20
2510
11
0
21
1980
0
LINE
5
C5
100
AcDbEntity
8
room
6
ByLayer
62
256
370
-1
100
AcDbLine
10
0
20
1360
11
350
21
1360
0
LINE
5
C6
100
AcDbEntity
8
room
6
ByLayer
62
256
370
-1
100
AcDbLine
10
350
20
1360
11
350
21
1980
0
LINE
5
C7
100
AcDbEntity
8
room
6
ByLayer
62
256
370
-1
100
AcDbLine
10
350
20
1980
11
0
21
1980
0
LINE
5
C8
100
AcDbEntity
8
room
6
ByLayer
62
256
370
-1
100
AcDbLine
10
0
20
1980
11
0
21
1360
0
LINE
5
C9
100
AcDbEntity
8
room
6
ByLayer
62
256
370
-1
100
AcDbLine
10
0
20
2510
11
150
21
2510
0
LINE
5
CA
100
AcDbEntity
8
room
6
ByLayer
62
256
370
-1
100
AcDbLine
10
230
20
2510
11
450
21
2510
0
LINE
5
CB
100
AcDbEntity
8
room
6
ByLayer
62
256
370
-1
100
AcDbLine
10
530
20
2510
11
630
21
2510
0
LINE
5
CC
100
AcDbEntity
8
room
6
ByLayer
62
256
370
-1
100
AcDbLine
10
630
20
790
11
550
21
790
0
LINE
5
CD
100
AcDbEntity
8
room
6
ByLayer
62
256
370
-1
100
AcDbLine
10
460
20
790
11
220
21
790
0
LINE
5
CE
100
AcDbEntity
8
room
6
ByLayer
62
256
370
-1
100
AcDbLine
10
0
20
790
11
140
21
790
0
POINT
5
CF
100
AcDbEntity
8
node
6
ByLayer
62
256
370
-1
100
AcDbPoint
10
1650
20
2660
0
POINT
5
D0
100
AcDbEntity
8
node
6
ByLayer
62
256
370
-1
100
AcDbPoint
10
1770
20
2660
0
POINT
5
D1
100
AcDbEntity
8
node
6
ByLayer
62
256
370
-1
100
AcDbPoint
10
2080
20
2660
0
LINE
5
D2
100
AcDbEntity
8
room
6
ByLayer
62
256
370
-1
100
AcDbLine
10
630
20
1360
11
630
21
1620
0
LINE
5
D3
100
AcDbEntity
8
room
6
ByLayer
62
256
370
-1
100
AcDbLine
10
630
20
1980
11
630
21
1700
0
LINE
5
D4
100
AcDbEntity
8
room
6
ByLayer
62
256
370
-1
100
AcDbLine
10
1770
20
2550
11
1770
21
2620
0
LINE
5
D5
100
AcDbEntity
8
room
6
ByLayer
62
256
370
-1
100
AcDbLine
10
1770
20
2700
11
1770
21
3210
0
MTEXT
5
D6
100
AcDbEntity
8
node_text
6
ByLayer
62
256
370
-1
100
AcDbMText
10
190
20
290
30
0
40
15
41
102.083333333
71
1
72
1
1
02 180,300
7
standard
210
0
220
0
230
1
50
0
73
2
44
1
0
MTEXT
5
D7
100
AcDbEntity
8
node_text
6
ByLayer
62
256
370
-1
100
AcDbMText
10
520
20
290
30
0
40
15
41
102.083333333
71
1
72
1
1
03 510,300
7
standard
210
0
220
0
230
1
50
0
73
2
44
1
0
MTEXT
5
D8
100
AcDbEntity
8
node_text
6
ByLayer
62
256
370
-1
100
AcDbMText
10
870
20
290
30
0
40
15
41
107.083333333
71
1
72
1
1
04 860,300
7
standard
210
0
220
0
230
1
50
0
73
2
44
1
0
MTEXT
5
D9
100
AcDbEntity
8
node_text
6
ByLayer
62
256
370
-1
100
AcDbMText
10
190
20
540
30
0
40
15
41
102.083333333
71
1
72
1
1
09 180,550
7
standard
210
0
220
0
230
1
50
0
73
2
44
1
0
MTEXT
5
DA
100
AcDbEntity
8
node_text
6
ByLayer
62
256
370
-1
100
AcDbMText
10
520
20
540
30
0
40
15
41
98.75
71
1
72
1
1
10 510,550
7
standard
210
0
220
0
230
1
50
0
73
2
44
1
0
MTEXT
5
DB
100
AcDbEntity
8
node_text
6
ByLayer
62
256
370
-1
100
AcDbMText
10
870
20
540
30
0
40
15
41
98.75
71
1
72
1
1
11 860,550
7
standard
210
0
220
0
230
1
50
0
73
2
44
1
0
MTEXT
5
DC
100
AcDbEntity
8
node_text
6
ByLayer
62
256
370
-1
100
AcDbMText
10
1660
20
-10
30
0
40
15
41
87.0833333333
71
1
72
1
1
01 1650,0
7
standard
210
0
220
0
230
1
50
0
73
2
44
1
0
MTEXT
5
DD
100
AcDbEntity
8
node_text
6
ByLayer
62
256
370
-1
100
AcDbMText
10
190
20
780
30
0
40
15
41
102.083333333
71
1
72
1
1
20 180,790
7
standard
210
0
220
0
230
1
50
0
73
2
44
1
0
MTEXT
5
DE
100
AcDbEntity
8
node_text
6
ByLayer
62
256
370
-1
100
AcDbMText
10
190
20
1080
30
0
40
15
41
110.416666667
71
1
72
1
1
30 180,1090
7
standard
210
0
220
0
230
1
50
0
73
2
44
1
0
MTEXT
5
DF
100
AcDbEntity
8
node_text
6
ByLayer
62
256
370
-1
100
AcDbMText
10
490
20
1650
30
0
40
15
41
115.416666667
71
1
72
1
1
38 480,1660
7
standard
210
0
220
0
230
1
50
0
73
2
44
1
0
MTEXT
5
E0
100
AcDbEntity
8
node_text
6
ByLayer
62
256
370
-1
100
AcDbMText
10
520
20
1080
30
0
40
15
41
107.083333333
71
1
72
1
1
31 510,1090
7
standard
210
0
220
0
230
1
50
0
73
2
44
1
0
MTEXT
5
E1
100
AcDbEntity
8
node_text
6
ByLayer
62
256
370
-1
100
AcDbMText
10
520
20
780
30
0
40
15
41
98.75
71
1
72
1
1
21 510,790
7
standard
210
0
220
0
230
1
50
0
73
2
44
1
0
MTEXT
5
E2
100
AcDbEntity
8
node_text
6
ByLayer
62
256
370
-1
100
AcDbMText
10
740
20
1020
30
0
40
15
41
113.75
71
1
72
1
1
27 730,1030
7
standard
210
0
220
0
230
1
50
0
73
2
44
1
0
MTEXT
5
E3
100
AcDbEntity
8
node_text
6
ByLayer
62
256
370
-1
100
AcDbMText
10
1030
20
1020
30
0
40
15
41
122.083333333
71
1
72
1
1
29 1020,1030
7
standard
210
0
220
0
230
1
50
0
73
2
44
1
0
MTEXT
5
E4
100
AcDbEntity
8
node_text
6
ByLayer
62
256
370
-1
100
AcDbMText
10
1030
20
1650
30
0
40
15
41
123.75
71
1
72
1
1
42 1020,1660
7
standard
210
0
220
0
230
1
50
0
73
2
44
1
0
MTEXT
5
E5
100
AcDbEntity
8
node_text
6
ByLayer
62
256
370
-1
100
AcDbMText
10
1290
20
290
30
0
40
15
41
113.75
71
1
72
1
1
05 1278,300
7
standard
210
0
220
0
230
1
50
0
73
2
44
1
0
MTEXT
5
E6
100
AcDbEntity
8
node_text
6
ByLayer
62
256
370
-1
100
AcDbMText
10
1290
20
540
30
0
40
15
41
110.416666667
71
1
72
1
1
12 1278,550
7
standard
210
0
220
0
230
1
50
0
73
2
44
1
0
MTEXT
5
E7
100
AcDbEntity
8
node_text
6
ByLayer
62
256
370
-1
100
AcDbMText
10
1360
20
940
30
0
40
15
41
115.416666667
71
1
72
1
1
24 1350,950
7
standard
210
0
220
0
230
1
50
0
73
2
44
1
0
MTEXT
5
E8
100
AcDbEntity
8
node_text
6
ByLayer
62
256
370
-1
100
AcDbMText
10
1660
20
840
30
0
40
15
41
113.75
71
1
72
1
1
22 1650,850
7
standard
210
0
220
0
230
1
50
0
73
2
44
1
0
MTEXT
5
E9
100
AcDbEntity
8
node_text
6
ByLayer
62
256
370
-1
100
AcDbMText
10
1660
20
310
30
0
40
15
41
113.75
71
1
72
1
1
06 1650,320
7
standard
210
0
220
0
230
1
50
0
73
2
44
1
0
MTEXT
5
EA
100
AcDbEntity
8
node_text
6
ByLayer
62
256
370
-1
100
AcDbMText
10
1360
20
1430
30
0
40
15
41
125.416666667
71
1
72
1
1
35 1350,1440
7
standard
210
0
220
0
230
1
50
0
73
2
44
1
0
MTEXT
5
EB
100
AcDbEntity
8
node_text
6
ByLayer
62
256
370
-1
100
AcDbMText
10
1660
20
1360
30
0
40
15
41
122.083333333
71
1
72
1
1
32 1650,1370
7
standard
210
0
220
0
230
1
50
0
73
2
44
1
0
MTEXT
5
EC
100
AcDbEntity
8
node_text
6
ByLayer
62
256
370
-1
100
AcDbMText
10
2090
20
1360
30
0
40
15
41
127.083333333
71
1
72
1
1
34 2080,1370
7
standard
210
0
220
0
230
1
50
0
73
2
44
1
0
MTEXT
5
ED
100
AcDbEntity
8
node_text
6
ByLayer
62
256
370
-1
100
AcDbMText
10
2090
20
310
30
0
40
15
41
117.083333333
71
1
72
1
1
08 2080,320
7
standard
210
0
220
0
230
1
50
0
73
2
44
1
0
MTEXT
5
EE
100
AcDbEntity
8
node_text
6
ByLayer
62
256
370
-1
100
AcDbMText
10
2090
20
1880
30
0
40
15
41
127.083333333
71
1
72
1
1
45 2080,1890
7
standard
210
0
220
0
230
1
50
0
73
2
44
1
0
MTEXT
5
EF
100
AcDbEntity
8
node_text
6
ByLayer
62
256
370
-1
100
AcDbMText
10
2090
20
2650
30
0
40
15
41
128.75
71
1
72
1
1
68 2080,2660
7
standard
210
0
220
0
230
1
50
0
73
2
44
1
0
MTEXT
5
F0
100
AcDbEntity
8
node_text
6
ByLayer
62
256
370
-1
100
AcDbMText
10
2090
20
2330
30
0
40
15
41
132.083333333
71
1
72
1
1
54 2080,2340
7
standard
210
0
220
0
230
1
50
0
73
2
44
1
0
MTEXT
5
F1
100
AcDbEntity
8
node_text
6
ByLayer
62
256
370
-1
100
AcDbMText
10
1660
20
2650
30
0
40
15
41
125.416666667
71
1
72
1
1
66 1650,2660
7
standard
210
0
220
0
230
1
50
0
73
2
44
1
0
MTEXT
5
F2
100
AcDbEntity
8
node_text
6
ByLayer
62
256
370
-1
100
AcDbMText
10
1660
20
2330
30
0
40
15
41
127.083333333
71
1
72
1
1
52 1650,2340
7
standard
210
0
220
0
230
1
50
0
73
2
44
1
0
MTEXT
5
F3
100
AcDbEntity
8
node_text
6
ByLayer
62
256
370
-1
100
AcDbMText
10
1660
20
1880
30
0
40
15
41
123.75
71
1
72
1
1
43 1650,1890
7
standard
210
0
220
0
230
1
50
0
73
2
44
1
0
MTEXT
5
F4
100
AcDbEntity
8
node_text
6
ByLayer
62
256
370
-1
100
AcDbMText
10
1380
20
2060
30
0
40
15
41
127.083333333
71
1
72
1
1
46 1370,2070
7
standard
210
0
220
0
230
1
50
0
73
2
44
1
0
MTEXT
5
F5
100
AcDbEntity
8
node_text
6
ByLayer
62
256
370
-1
100
AcDbMText
10
1380
20
2730
30
0
40
15
41
127.083333333
71
1
72
1
1
72 1370,2740
7
standard
210
0
220
0
230
1
50
0
73
2
44
1
0
MTEXT
5
F6
100
AcDbEntity
8
node_text
6
ByLayer
62
256
370
-1
100
AcDbMText
10
1380
20
2500
30
0
40
15
41
122.083333333
71
1
72
1
1
57 1370,2510
7
standard
210
0
220
0
230
1
50
0
73
2
44
1
0
MTEXT
5
F7
100
AcDbEntity
8
node_text
6
ByLayer
62
256
370
-1
100
AcDbMText
10
1040
20
2730
30
0
40
15
41
123.75
71
1
72
1
1
71 1030,2740
7
standard
210
0
220
0
230
1
50
0
73
2
44
1
0
MTEXT
5
F8
100
AcDbEntity
8
node_text
6
ByLayer
62
256
370
-1
100
AcDbMText
10
1030
20
2260
30
0
40
15
41
122.083333333
71
1
72
1
1
51 1020,2270
7
standard
210
0
220
0
230
1
50
0
73
2
44
1
0
MTEXT
5
F9
100
AcDbEntity
8
node_text
6
ByLayer
62
256
370
-1
100
AcDbMText
10
740
20
2260
30
0
40
15
41
118.75
71
1
72
1
1
49 730,2270
7
standard
210
0
220
0
230
1
50
0
73
2
44
1
0
MTEXT
5
FA
100
AcDbEntity
8
node_text
6
ByLayer
62
256
370
-1
100
AcDbMText
10
500
20
2240
30
0
40
15
41
120.416666667
71
1
72
1
1
48 490,2250
7
standard
210
0
220
0
230
1
50
0
73
2
44
1
0
MTEXT
5
FB
100
AcDbEntity
8
node_text
6
ByLayer
62
256
370
-1
100
AcDbMText
10
650
20
2730
30
0
40
15
41
120.416666667
71
1
72
1
1
70 640,2740
7
standard
210
0
220
0
230
1
50
0
73
2
44
1
0
MTEXT
5
FC
100
AcDbEntity
8
node_text
6
ByLayer
62
256
370
-1
100
AcDbMText
10
500
20
2500
30
0
40
15
41
115.416666667
71
1
72
1
1
56 490,2510
7
standard
210
0
220
0
230
1
50
0
73
2
44
1
0
MTEXT
5
FD
100
AcDbEntity
8
node_text
6
ByLayer
62
256
370
-1
100
AcDbMText
10
200
20
2240
30
0
40
15
41
115.416666667
71
1
72
1
1
47 190,2250
7
standard
210
0
220
0
230
1
50
0
73
2
44
1
0
MTEXT
5
FE
100
AcDbEntity
8
node_text
6
ByLayer
62
256
370
-1
100
AcDbMText
10
200
20
2500
30
0
40
15
41
110.416666667
71
1
72
1
1
55 190,2510
7
standard
210
0
220
0
230
1
50
0
73
2
44
1
0
MTEXT
5
FF
100
AcDbEntity
8
node_text
6
ByLayer
62
256
370
-1
100
AcDbMText
10
200
20
2730
30
0
40
15
41
115.416666667
71
1
72
1
1
69 190,2740
7
standard
210
0
220
0
230
1
50
0
73
2
44
1
0
MTEXT
5
100
100
AcDbEntity
8
node_text
6
ByLayer
62
256
370
-1
100
AcDbMText
10
1660
20
1470
30
0
40
15
41
125.416666667
71
1
72
1
1
37 1650,1440
7
standard
210
0
220
0
230
1
50
0
73
2
44
1
0
MTEXT
5
101
100
AcDbEntity
8
node_text
6
ByLayer
62
256
370
-1
100
AcDbMText
10
1780
20
1400
30
0
40
15
41
122.083333333
71
1
72
1
1
33 1770,1370
7
standard
210
0
220
0
230
1
50
0
73
2
44
1
0
MTEXT
5
102
100
AcDbEntity
8
node_text
6
ByLayer
62
256
370
-1
100
AcDbMText
10
1780
20
1920
30
0
40
15
41
125.416666667
71
1
72
1
1
44 1770,1890
7
standard
210
0
220
0
230
1
50
0
73
2
44
1
0
MTEXT
5
103
100
AcDbEntity
8
node_text
6
ByLayer
62
256
370
-1
100
AcDbMText
10
1780
20
2370
30
0
40
15
41
127.083333333
71
1
72
1
1
53 1770,2340
7
standard
210
0
220
0
230
1
50
0
73
2
44
1
0
MTEXT
5
104
100
AcDbEntity
8
node_text
6
ByLayer
62
256
370
-1
100
AcDbMText
10
1780
20
2690
30
0
40
15
41
125.416666667
71
1
72
1
1
67 1770,2660
7
standard
210
0
220
0
230
1
50
0
73
2
44
1
0
MTEXT
5
105
100
AcDbEntity
8
node_text
6
ByLayer
62
256
370
-1
100
AcDbMText
10
740
20
1690
30
0
40
15
41
115.416666667
71
1
72
1
1
40 730,1660
7
standard
210
0
220
0
230
1
50
0
73
2
44
1
0
MTEXT
5
106
100
AcDbEntity
8
node_text
6
ByLayer
62
256
370
-1
100
AcDbMText
10
1660
20
980
30
0
40
15
41
113.75
71
1
72
1
1
26 1650,950
7
standard
210
0
220
0
230
1
50
0
73
2
44
1
0
MTEXT
5
107
100
AcDbEntity
8
node_text
6
ByLayer
62
256
370
-1
100
AcDbMText
10
1780
20
880
30
0
40
15
41
113.75
71
1
72
1
1
23 1770,850
7
standard
210
0
220
0
230
1
50
0
73
2
44
1
0
MTEXT
5
108
100
AcDbEntity
8
node_text
6
ByLayer
62
256
370
-1
100
AcDbMText
10
1780
20
350
30
0
40
15
41
113.75
71
1
72
1
1
07 1770,320
7
standard
210
0
220
0
230
1
50
0
73
2
44
1
0
LINE
5
109
100
AcDbEntity
8
edge
6
ByLayer
62
256
370
140
100
AcDbLine
10
180
20
690
11
180
21
790
0
LINE
5
10A
100
AcDbEntity
8
edge
6
ByLayer
62
256
370
140
100
AcDbLine
10
180
20
790
11
180
21
1090
0
LINE
5
10B
100
AcDbEntity
8
edge
6
ByLayer
62
256
370
140
100
AcDbLine
10
180
20
690
11
180
21
550
0
LINE
5
10C
100
AcDbEntity
8
edge
6
ByLayer
62
256
370
140
100
AcDbLine
10
180
20
550
11
180
21
300
0
LINE
5
10D
100
AcDbEntity
8
edge
6
ByLayer
62
256
370
140
100
AcDbLine
10
510
20
690
11
510
21
790
0
LINE
5
10E
100
AcDbEntity
8
edge
6
ByLayer
62
256
370
140
100
AcDbLine
10
510
20
790
11
510
21
1090
0
POINT
5
10F
100
AcDbEntity
8
edge
6
ByLayer
62
256
370
140
100
AcDbPoint
10
510
20
300
0
LINE
5
110
100
AcDbEntity
8
edge
6
ByLayer
62
256
370
140
100
AcDbLine
10
510
20
690
11
510
21
550
0
LINE
5
111
100
AcDbEntity
8
edge
6
ByLayer
62
256
370
140
100
AcDbLine
10
510
20
550
11
510
21
300
0
LINE
5
112
100
AcDbEntity
8
edge
6
ByLayer
62
256
370
140
100
AcDbLine
10
860
20
550
11
860
21
300
0
LINE
5
113
100
AcDbEntity
8
edge
6
ByLayer
62
256
370
140
100
AcDbLine
10
1278
20
550
11
1278
21
300
0
LINE
5
114
100
AcDbEntity
8
edge
6
ByLayer
62
256
370
140
100
AcDbLine
10
1650
20
320
11
1650
21
0
0
LINE
5
115
100
AcDbEntity
8
edge
6
ByLayer
62
256
370
140
100
AcDbLine
10
1650
20
320
11
1770
21
320
0
LINE
5
116
100
AcDbEntity
8
edge
6
ByLayer
62
256
370
140
100
AcDbLine
10
1770
20
320
11
2080
21
320
0
LINE
5
117
100
AcDbEntity
8
edge
6
ByLayer
62
256
370
140
100
AcDbLine
10
1650
20
850
11
1770
21
850
0
LINE
5
118
100
AcDbEntity
8
edge
6
ByLayer
62
256
370
140
100
AcDbLine
10
1770
20
850
11
2080
21
850
0
LINE
5
119
100
AcDbEntity
8
edge
6
ByLayer
62
256
370
140
100
AcDbLine
10
1650
20
850
11
1650
21
950
0
LINE
5
11A
100
AcDbEntity
8
edge
6
ByLayer
62
256
370
140
100
AcDbLine
10
1650
20
950
11
1650
21
1370
0
LINE
5
11B
100
AcDbEntity
8
edge
6
ByLayer
62
256
370
140
100
AcDbLine
10
1650
20
1370
11
1770
21
1370
0
LINE
5
11C
100
AcDbEntity
8
edge
6
ByLayer
62
256
370
140
100
AcDbLine
10
1770
20
1370
11
2080
21
1370
0
LINE
5
11D
100
AcDbEntity
8
edge
6
ByLayer
62
256
370
140
100
AcDbLine
10
1650
20
1370
11
1650
21
1440
0
LINE
5
11E
100
AcDbEntity
8
edge
6
ByLayer
62
256
370
140
100
AcDbLine
10
1650
20
1440
11
1650
21
1890
0
LINE
5
11F
100
AcDbEntity
8
edge
6
ByLayer
62
256
370
140
100
AcDbLine
10
1650
20
1890
11
1770
21
1890
0
LINE
5
120
100
AcDbEntity
8
edge
6
ByLayer
62
256
370
140
100
AcDbLine
10
1770
20
1890
11
2080
21
1890
0
LINE
5
121
100
AcDbEntity
8
edge
6
ByLayer
62
256
370
140
100
AcDbLine
10
1650
20
1890
11
1650
21
2340
0
LINE
5
122
100
AcDbEntity
8
edge
6
ByLayer
62
256
370
140
100
AcDbLine
10
1650
20
2340
11
1770
21
2340
0
LINE
5
123
100
AcDbEntity
8
edge
6
ByLayer
62
256
370
140
100
AcDbLine
10
1770
20
2340
11
2080
21
2340
0
LINE
5
124
100
AcDbEntity
8
edge
6
ByLayer
62
256
370
140
100
AcDbLine
10
1370
20
2740
11
1370
21
3000
0
LINE
5
125
100
AcDbEntity
8
edge
6
ByLayer
62
256
370
140
100
AcDbLine
10
1370
20
2510
11
1370
21
2070
0
LINE
5
126
100
AcDbEntity
8
edge
6
ByLayer
62
256
370
140
100
AcDbLine
10
1030
20
2740
11
1030
21
3000
0
LINE
5
127
100
AcDbEntity
8
edge
6
ByLayer
62
256
370
140
100
AcDbLine
10
190
20
2740
11
190
21
3000
0
LINE
5
128
100
AcDbEntity
8
edge
6
ByLayer
62
256
370
140
100
AcDbLine
10
190
20
2510
11
190
21
2250
0
LINE
5
129
100
AcDbEntity
8
edge
6
ByLayer
62
256
370
140
100
AcDbLine
10
490
20
2510
11
490
21
2250
0
LINE
5
12A
100
AcDbEntity
8
edge
6
ByLayer
62
256
370
140
100
AcDbLine
10
640
20
2740
11
640
21
3000
0
LINE
5
12B
100
AcDbEntity
8
edge
6
ByLayer
62
256
370
140
100
AcDbLine
10
730
20
2270
11
730
21
1660
0
LINE
5
12C
100
AcDbEntity
8
edge
6
ByLayer
62
256
370
140
100
AcDbLine
10
730
20
1660
11
640
21
1660
0
LINE
5
12D
100
AcDbEntity
8
edge
6
ByLayer
62
256
370
140
100
AcDbLine
10
640
20
1660
11
480
21
1660
0
LINE
5
12E
100
AcDbEntity
8
edge
6
ByLayer
62
256
370
140
100
AcDbLine
10
730
20
1660
11
730
21
1030
0
LINE
5
12F
100
AcDbEntity
8
edge
6
ByLayer
62
256
370
140
100
AcDbLine
10
1650
20
2660
11
1770
21
2660
0
LINE
5
130
100
AcDbEntity
8
edge
6
ByLayer
62
256
370
140
100
AcDbLine
10
1770
20
2660
11
2080
21
2660
0
MTEXT
5
131
100
AcDbEntity
8
node_text
6
ByLayer
62
256
370
-1
100
AcDbMText
10
200
20
2990
30
0
40
15
41
113.75
71
1
72
1
1
73 190,3000
7
standard
210
0
220
0
230
1
50
0
73
2
44
1
0
MTEXT
5
132
100
AcDbEntity
8
node_text
6
ByLayer
62
256
370
-1
100
AcDbMText
10
650
20
2990
30
0
40
15
41
120.416666667
71
1
72
1
1
74 640,3000
7
standard
210
0
220
0
230
1
50
0
73
2
44
1
0
MTEXT
5
133
100
AcDbEntity
8
node_text
6
ByLayer
62
256
370
-1
100
AcDbMText
10
1040
20
2990
30
0
40
15
41
125.416666667
71
1
72
1
1
75 1030,3000
7
standard
210
0
220
0
230
1
50
0
73
2
44
1
0
MTEXT
5
134
100
AcDbEntity
8
node_text
6
ByLayer
62
256
370
-1
100
AcDbMText
10
1380
20
2990
30
0
40
15
41
125.416666667
71
1
72
1
1
76 1370,3000
7
standard
210
0
220
0
230
1
50
0
73
2
44
1
0
LINE
5
135
100
AcDbEntity
8
edge
6
ByLayer
62
256
370
140
100
AcDbLine
10
0
20
670
11
180
21
670
0
LINE
5
136
100
AcDbEntity
8
edge
6
ByLayer
62
256
370
140
100
AcDbLine
10
180
20
670
11
509
21
670
0
LINE
5
137
100
AcDbEntity
8
edge
6
ByLayer
62
256
370
140
100
AcDbLine
10
509
20
670
11
718
21
670
0
LINE
5
138
100
AcDbEntity
8
edge
6
ByLayer
62
256
370
140
100
AcDbLine
10
718
20
670
11
860
21
670
0
LINE
5
139
100
AcDbEntity
8
edge
6
ByLayer
62
256
370
140
100
AcDbLine
10
860
20
670
11
1278
21
670
0
LINE
5
13A
100
AcDbEntity
8
edge
6
ByLayer
62
256
370
140
100
AcDbLine
10
1278
20
670
11
1650
21
670
0
POINT
5
13B
100
AcDbEntity
8
node
6
ByLayer
62
256
370
-1
100
AcDbPoint
10
0
20
670
0
POINT
5
13C
100
AcDbEntity
8
node
6
ByLayer
62
256
370
-1
100
AcDbPoint
10
180
20
670
0
POINT
5
13D
100
AcDbEntity
8
node
6
ByLayer
62
256
370
-1
100
AcDbPoint
10
510
20
670
0
POINT
5
13E
100
AcDbEntity
8
node
6
ByLayer
62
256
370
-1
100
AcDbPoint
10
860
20
670
0
POINT
5
13F
100
AcDbEntity
8
node
6
ByLayer
62
256
370
-1
100
AcDbPoint
10
1278
20
670
0
POINT
5
140
100
AcDbEntity
8
node
6
ByLayer
62
256
370
-1
100
AcDbPoint
10
1650
20
670
0
POINT
5
141
100
AcDbEntity
8
node
6
ByLayer
62
256
370
-1
100
AcDbPoint
10
730
20
670
0
LINE
5
142
100
AcDbEntity
8
edge
6
ByLayer
62
256
370
-1
100
AcDbLine
10
730
20
1030
11
730
21
670
0
LINE
5
143
100
AcDbEntity
8
edge
6
ByLayer
62
256
370
-1
100
AcDbLine
10
860
20
670
11
860
21
550
0
LINE
5
144
100
AcDbEntity
8
edge
6
ByLayer
62
256
370
-1
100
AcDbLine
10
1278
20
670
11
1278
21
550
0
LINE
5
145
100
AcDbEntity
8
edge
6
ByLayer
62
256
370
-1
100
AcDbLine
10
1650
20
850
11
1650
21
670
0
LINE
5
146
100
AcDbEntity
8
edge
6
ByLayer
62
256
370
-1
100
AcDbLine
10
1650
20
670
11
1650
21
320
0
LINE
5
147
100
AcDbEntity
8
edge
6
ByLayer
62
256
370
140
100
AcDbLine
10
1650
20
2625
11
1370
21
2625
0
LINE
5
148
100
AcDbEntity
8
edge
6
ByLayer
62
256
370
140
100
AcDbLine
10
1370
20
2625
11
1030
21
2625
0
LINE
5
149
100
AcDbEntity
8
edge
6
ByLayer
62
256
370
140
100
AcDbLine
10
1030
20
2625
11
730
21
2625
0
LINE
5
14A
100
AcDbEntity
8
edge
6
ByLayer
62
256
370
140
100
AcDbLine
10
730
20
2625
11
640
21
2625
0
LINE
5
14B
100
AcDbEntity
8
edge
6
ByLayer
62
256
370
140
100
AcDbLine
10
640
20
2625
11
490
21
2625
0
LINE
5
14C
100
AcDbEntity
8
edge
6
ByLayer
62
256
370
140
100
AcDbLine
10
490
20
2625
11
190
21
2625
0
LINE
5
14D
100
AcDbEntity
8
edge
6
ByLayer
62
256
370
140
100
AcDbLine
10
190
20
2625
11
0
21
2625
0
POINT
5
14E
100
AcDbEntity
8
node
6
ByLayer
62
256
370
-1
100
AcDbPoint
10
1650
20
2625
0
POINT
5
14F
100
AcDbEntity
8
node
6
ByLayer
62
256
370
-1
100
AcDbPoint
10
1370
20
2625
0
POINT
5
150
100
AcDbEntity
8
node
6
ByLayer
62
256
370
-1
100
AcDbPoint
10
1030
20
2625
0
POINT
5
151
100
AcDbEntity
8
node
6
ByLayer
62
256
370
-1
100
AcDbPoint
10
730
20
2625
0
POINT
5
152
100
AcDbEntity
8
node
6
ByLayer
62
256
370
-1
100
AcDbPoint
10
640
20
2625
0
POINT
5
153
100
AcDbEntity
8
node
6
ByLayer
62
256
370
-1
100
AcDbPoint
10
490
20
2625
0
POINT
5
154
100
AcDbEntity
8
node
6
ByLayer
62
256
370
-1
100
AcDbPoint
10
190
20
2625
0
POINT
5
155
100
AcDbEntity
8
node
6
ByLayer
62
256
370
-1
100
AcDbPoint
10
0
20
2625
0
LINE
5
156
100
AcDbEntity
8
edge
6
ByLayer
62
256
370
-1
100
AcDbLine
10
190
20
2740
11
190
21
2625
0
LINE
5
157
100
AcDbEntity
8
edge
6
ByLayer
62
256
370
-1
100
AcDbLine
10
190
20
2625
11
190
21
2510
0
LINE
5
158
100
AcDbEntity
8
edge
6
ByLayer
62
256
370
-1
100
AcDbLine
10
490
20
2625
11
490
21
2510
0
LINE
5
159
100
AcDbEntity
8
edge
6
ByLayer
62
256
370
-1
100
AcDbLine
10
640
20
2625
11
640
21
2740
0
LINE
5
15A
100
AcDbEntity
8
edge
6
ByLayer
62
256
370
-1
100
AcDbLine
10
730
20
2270
11
730
21
2625
0
LINE
5
15B
100
AcDbEntity
8
edge
6
ByLayer
62
256
370
-1
100
AcDbLine
10
1030
20
2625
11
1030
21
2740
0
LINE
5
15C
100
AcDbEntity
8
edge
6
ByLayer
62
256
370
-1
100
AcDbLine
10
1370
20
2625
11
1370
21
2740
0
LINE
5
15D
100
AcDbEntity
8
edge
6
ByLayer
62
256
370
-1
100
AcDbLine
10
1370
20
2625
11
1370
21
2510
0
LINE
5
15E
100
AcDbEntity
8
edge
6
ByLayer
62
256
370
-1
100
AcDbLine
10
1650
20
2340
11
1650
21
2625
0
LINE
5
15F
100
AcDbEntity
8
edge
6
ByLayer
62
256
370
-1
100
AcDbLine
10
1650
20
2625
11
1650
21
2660
0
LINE
5
160
100
AcDbEntity
8
room
6
ByLayer
62
256
370
-1
100
AcDbLine
10
1190
20
790
11
1530
21
790
0
LINE
5
161
100
AcDbEntity
8
room
6
ByLayer
62
256
370
-1
100
AcDbLine
10
1190
20
1290
11
1190
21
790
0
LINE
5
162
100
AcDbEntity
8
room
6
ByLayer
62
256
370
-1
100
AcDbLine
10
1190
20
2040
11
1190
21
1290
0
LINE
5
163
100
AcDbEntity
8
room
6
ByLayer
62
256
370
-1
100
AcDbLine
10
1190
20
1170
11
1530
21
1170
0
LINE
5
164
100
AcDbEntity
8
room
6
ByLayer
62
256
370
-1
100
AcDbLine
10
1190
20
1630
11
1530
21
1630
0
LINE
5
165
100
AcDbEntity
8
room
6
ByLayer
62
256
370
-1
100
AcDbLine
10
1530
20
1630
11
1530
21
2510
0
LINE
5
166
100
AcDbEntity
8
room
6
ByLayer
62
256
370
-1
100
AcDbLine
10
1530
20
2510
11
1410
21
2510
0
LINE
5
167
100
AcDbEntity
8
room
6
ByLayer
62
256
370
-1
100
AcDbLine
10
1330
20
2510
11
1190
21
2510
0
LINE
5
168
100
AcDbEntity
8
room
6
ByLayer
62
256
370
-1
100
AcDbLine
10
1530
20
1630
11
1530
21
1480
0
LINE
5
169
100
AcDbEntity
8
room
6
ByLayer
62
256
370
-1
100
AcDbLine
10
1530
20
1400
11
1530
21
990
0
LINE
5
16A
100
AcDbEntity
8
room
6
ByLayer
62
256
370
-1
100
AcDbLine
10
1530
20
790
11
1530
21
910
0
POINT
5
16B
100
AcDbEntity
8
node
6
ByLayer
62
256
370
-1
100
AcDbPoint
10
1530
20
950
0
POINT
5
16C
100
AcDbEntity
8
node
6
ByLayer
62
256
370
-1
100
AcDbPoint
10
1530
20
1440
0
MTEXT
5
16D
100
AcDbEntity
8
node_text
6
ByLayer
62
256
370
-1
100
AcDbMText
10
10
20
660
30
0
40
15
41
78.75
71
1
72
1
1
13 0,670
7
standard
210
0
220
0
230
1
50
0
73
2
44
1
0
MTEXT
5
16E
100
AcDbEntity
8
node_text
6
ByLayer
62
256
370
-1
100
AcDbMText
10
190
20
660
30
0
40
15
41
100.416666667
71
1
72
1
1
14 180,670
7
standard
210
0
220
0
230
1
50
0
73
2
44
1
0
MTEXT
5
16F
100
AcDbEntity
8
node_text
6
ByLayer
62
256
370
-1
100
AcDbMText
10
520
20
660
30
0
40
15
41
98.75
71
1
72
1
1
15 510,670
7
standard
210
0
220
0
230
1
50
0
73
2
44
1
0
MTEXT
5
170
100
AcDbEntity
8
node_text
6
ByLayer
62
256
370
-1
100
AcDbMText
10
740
20
660
30
0
40
15
41
102.083333333
71
1
72
1
1
16 730,670
7
standard
210
0
220
0
230
1
50
0
73
2
44
1
0
MTEXT
5
171
100
AcDbEntity
8
node_text
6
ByLayer
62
256
370
-1
100
AcDbMText
10
870
20
660
30
0
40
15
41
102.083333333
71
1
72
1
1
17 860,670
7
standard
210
0
220
0
230
1
50
0
73
2
44
1
0
MTEXT
5
172
100
AcDbEntity
8
node_text
6
ByLayer
62
256
370
-1
100
AcDbMText
10
1290
20
660
30
0
40
15
41
110.416666667
71
1
72
1
1
18 1278,670
7
standard
210
0
220
0
230
1
50
0
73
2
44
1
0
MTEXT
5
173
100
AcDbEntity
8
node_text
6
ByLayer
62
256
370
-1
100
AcDbMText
10
1660
20
660
30
0
40
15
41
110.416666667
71
1
72
1
1
19 1650,670
7
standard
210
0
220
0
230
1
50
0
73
2
44
1
0
MTEXT
5
174
100
AcDbEntity
8
node_text
6
ByLayer
62
256
370
-1
100
AcDbMText
10
1540
20
940
30
0
40
15
41
113.75
71
1
72
1
1
25 1530,950
7
standard
210
0
220
0
230
1
50
0
73
2
44
1
0
MTEXT
5
175
100
AcDbEntity
8
node_text
6
ByLayer
62
256
370
-1
100
AcDbMText
10
1540
20
1430
30
0
40
15
41
125.416666667
71
1
72
1
1
36 1530,1440
7
standard
210
0
220
0
230
1
50
0
73
2
44
1
0
LINE
5
176
100
AcDbEntity
8
room
6
ByLayer
62
256
370
-1
100
AcDbLine
10
1190
20
790
11
830
21
790
0
LINE
5
177
100
AcDbEntity
8
room
6
ByLayer
62
256
370
-1
100
AcDbLine
10
830
20
790
11
830
21
990
0
LINE
5
178
100
AcDbEntity
8
room
6
ByLayer
62
256
370
-1
100
AcDbLine
10
1190
20
1290
11
830
21
1290
0
LINE
5
179
100
AcDbEntity
8
room
6
ByLayer
62
256
370
-1
100
AcDbLine
10
1190
20
2040
11
830
21
2040
0
LINE
5
17A
100
AcDbEntity
8
room
6
ByLayer
62
256
370
-1
100
AcDbLine
10
1190
20
2510
11
830
21
2510
0
LINE
5
17B
100
AcDbEntity
8
room
6
ByLayer
62
256
370
-1
100
AcDbLine
10
830
20
2510
11
830
21
2310
0
LINE
5
17C
100
AcDbEntity
8
room
6
ByLayer
62
256
370
-1
100
AcDbLine
10
830
20
2220
11
830
21
1700
0
LINE
5
17D
100
AcDbEntity
8
room
6
ByLayer
62
256
370
-1
100
AcDbLine
10
830
20
1620
11
830
21
1070
0
POINT
5
17E
100
AcDbEntity
8
node
6
ByLayer
62
256
370
-1
100
AcDbPoint
10
830
20
1660
0
POINT
5
17F
100
AcDbEntity
8
node
6
ByLayer
62
256
370
-1
100
AcDbPoint
10
830
20
1030
0
POINT
5
180
100
AcDbEntity
8
node
6
ByLayer
62
256
370
-1
100
AcDbPoint
10
830
20
2270
0
LINE
5
181
100
AcDbEntity
8
edge
6
ByLayer
62
256
370
-1
100
AcDbLine
10
730
20
2270
11
830
21
2270
0
LINE
5
182
100
AcDbEntity
8
edge
6
ByLayer
62
256
370
-1
100
AcDbLine
10
830
20
2270
11
1020
21
2270
0
LINE
5
183
100
AcDbEntity
8
edge
6
ByLayer
62
256
370
-1
100
AcDbLine
10
730
20
1660
11
830
21
1660
0
LINE
5
184
100
AcDbEntity
8
edge
6
ByLayer
62
256
370
-1
100
AcDbLine
10
830
20
1660
11
1020
21
1660
0
LINE
5
185
100
AcDbEntity
8
edge
6
ByLayer
62
256
370
-1
100
AcDbLine
10
730
20
1030
11
830
21
1030
0
LINE
5
186
100
AcDbEntity
8
edge
6
ByLayer
62
256
370
-1
100
AcDbLine
10
830
20
1030
11
1020
21
1030
0
LINE
5
187
100
AcDbEntity
8
edge
6
ByLayer
62
256
370
-1
100
AcDbLine
10
1350
20
950
11
1530
21
950
0
LINE
5
188
100
AcDbEntity
8
edge
6
ByLayer
62
256
370
-1
100
AcDbLine
10
1530
20
950
11
1650
21
950
0
LINE
5
189
100
AcDbEntity
8
edge
6
ByLayer
62
256
370
-1
100
AcDbLine
10
1350
20
1440
11
1530
21
1440
0
LINE
5
18A
100
AcDbEntity
8
edge
6
ByLayer
62
256
370
-1
100
AcDbLine
10
1530
20
1440
11
1650
21
1440
0
MTEXT
5
18B
100
AcDbEntity
8
node_text
6
ByLayer
62
256
370
-1
100
AcDbMText
10
840
20
1060
30
0
40
15
41
113.75
71
1
72
1
1
28 830,1030
7
standard
210
0
220
0
230
1
50
0
73
2
44
1
0
MTEXT
5
18C
100
AcDbEntity
8
node_text
6
ByLayer
62
256
370
-1
100
AcDbMText
10
840
20
1650
30
0
40
15
41
112.083333333
71
1
72
1
1
41 830,1660
7
standard
210
0
220
0
230
1
50
0
73
2
44
1
0
MTEXT
5
18D
100
AcDbEntity
8
node_text
6
ByLayer
62
256
370
-1
100
AcDbMText
10
840
20
2300
30
0
40
15
41
117.083333333
71
1
72
1
1
50 830,2270
7
standard
210
0
220
0
230
1
50
0
73
2
44
1
0
POINT
5
18E
100
AcDbEntity
8
rfid
6
ByLayer
62
256
370
-1
100
AcDbPoint
10
370
20
670
0
POINT
5
18F
100
AcDbEntity
8
rfid
6
ByLayer
62
256
370
-1
100
AcDbPoint
10
840
20
670
0
POINT
5
190
100
AcDbEntity
8
rfid
6
ByLayer
62
256
370
-1
100
AcDbPoint
10
1250
20
670
0
POINT
5
191
100
AcDbEntity
8
rfid
6
ByLayer
62
256
370
-1
100
AcDbPoint
10
1650
20
510
0
POINT
5
192
100
AcDbEntity
8
rfid
6
ByLayer
62
256
370
-1
100
AcDbPoint
10
1650
20
920
0
POINT
5
193
100
AcDbEntity
8
rfid
6
ByLayer
62
256
370
-1
100
AcDbPoint
10
730
20
1060
0
POINT
5
194
100
AcDbEntity
8
rfid
6
ByLayer
62
256
370
-1
100
AcDbPoint
10
730
20
1390
0
POINT
5
195
100
AcDbEntity
8
rfid
6
ByLayer
62
256
370
-1
100
AcDbPoint
10
1650
20
1250
0
POINT
5
196
100
AcDbEntity
8
rfid
6
ByLayer
62
256
370
-1
100
AcDbPoint
10
1650
20
920
0
POINT
5
197
100
AcDbEntity
8
rfid
6
ByLayer
62
256
370
-1
100
AcDbPoint
10
1650
20
1740
0
POINT
5
198
100
AcDbEntity
8
rfid
6
ByLayer
62
256
370
-1
100
AcDbPoint
10
1650
20
2200
0
POINT
5
199
100
AcDbEntity
8
rfid
6
ByLayer
62
256
370
-1
100
AcDbPoint
10
730
20
2300
0
POINT
5
19A
100
AcDbEntity
8
rfid
6
ByLayer
62
256
370
-1
100
AcDbPoint
10
860
20
2625
0
POINT
5
19B
100
AcDbEntity
8
rfid
6
ByLayer
62
256
370
-1
100
AcDbPoint
10
1281
20
2625
0
POINT
5
19C
100
AcDbEntity
8
rfid
6
ByLayer
62
256
370
-1
100
AcDbPoint
10
730
20
1830
0
POINT
5
19D
100
AcDbEntity
8
rfid
6
ByLayer
62
256
370
-1
100
AcDbPoint
10
1650
20
2625
0
POINT
5
19E
100
AcDbEntity
8
rfid
6
ByLayer
62
256
370
-1
100
AcDbPoint
10
1650
20
150
0
POINT
5
19F
100
AcDbEntity
8
rfid
6
ByLayer
62
256
370
-1
100
AcDbPoint
10
0
20
2625
0
POINT
5
1A0
100
AcDbEntity
8
rfid
6
ByLayer
62
256
370
-1
100
AcDbPoint
10
0
20
670
0
CIRCLE
5
1A1
100
AcDbEntity
8
rfid
6
ByLayer
62
256
370
-1
100
AcDbCircle
10
0
20
670
40
120
0
CIRCLE
5
1A2
100
AcDbEntity
8
rfid
6
ByLayer
62
256
370
-1
100
AcDbCircle
10
370
20
670
40
120
0
CIRCLE
5
1A3
100
AcDbEntity
8
rfid
6
ByLayer
62
256
370
-1
100
AcDbCircle
10
840
20
670
40
120
0
CIRCLE
5
1A4
100
AcDbEntity
8
rfid
6
ByLayer
62
256
370
-1
100
AcDbCircle
10
1250
20
670
40
120
0
CIRCLE
5
1A5
100
AcDbEntity
8
rfid
6
ByLayer
62
256
370
-1
100
AcDbCircle
10
1650
20
150
40
121.655250606
0
CIRCLE
5
1A6
100
AcDbEntity
8
rfid
6
ByLayer
62
256
370
-1
100
AcDbCircle
10
1650
20
510
40
120
0
CIRCLE
5
1A7
100
AcDbEntity
8
rfid
6
ByLayer
62
256
370
-1
100
AcDbCircle
10
1650
20
920
40
120.415945788
0
CIRCLE
5
1A8
100
AcDbEntity
8
rfid
6
ByLayer
62
256
370
-1
100
AcDbCircle
10
1650
20
1250
40
120
0
CIRCLE
5
1A9
100
AcDbEntity
8
rfid
6
ByLayer
62
256
370
-1
100
AcDbCircle
10
1650
20
1740
40
120.415945788
0
CIRCLE
5
1AA
100
AcDbEntity
8
rfid
6
ByLayer
62
256
370
-1
100
AcDbCircle
10
1650
20
2200
40
120
0
CIRCLE
5
1AB
100
AcDbEntity
8
rfid
6
ByLayer
62
256
370
-1
100
AcDbCircle
10
1650
20
2625
40
120.933866224
0
CIRCLE
5
1AC
100
AcDbEntity
8
rfid
6
ByLayer
62
256
370
-1
100
AcDbCircle
10
1281
20
2625
40
115.004347744
0
CIRCLE
5
1AD
100
AcDbEntity
8
rfid
6
ByLayer
62
256
370
-1
100
AcDbCircle
10
860
20
2625
40
115
0
CIRCLE
5
1AE
100
AcDbEntity
8
rfid
6
ByLayer
62
256
370
-1
100
AcDbCircle
10
448.242187503
20
2625.48828127
40
115.782022632
0
CIRCLE
5
1AF
100
AcDbEntity
8
rfid
6
ByLayer
62
256
370
-1
100
AcDbCircle
10
0
20
2625
40
115
0
CIRCLE
5
1B0
100
AcDbEntity
8
rfid
6
ByLayer
62
256
370
-1
100
AcDbCircle
10
730
20
2300
40
100
0
CIRCLE
5
1B1
100
AcDbEntity
8
rfid
6
ByLayer
62
256
370
-1
100
AcDbCircle
10
730
20
1830
40
100
0
CIRCLE
5
1B2
100
AcDbEntity
8
rfid
6
ByLayer
62
256
370
-1
100
AcDbCircle
10
730
20
1390
40
100
0
CIRCLE
5
1B3
100
AcDbEntity
8
rfid
6
ByLayer
62
256
370
-1
100
AcDbCircle
10
730
20
1060
40
100
0
MTEXT
5
1B4
100
AcDbEntity
8
room_text
6
ByLayer
62
256
370
-1
100
AcDbMText
10
330
20
30
30
0
40
15
41
15
71
1
72
1
1
01
7
standard
210
0
220
0
230
1
50
0
73
2
44
1
0
MTEXT
5
1B5
100
AcDbEntity
8
room_text
6
ByLayer
62
256
370
-1
100
AcDbMText
10
660
20
30
30
0
40
15
41
18.3333333333
71
1
72
1
1
02
7
standard
210
0
220
0
230
1
50
0
73
2
44
1
0
MTEXT
5
1B6
100
AcDbEntity
8
room_text
6
ByLayer
62
256
370
-1
100
AcDbMText
10
1050
20
30
30
0
40
15
41
18.3333333333
71
1
72
1
1
03
7
standard
210
0
220
0
230
1
50
0
73
2
44
1
0
MTEXT
5
1B7
100
AcDbEntity
8
room_text
6
ByLayer
62
256
370
-1
100
AcDbMText
10
1500
20
30
30
0
40
15
41
20
71
1
72
1
1
04
7
standard
210
0
220
0
230
1
50
0
73
2
44
1
0
MTEXT
5
1B8
100
AcDbEntity
8
room_text
6
ByLayer
62
256
370
-1
100
AcDbMText
10
2350
20
30
30
0
40
15
41
18.3333333333
71
1
72
1
1
05
7
standard
210
0
220
0
230
1
50
0
73
2
44
1
0
MTEXT
5
1B9
100
AcDbEntity
8
room_text
6
ByLayer
62
256
370
-1
100
AcDbMText
10
320
20
820
30
0
40
15
41
18.3333333333
71
1
72
1
1
06
7
standard
210
0
220
0
230
1
50
0
73
2
44
1
0
MTEXT
5
1BA
100
AcDbEntity
8
room_text
6
ByLayer
62
256
370
-1
100
AcDbMText
10
600
20
820
30
0
40
15
41
18.3333333333
71
1
72
1
1
07
7
standard
210
0
220
0
230
1
50
0
73
2
44
1
0
MTEXT
5
1BB
100
AcDbEntity
8
room_text
6
ByLayer
62
256
370
-1
100
AcDbMText
10
1160
20
820
30
0
40
15
41
18.3333333333
71
1
72
1
1
08
7
standard
210
0
220
0
230
1
50
0
73
2
44
1
0
MTEXT
5
1BC
100
AcDbEntity
8
room_text
6
ByLayer
62
256
370
-1
100
AcDbMText
10
1500
20
820
30
0
40
15
41
18.3333333333
71
1
72
1
1
09
7
standard
210
0
220
0
230
1
50
0
73
2
44
1
0
MTEXT
5
1BD
100
AcDbEntity
8
room_text
6
ByLayer
62
256
370
-1
100
AcDbMText
10
2350
20
670
30
0
40
15
41
15
71
1
72
1
1
10
7
standard
210
0
220
0
230
1
50
0
73
2
44
1
0
MTEXT
5
1BE
100
AcDbEntity
8
room_text
6
ByLayer
62
256
370
-1
100
AcDbMText
10
320
20
1390
30
0
40
15
41
11.6666666667
71
1
72
1
1
11
7
standard
210
0
220
0
230
1
50
0
73
2
44
1
0
MTEXT
5
1BF
100
AcDbEntity
8
room_text
6
ByLayer
62
256
370
-1
100
AcDbMText
10
600
20
1390
30
0
40
15
41
15
71
1
72
1
1
12
7
standard
210
0
220
0
230
1
50
0
73
2
44
1
0
MTEXT
5
1C0
100
AcDbEntity
8
room_text
6
ByLayer
62
256
370
-1
100
AcDbMText
10
1160
20
1320
30
0
40
15
41
15
71
1
72
1
1
13
7
standard
210
0
220
0
230
1
50
0
73
2
44
1
0
MTEXT
5
1C1
100
AcDbEntity
8
room_text
6
ByLayer
62
256
370
-1
100
AcDbMText
10
1500
20
1200
30
0
40
15
41
16.6666666667
71
1
72
1
1
14
7
standard
210
0
220
0
230
1
50
0
73
2
44
1
0
MTEXT
5
1C2
100
AcDbEntity
8
room_text
6
ByLayer
62
256
370
-1
100
AcDbMText
10
2350
20
1130
30
0
40
15
41
15
71
1
72
1
1
15
7
standard
210
0
220
0
230
1
50
0
73
2
44
1
0
MTEXT
5
1C3
100
AcDbEntity
8
room_text
6
ByLayer
62
256
370
-1
100
AcDbMText
10
320
20
2010
30
0
40
15
41
15
71
1
72
1
1
16
7
standard
210
0
220
0
230
1
50
0
73
2
44
1
0
MTEXT
5
1C4
100
AcDbEntity
8
room_text
6
ByLayer
62
256
370
-1
100
AcDbMText
10
600
20
2010
30
0
40
15
41
15
71
1
72
1
1
17
7
standard
210
0
220
0
230
1
50
0
73
2
44
1
0
MTEXT
5
1C5
100
AcDbEntity
8
room_text
6
ByLayer
62
256
370
-1
100
AcDbMText
10
1160
20
2070
30
0
40
15
41
15
71
1
72
1
1
18
7
standard
210
0
220
0
230
1
50
0
73
2
44
1
0
MTEXT
5
1C6
100
AcDbEntity
8
room_text
6
ByLayer
62
256
370
-1
100
AcDbMText
10
1500
20
1660
30
0
40
15
41
15
71
1
72
1
1
19
7
standard
210
0
220
0
230
1
50
0
73
2
44
1
0
MTEXT
5
1C7
100
AcDbEntity
8
room_text
6
ByLayer
62
256
370
-1
100
AcDbMText
10
2350
20
1660
30
0
40
15
41
18.3333333333
71
1
72
1
1
20
7
standard
210
0
220
0
230
1
50
0
73
2
44
1
0
MTEXT
5
1C8
100
AcDbEntity
8
room_text
6
ByLayer
62
256
370
-1
100
AcDbMText
10
2350
20
2150
30
0
40
15
41
15
71
1
72
1
1
21
7
standard
210
0
220
0
230
1
50
0
73
2
44
1
0
MTEXT
5
1C9
100
AcDbEntity
8
room_text
6
ByLayer
62
256
370
-1
100
AcDbMText
10
390
20
2770
30
0
40
15
41
18.3333333333
71
1
72
1
1
22
7
standard
210
0
220
0
230
1
50
0
73
2
44
1
0
MTEXT
5
1CA
100
AcDbEntity
8
room_text
6
ByLayer
62
256
370
-1
100
AcDbMText
10
800
20
2770
30
0
40
15
41
18.3333333333
71
1
72
1
1
23
7
standard
210
0
220
0
230
1
50
0
73
2
44
1
0
MTEXT
5
1CB
100
AcDbEntity
8
room_text
6
ByLayer
62
256
370
-1
100
AcDbMText
10
1200
20
2770
30
0
40
15
41
20
71
1
72
1
1
24
7
standard
210
0
220
0
230
1
50
0
73
2
44
1
0
MTEXT
5
1CC
100
AcDbEntity
8
room_text
6
ByLayer
62
256
370
-1
100
AcDbMText
10
1550
20
2770
30
0
40
15
41
18.3333333333
71
1
72
1
1
25
7
standard
210
0
220
0
230
1
50
0
73
2
44
1
0
MTEXT
5
1CD
100
AcDbEntity
8
room_text
6
ByLayer
62
256
370
-1
100
AcDbMText
10
2350
20
2580
30
0
40
15
41
18.3333333333
71
1
72
1
1
26
7
standard
210
0
220
0
230
1
50
0
73
2
44
1
0
MTEXT
5
1CE
100
AcDbEntity
8
room_text
6
ByLayer
62
256
370
-1
100
AcDbMText
10
10
20
30
30
0
40
15
41
24.1666666667
71
1
72
1
1
0,0
7
standard
210
0
220
0
230
1
50
0
73
2
44
1
0
MTEXT
5
1CF
100
AcDbEntity
8
room_text
6
ByLayer
62
256
370
-1
100
AcDbMText
10
280
20
530
30
0
40
15
41
70.8333333333
71
1
72
1
1
360,550
7
standard
210
0
220
0
230
1
50
0
73
2
44
1
0
MTEXT
5
1D0
100
AcDbEntity
8
room_text
6
ByLayer
62
256
370
-1
100
AcDbMText
10
370
20
30
30
0
40
15
41
47.5
71
1
72
1
1
360,0
7
standard
210
0
220
0
230
1
50
0
73
2
44
1
0
MTEXT
5
1D1
100
AcDbEntity
8
room_text
6
ByLayer
62
256
370
-1
100
AcDbMText
10
610
20
530
30
0
40
15
41
70.8333333333
71
1
72
1
1
690,550
7
standard
210
0
220
0
230
1
50
0
73
2
44
1
0
MTEXT
5
1D2
100
AcDbEntity
8
room_text
6
ByLayer
62
256
370
-1
100
AcDbMText
10
700
20
30
30
0
40
15
41
47.5
71
1
72
1
1
690,0
7
standard
210
0
220
0
230
1
50
0
73
2
44
1
0
MTEXT
5
1D3
100
AcDbEntity
8
room_text
6
ByLayer
62
256
370
-1
100
AcDbMText
10
990
20
530
30
0
40
15
41
79.1666666667
71
1
72
1
1
1080,550
7
standard
210
0
220
0
230
1
50
0
73
2
44
1
0
MTEXT
5
1D4
100
AcDbEntity
8
room_text
6
ByLayer
62
256
370
-1
100
AcDbMText
10
1090
20
30
30
0
40
15
41
55.8333333333
71
1
72
1
1
1080,0
7
standard
210
0
220
0
230
1
50
0
73
2
44
1
0
MTEXT
5
1D5
100
AcDbEntity
8
room_text
6
ByLayer
62
256
370
-1
100
AcDbMText
10
1540
20
580
30
0
40
15
41
79.1666666667
71
1
72
1
1
1530,550
7
standard
210
0
220
0
230
1
50
0
73
2
44
1
0
MTEXT
5
1D6
100
AcDbEntity
8
room_text
6
ByLayer
62
256
370
-1
100
AcDbMText
10
1780
20
30
30
0
40
15
41
55.8333333333
71
1
72
1
1
1770,0
7
standard
210
0
220
0
230
1
50
0
73
2
44
1
0
MTEXT
5
1D7
100
AcDbEntity
8
room_text
6
ByLayer
62
256
370
-1
100
AcDbMText
10
2290
20
630
30
0
40
15
41
84.1666666667
71
1
72
1
1
2380,640
7
standard
210
0
220
0
230
1
50
0
73
2
44
1
0
MTEXT
5
1D8
100
AcDbEntity
8
room_text
6
ByLayer
62
256
370
-1
100
AcDbMText
10
1780
20
670
30
0
40
15
41
80.8333333333
71
1
72
1
1
1770,640
7
standard
210
0
220
0
230
1
50
0
73
2
44
1
0
MTEXT
5
1D9
100
AcDbEntity
8
room_text
6
ByLayer
62
256
370
-1
100
AcDbMText
10
2280
20
1090
30
0
40
15
41
87.5
71
1
72
1
1
2380,1100
7
standard
210
0
220
0
230
1
50
0
73
2
44
1
0
MTEXT
5
1DA
100
AcDbEntity
8
room_text
6
ByLayer
62
256
370
-1
100
AcDbMText
10
1780
20
1130
30
0
40
15
41
84.1666666667
71
1
72
1
1
1770,1100
7
standard
210
0
220
0
230
1
50
0
73
2
44
1
0
MTEXT
5
1DB
100
AcDbEntity
8
room_text
6
ByLayer
62
256
370
-1
100
AcDbMText
10
1780
20
1660
30
0
40
15
41
87.5
71
1
72
1
1
1770,1630
7
standard
210
0
220
0
230
1
50
0
73
2
44
1
0
MTEXT
5
1DC
100
AcDbEntity
8
room_text
6
ByLayer
62
256
370
-1
100
AcDbMText
10
1780
20
2150
30
0
40
15
41
87.5
71
1
72
1
1
1770,2120
7
standard
210
0
220
0
230
1
50
0
73
2
44
1
0
MTEXT
5
1DD
100
AcDbEntity
8
room_text
6
ByLayer
62
256
370
-1
100
AcDbMText
10
1780
20
2580
30
0
40
15
41
90.8333333333
71
1
72
1
1
1770,2550
7
standard
210
0
220
0
230
1
50
0
73
2
44
1
0
MTEXT
5
1DE
100
AcDbEntity
8
room_text
6
ByLayer
62
256
370
-1
100
AcDbMText
10
10
20
820
30
0
40
15
41
47.5
71
1
72
1
1
0,790
7
standard
210
0
220
0
230
1
50
0
73
2
44
1
0
MTEXT
5
1DF
100
AcDbEntity
8
room_text
6
ByLayer
62
256
370
-1
100
AcDbMText
10
360
20
820
30
0
40
15
41
70.8333333333
71
1
72
1
1
350,790
7
standard
210
0
220
0
230
1
50
0
73
2
44
1
0
MTEXT
5
1E0
100
AcDbEntity
8
room_text
6
ByLayer
62
256
370
-1
100
AcDbMText
10
840
20
820
30
0
40
15
41
70.8333333333
71
1
72
1
1
830,790
7
standard
210
0
220
0
230
1
50
0
73
2
44
1
0
MTEXT
5
1E1
100
AcDbEntity
8
room_text
6
ByLayer
62
256
370
-1
100
AcDbMText
10
1200
20
820
30
0
40
15
41
75.8333333333
71
1
72
1
1
1190,790
7
standard
210
0
220
0
230
1
50
0
73
2
44
1
0
MTEXT
5
1E2
100
AcDbEntity
8
room_text
6
ByLayer
62
256
370
-1
100
AcDbMText
10
10
20
1390
30
0
40
15
41
55.8333333333
71
1
72
1
1
0,1380
7
standard
210
0
220
0
230
1
50
0
73
2
44
1
0
MTEXT
5
1E3
100
AcDbEntity
8
room_text
6
ByLayer
62
256
370
-1
100
AcDbMText
10
360
20
1390
30
0
40
15
41
79.1666666667
71
1
72
1
1
350,1360
7
standard
210
0
220
0
230
1
50
0
73
2
44
1
0
MTEXT
5
1E4
100
AcDbEntity
8
room_text
6
ByLayer
62
256
370
-1
100
AcDbMText
10
840
20
1320
30
0
40
15
41
79.1666666667
71
1
72
1
1
830,1290
7
standard
210
0
220
0
230
1
50
0
73
2
44
1
0
MTEXT
5
1E5
100
AcDbEntity
8
room_text
6
ByLayer
62
256
370
-1
100
AcDbMText
10
1200
20
1200
30
0
40
15
41
80.8333333333
71
1
72
1
1
1190,1170
7
standard
210
0
220
0
230
1
50
0
73
2
44
1
0
MTEXT
5
1E6
100
AcDbEntity
8
room_text
6
ByLayer
62
256
370
-1
100
AcDbMText
10
10
20
2010
30
0
40
15
41
55.8333333333
71
1
72
1
1
0,1980
7
standard
210
0
220
0
230
1
50
0
73
2
44
1
0
MTEXT
5
1E7
100
AcDbEntity
8
room_text
6
ByLayer
62
256
370
-1
100
AcDbMText
10
10
20
2770
30
0
40
15
41
60.8333333333
71
1
72
1
1
0,2740
7
standard
210
0
220
0
230
1
50
0
73
2
44
1
0
MTEXT
5
1E8
100
AcDbEntity
8
room_text
6
ByLayer
62
256
370
-1
100
AcDbMText
10
430
20
2770
30
0
40
15
41
85.8333333333
71
1
72
1
1
420,2740
7
standard
210
0
220
0
230
1
50
0
73
2
44
1
0
MTEXT
5
1E9
100
AcDbEntity
8
room_text
6
ByLayer
62
256
370
-1
100
AcDbMText
10
840
20
2770
30
0
40
15
41
84.1666666667
71
1
72
1
1
830,2740
7
standard
210
0
220
0
230
1
50
0
73
2
44
1
0
MTEXT
5
1EA
100
AcDbEntity
8
room_text
6
ByLayer
62
256
370
-1
100
AcDbMText
10
1240
20
2770
30
0
40
15
41
92.5
71
1
72
1
1
1230,2740
7
standard
210
0
220
0
230
1
50
0
73
2
44
1
0
MTEXT
5
1EB
100
AcDbEntity
8
room_text
6
ByLayer
62
256
370
-1
100
AcDbMText
10
330
20
3200
30
0
40
15
41
80.8333333333
71
1
72
1
1
420,3210
7
standard
210
0
220
0
230
1
50
0
73
2
44
1
0
MTEXT
5
1EC
100
AcDbEntity
8
room_text
6
ByLayer
62
256
370
-1
100
AcDbMText
10
740
20
3200
30
0
40
15
41
79.1666666667
71
1
72
1
1
830,3210
7
standard
210
0
220
0
230
1
50
0
73
2
44
1
0
MTEXT
5
1ED
100
AcDbEntity
8
room_text
6
ByLayer
62
256
370
-1
100
AcDbMText
10
1130
20
3200
30
0
40
15
41
87.5
71
1
72
1
1
1230,3210
7
standard
210
0
220
0
230
1
50
0
73
2
44
1
0
MTEXT
5
1EE
100
AcDbEntity
8
room_text
6
ByLayer
62
256
370
-1
100
AcDbMText
10
1480
20
3200
30
0
40
15
41
87.5
71
1
72
1
1
1580,3210
7
standard
210
0
220
0
230
1
50
0
73
2
44
1
0
MTEXT
5
1EF
100
AcDbEntity
8
room_text
6
ByLayer
62
256
370
-1
100
AcDbMText
10
2280
20
3200
30
0
40
15
41
90.8333333333
71
1
72
1
1
2380,3210
7
standard
210
0
220
0
230
1
50
0
73
2
44
1
0
MTEXT
5
1F0
100
AcDbEntity
8
room_text
6
ByLayer
62
256
370
-1
100
AcDbMText
10
360
20
2540
30
0
40
15
41
79.1666666667
71
1
72
1
1
350,2510
7
standard
210
0
220
0
230
1
50
0
73
2
44
1
0
MTEXT
5
1F1
100
AcDbEntity
8
room_text
6
ByLayer
62
256
370
-1
100
AcDbMText
10
360
20
2010
30
0
40
15
41
79.1666666667
71
1
72
1
1
350,1980
7
standard
210
0
220
0
230
1
50
0
73
2
44
1
0
MTEXT
5
1F2
100
AcDbEntity
8
room_text
6
ByLayer
62
256
370
-1
100
AcDbMText
10
840
20
2070
30
0
40
15
41
84.1666666667
71
1
72
1
1
830,2040
7
standard
210
0
220
0
230
1
50
0
73
2
44
1
0
MTEXT
5
1F3
100
AcDbEntity
8
room_text
6
ByLayer
62
256
370
-1
100
AcDbMText
10
1100
20
1280
30
0
40
15
41
84.1666666667
71
1
72
1
1
1190,1290
7
standard
210
0
220
0
230
1
50
0
73
2
44
1
0
MTEXT
5
1F4
100
AcDbEntity
8
room_text
6
ByLayer
62
256
370
-1
100
AcDbMText
10
1200
20
1660
30
0
40
15
41
84.1666666667
71
1
72
1
1
1190,1630
7
standard
210
0
220
0
230
1
50
0
73
2
44
1
0
MTEXT
5
1F5
100
AcDbEntity
8
room_text
6
ByLayer
62
256
370
-1
100
AcDbMText
10
1090
20
2030
30
0
40
15
41
89.1666666667
71
1
72
1
1
1190,2040
7
standard
210
0
220
0
230
1
50
0
73
2
44
1
0
MTEXT
5
1F6
100
AcDbEntity
8
room_text
6
ByLayer
62
256
370
-1
100
AcDbMText
10
1090
20
2500
30
0
40
15
41
84.1666666667
71
1
72
1
1
1190,2510
7
standard
210
0
220
0
230
1
50
0
73
2
44
1
0
MTEXT
5
1F7
100
AcDbEntity
8
room_text
6
ByLayer
62
256
370
-1
100
AcDbMText
10
640
20
2540
30
0
40
15
41
79.1666666667
71
1
72
1
1
630,2510
7
standard
210
0
220
0
230
1
50
0
73
2
44
1
0
MTEXT
5
1F8
100
AcDbEntity
8
room_text
6
ByLayer
62
256
370
-1
100
AcDbMText
10
540
20
1970
30
0
40
15
41
79.1666666667
71
1
72
1
1
630,1980
7
standard
210
0
220
0
230
1
50
0
73
2
44
1
0
MTEXT
5
1F9
100
AcDbEntity
8
room_text
6
ByLayer
62
256
370
-1
100
AcDbMText
10
540
20
1350
30
0
40
15
41
79.1666666667
71
1
72
1
1
630,1360
7
standard
210
0
220
0
230
1
50
0
73
2
44
1
0
MTEXT
5
1FA
100
AcDbEntity
8
room_text
6
ByLayer
62
256
370
-1
100
AcDbMText
10
1430
20
1160
30
0
40
15
41
84.1666666667
71
1
72
1
1
1530,1170
7
standard
210
0
220
0
230
1
50
0
73
2
44
1
0
MTEXT
5
1FB
100
AcDbEntity
8
room_text
6
ByLayer
62
256
370
-1
100
AcDbMText
10
1430
20
1620
30
0
40
15
41
87.5
71
1
72
1
1
1530,1630
7
standard
210
0
220
0
230
1
50
0
73
2
44
1
0
MTEXT
5
1FC
100
AcDbEntity
8
room_text
6
ByLayer
62
256
370
-1
100
AcDbMText
10
1540
20
2540
30
0
40
15
41
87.5
71
1
72
1
1
1530,2510
7
standard
210
0
220
0
230
1
50
0
73
2
44
1
0
MTEXT
5
1FD
100
AcDbEntity
8
room_text
6
ByLayer
62
256
370
-1
100
AcDbMText
10
2270
20
2540
30
0
40
15
41
94.1666666667
71
1
72
1
1
2380,2550
7
standard
210
0
220
0
230
1
50
0
73
2
44
1
0
MTEXT
5
1FE
100
AcDbEntity
8
room_text
6
ByLayer
62
256
370
-1
100
AcDbMText
10
2280
20
2110
30
0
40
15
41
90.8333333333
71
1
72
1
1
2380,2120
7
standard
210
0
220
0
230
1
50
0
73
2
44
1
0
MTEXT
5
1FF
100
AcDbEntity
8
room_text
6
ByLayer
62
256
370
-1
100
AcDbMText
10
2280
20
1620
30
0
40
15
41
90.8333333333
71
1
72
1
1
2380,1630
7
standard
210
0
220
0
230
1
50
0
73
2
44
1
0
MTEXT
5
200
100
AcDbEntity
8
rfid_text
6
ByLayer
62
256
370
-1
100
AcDbMText
10
1660
20
170
30
0
40
15
41
107.083333333
71
1
72
1
1
01 1650,150
7
standard
210
0
220
0
230
1
50
0
73
2
44
1
0
MTEXT
5
201
100
AcDbEntity
8
rfid_text
6
ByLayer
62
256
370
-1
100
AcDbMText
10
1660
20
530
30
0
40
15
41
110.416666667
71
1
72
1
1
02 1650,510
7
standard
210
0
220
0
230
1
50
0
73
2
44
1
0
MTEXT
5
202
100
AcDbEntity
8
rfid_text
6
ByLayer
62
256
370
-1
100
AcDbMText
10
370
20
700
30
0
40
15
41
107.083333333
71
1
72
1
1
04 370,670
7
standard
210
0
220
0
230
1
50
0
73
2
44
1
0
MTEXT
5
203
100
AcDbEntity
8
rfid_text
6
ByLayer
62
256
370
-1
100
AcDbMText
10
0
20
700
30
0
40
15
41
18.3333333333
71
1
72
1
1
03
7
standard
210
0
220
0
230
1
50
0
73
2
44
1
0
MTEXT
5
204
100
AcDbEntity
8
rfid_text
6
ByLayer
62
256
370
-1
100
AcDbMText
10
840
20
700
30
0
40
15
41
107.083333333
71
1
72
1
1
05 840,670
7
standard
210
0
220
0
230
1
50
0
73
2
44
1
0
MTEXT
5
205
100
AcDbEntity
8
rfid_text
6
ByLayer
62
256
370
-1
100
AcDbMText
10
1250
20
700
30
0
40
15
41
113.75
71
1
72
1
1
06 1250,670
7
standard
210
0
220
0
230
1
50
0
73
2
44
1
0
MTEXT
5
206
100
AcDbEntity
8
rfid_text
6
ByLayer
62
256
370
-1
100
AcDbMText
10
1660
20
920
30
0
40
15
41
113.75
71
1
72
1
1
07 1650,920
7
standard
210
0
220
0
230
1
50
0
73
2
44
1
0
MTEXT
5
207
100
AcDbEntity
8
rfid_text
6
ByLayer
62
256
370
-1
100
AcDbMText
10
1660
20
1250
30
0
40
15
41
122.083333333
71
1
72
1
1
08 1650,1250
7
standard
210
0
220
0
230
1
50
0
73
2
44
1
0
MTEXT
5
208
100
AcDbEntity
8
rfid_text
6
ByLayer
62
256
370
-1
100
AcDbMText
10
1620
20
1730
30
0
40
15
41
123.75
71
1
72
1
1
09 1650,1740
7
standard
210
0
220
0
230
1
50
0
73
2
44
1
0
MTEXT
5
209
100
AcDbEntity
8
rfid_text
6
ByLayer
62
256
370
-1
100
AcDbMText
10
1630
20
2190
30
0
40
15
41
122.083333333
71
1
72
1
1
10 1650,2200
7
standard
210
0
220
0
230
1
50
0
73
2
44
1
0
MTEXT
5
20A
100
AcDbEntity
8
rfid_text
6
ByLayer
62
256
370
-1
100
AcDbMText
10
710
20
1080
30
0
40
15
41
107.083333333
71
1
72
1
1
11 730,1060
7
standard
210
0
220
0
230
1
50
0
73
2
44
1
0
MTEXT
5
20B
100
AcDbEntity
8
rfid_text
6
ByLayer
62
256
370
-1
100
AcDbMText
10
710
20
1410
30
0
40
15
41
110.416666667
71
1
72
1
1
12 730,1390
7
standard
210
0
220
0
230
1
50
0
73
2
44
1
0
MTEXT
5
20C
100
AcDbEntity
8
rfid_text
6
ByLayer
62
256
370
-1
100
AcDbMText
10
710
20
1850
30
0
40
15
41
110.416666667
71
1
72
1
1
13 730,1830
7
standard
210
0
220
0
230
1
50
0
73
2
44
1
0
MTEXT
5
20D
100
AcDbEntity
8
rfid_text
6
ByLayer
62
256
370
-1
100
AcDbMText
10
710
20
2320
30
0
40
15
41
115.416666667
71
1
72
1
1
14 730,2300
7
standard
210
0
220
0
230
1
50
0
73
2
44
1
0
MTEXT
5
20E
100
AcDbEntity
8
rfid_text
6
ByLayer
62
256
370
-1
100
AcDbMText
10
0
20
2650
30
0
40
15
41
15
71
1
72
1
1
15
7
standard
210
0
220
0
230
1
50
0
73
2
44
1
0
MTEXT
5
20F
100
AcDbEntity
8
node_text
6
ByLayer
62
256
370
-1
100
AcDbMText
10
10
20
2620
30
0
40
15
41
93.75
71
1
72
1
1
58 0,2625
7
standard
210
0
220
0
230
1
50
0
73
2
44
1
0
MTEXT
5
210
100
AcDbEntity
8
node_text
6
ByLayer
62
256
370
-1
100
AcDbMText
10
200
20
2620
30
0
40
15
41
113.75
71
1
72
1
1
59 190,2625
7
standard
210
0
220
0
230
1
50
0
73
2
44
1
0
MTEXT
5
211
100
AcDbEntity
8
node_text
6
ByLayer
62
256
370
-1
100
AcDbMText
10
500
20
2620
30
0
40
15
41
118.75
71
1
72
1
1
60 490,2625
7
standard
210
0
220
0
230
1
50
0
73
2
44
1
0
MTEXT
5
212
100
AcDbEntity
8
node_text
6
ByLayer
62
256
370
-1
100
AcDbMText
10
650
20
2620
30
0
40
15
41
115.416666667
71
1
72
1
1
61 640,2625
7
standard
210
0
220
0
230
1
50
0
73
2
44
1
0
MTEXT
5
213
100
AcDbEntity
8
node_text
6
ByLayer
62
256
370
-1
100
AcDbMText
10
1040
20
2620
30
0
40
15
41
125.416666667
71
1
72
1
1
63 1030,2625
7
standard
210
0
220
0
230
1
50
0
73
2
44
1
0
MTEXT
5
214
100
AcDbEntity
8
node_text
6
ByLayer
62
256
370
-1
100
AcDbMText
10
1380
20
2620
30
0
40
15
41
127.083333333
71
1
72
1
1
64 1370,2625
7
standard
210
0
220
0
230
1
50
0
73
2
44
1
0
MTEXT
5
215
100
AcDbEntity
8
node_text
6
ByLayer
62
256
370
-1
100
AcDbMText
10
1660
20
2620
30
0
40
15
41
125.416666667
71
1
72
1
1
65 1650,2625
7
standard
210
0
220
0
230
1
50
0
73
2
44
1
0
POINT
5
216
100
AcDbEntity
8
rfid
6
ByLayer
62
256
370
-1
100
AcDbPoint
10
448
20
2625
0
MTEXT
5
217
100
AcDbEntity
8
rfid_text
6
ByLayer
62
256
370
-1
100
AcDbMText
10
410
20
2650
30
0
40
15
41
117.083333333
71
1
72
1
1
16 448,2625
7
standard
210
0
220
0
230
1
50
0
73
2
44
1
0
MTEXT
5
218
100
AcDbEntity
8
rfid_text
6
ByLayer
62
256
370
-1
100
AcDbMText
10
820
20
2610
30
0
40
15
41
113.75
71
1
72
1
1
17 860,2625
7
standard
210
0
220
0
230
1
50
0
73
2
44
1
0
MTEXT
5
219
100
AcDbEntity
8
rfid_text
6
ByLayer
62
256
370
-1
100
AcDbMText
10
1240
20
2650
30
0
40
15
41
118.75
71
1
72
1
1
18 1281,2625
7
standard
210
0
220
0
230
1
50
0
73
2
44
1
0
MTEXT
5
21A
100
AcDbEntity
8
rfid_text
6
ByLayer
62
256
370
-1
100
AcDbMText
10
1620
20
2590
30
0
40
15
41
122.083333333
71
1
72
1
1
19 1650,2625
7
standard
210
0
220
0
230
1
50
0
73
2
44
1
0
LINE
5
21B
100
AcDbEntity
8
hall
6
ByLayer
62
256
370
-1
100
AcDbLine
10
0
20
550
11
1770
21
550
0
LINE
5
21C
100
AcDbEntity
8
hall
6
ByLayer
62
256
370
-1
100
AcDbLine
10
1770
20
550
11
1770
21
790
0
LINE
5
21D
100
AcDbEntity
8
hall
6
ByLayer
62
256
370
-1
100
AcDbLine
10
1770
20
790
11
0
21
790
0
LINE
5
21E
100
AcDbEntity
8
hall
6
ByLayer
62
256
370
-1
100
AcDbLine
10
0
20
790
11
0
21
550
0
LINE
5
21F
100
AcDbEntity
8
hall
6
ByLayer
62
256
370
-1
100
AcDbLine
10
1530
20
0
11
1770
21
0
0
LINE
5
220
100
AcDbEntity
8
hall
6
ByLayer
62
256
370
-1
100
AcDbLine
10
1770
20
0
11
1770
21
2740
0
LINE
5
221
100
AcDbEntity
8
hall
6
ByLayer
62
256
370
-1
100
AcDbLine
10
1770
20
2740
11
1530
21
2740
0
LINE
5
222
100
AcDbEntity
8
hall
6
ByLayer
62
256
370
-1
100
AcDbLine
10
1530
20
2740
11
1530
21
0
0
LINE
5
223
100
AcDbEntity
8
hall
6
ByLayer
62
256
370
-1
100
AcDbLine
10
1770
20
2500
11
1770
21
2740
0
LINE
5
224
100
AcDbEntity
8
hall
6
ByLayer
62
256
370
-1
100
AcDbLine
10
1770
20
2740
11
0
21
2740
0
LINE
5
225
100
AcDbEntity
8
hall
6
ByLayer
62
256
370
-1
100
AcDbLine
10
0
20
2740
11
0
21
2500
0
LINE
5
226
100
AcDbEntity
8
hall
6
ByLayer
62
256
370
-1
100
AcDbLine
10
630
20
550
11
830
21
550
0
LINE
5
227
100
AcDbEntity
8
hall
6
ByLayer
62
256
370
-1
100
AcDbLine
10
830
20
550
11
830
21
2740
0
LINE
5
228
100
AcDbEntity
8
hall
6
ByLayer
62
256
370
-1
100
AcDbLine
10
830
20
2740
11
630
21
2740
0
LINE
5
229
100
AcDbEntity
8
hall
6
ByLayer
62
256
370
-1
100
AcDbLine
10
630
20
2740
11
630
21
550
0
LINE
5
22A
100
AcDbEntity
8
hall
6
ByLayer
62
256
370
-1
100
AcDbLine
10
0
20
2510
11
1770
21
2510
0
MTEXT
5
22B
100
AcDbEntity
8
hall_text
6
ByLayer
62
256
370
-1
100
AcDbMText
10
10
20
540
30
0
40
15
41
47.5
71
1
72
1
1
0,550
7
standard
210
0
220
0
230
1
50
0
73
2
44
1
0
MTEXT
5
22C
100
AcDbEntity
8
hall_text
6
ByLayer
62
256
370
-1
100
AcDbMText
10
1780
20
790
30
0
40
15
41
79.1666666667
71
1
72
1
1
1770,700
7
standard
210
0
220
0
230
1
50
0
73
2
44
1
0
MTEXT
5
22D
100
AcDbEntity
8
hall_text
6
ByLayer
62
256
370
-1
100
AcDbMText
10
1540
20
30
30
0
40
15
41
55.8333333333
71
1
72
1
1
1530,0
7
standard
210
0
220
0
230
1
50
0
73
2
44
1
0
MTEXT
5
22E
100
AcDbEntity
8
hall_text
6
ByLayer
62
256
370
-1
100
AcDbMText
10
1780
20
2740
30
0
40
15
41
92.5
71
1
72
1
1
1770,2740
7
standard
210
0
220
0
230
1
50
0
73
2
44
1
0
MTEXT
5
22F
100
AcDbEntity
8
hall_text
6
ByLayer
62
256
370
-1
100
AcDbMText
10
10
20
2500
30
0
40
15
41
55.8333333333
71
1
72
1
1
0,2510
7
standard
210
0
220
0
230
1
50
0
73
2
44
1
0
MTEXT
5
230
100
AcDbEntity
8
hall_text
6
ByLayer
62
256
370
-1
100
AcDbMText
10
640
20
580
30
0
40
15
41
70.8333333333
71
1
72
1
1
630,550
7
standard
210
0
220
0
230
1
50
0
73
2
44
1
0
MTEXT
5
231
100
AcDbEntity
8
node_text
6
ByLayer
62
256
370
-1
100
AcDbMText
10
2090
20
840
30
0
40
15
41
117.083333333
71
1
72
1
1
77 2080,850
7
standard
210
0
220
0
230
1
50
0
73
2
44
1
0
MTEXT
5
232
100
AcDbEntity
8
hall_text
6
ByLayer
62
256
370
-1
100
AcDbMText
10
0
20
-20
30
0
40
15
41
31.6666666667
71
1
72
1
1
59:1
7
standard
210
0
220
0
230
1
50
0
73
2
44
1
0
POINT
5
233
100
AcDbEntity
8
rfid2
6
ByLayer
62
256
370
-1
100
AcDbPoint
10
130
20
670
0
CIRCLE
5
234
100
AcDbEntity
8
rfid2
6
ByLayer
62
256
370
-1
100
AcDbCircle
10
130
20
670
40
120
0
CIRCLE
5
235
100
AcDbEntity
8
rfid2
6
ByLayer
62
256
370
-1
100
AcDbCircle
10
410
20
670
40
120
0
POINT
5
236
100
AcDbEntity
8
rfid2
6
ByLayer
62
256
370
-1
100
AcDbPoint
10
410
20
670
0
CIRCLE
5
237
100
AcDbEntity
8
rfid2
6
ByLayer
62
256
370
-1
100
AcDbCircle
10
690
20
670
40
120
0
POINT
5
238
100
AcDbEntity
8
rfid2
6
ByLayer
62
256
370
-1
100
AcDbPoint
10
690
20
670
0
CIRCLE
5
239
100
AcDbEntity
8
rfid2
6
ByLayer
62
256
370
-1
100
AcDbCircle
10
970
20
670
40
120
0
POINT
5
23A
100
AcDbEntity
8
rfid2
6
ByLayer
62
256
370
-1
100
AcDbPoint
10
970
20
670
0
CIRCLE
5
23B
100
AcDbEntity
8
rfid2
6
ByLayer
62
256
370
-1
100
AcDbCircle
10
1250
20
670
40
120
0
POINT
5
23C
100
AcDbEntity
8
rfid2
6
ByLayer
62
256
370
-1
100
AcDbPoint
10
1250
20
670
0
CIRCLE
5
23D
100
AcDbEntity
8
rfid2
6
ByLayer
62
256
370
-1
100
AcDbCircle
10
1530
20
670
40
120
0
POINT
5
23E
100
AcDbEntity
8
rfid2
6
ByLayer
62
256
370
-1
100
AcDbPoint
10
1530
20
670
0
CIRCLE
5
23F
100
AcDbEntity
8
rfid2
6
ByLayer
62
256
370
-1
100
AcDbCircle
10
1650
20
120
40
120
0
POINT
5
240
100
AcDbEntity
8
rfid2
6
ByLayer
62
256
370
-1
100
AcDbPoint
10
1650
20
120
0
CIRCLE
5
241
100
AcDbEntity
8
rfid2
6
ByLayer
62
256
370
-1
100
AcDbCircle
10
1650
20
400
40
120
0
POINT
5
242
100
AcDbEntity
8
rfid2
6
ByLayer
62
256
370
-1
100
AcDbPoint
10
1650
20
400
0
CIRCLE
5
243
100
AcDbEntity
8
rfid2
6
ByLayer
62
256
370
-1
100
AcDbCircle
10
1650
20
910
40
120
0
POINT
5
244
100
AcDbEntity
8
rfid2
6
ByLayer
62
256
370
-1
100
AcDbPoint
10
1650
20
910
0
CIRCLE
5
245
100
AcDbEntity
8
rfid2
6
ByLayer
62
256
370
-1
100
AcDbCircle
10
1650
20
1190
40
120
0
POINT
5
246
100
AcDbEntity
8
rfid2
6
ByLayer
62
256
370
-1
100
AcDbPoint
10
1650
20
1190
0
CIRCLE
5
247
100
AcDbEntity
8
rfid2
6
ByLayer
62
256
370
-1
100
AcDbCircle
10
1650
20
1470
40
120
0
POINT
5
248
100
AcDbEntity
8
rfid2
6
ByLayer
62
256
370
-1
100
AcDbPoint
10
1650
20
1470
0
CIRCLE
5
249
100
AcDbEntity
8
rfid2
6
ByLayer
62
256
370
-1
100
AcDbCircle
10
1650
20
1750
40
120
0
POINT
5
24A
100
AcDbEntity
8
rfid2
6
ByLayer
62
256
370
-1
100
AcDbPoint
10
1650
20
1750
0
CIRCLE
5
24B
100
AcDbEntity
8
rfid2
6
ByLayer
62
256
370
-1
100
AcDbCircle
10
1650
20
2030
40
120
0
POINT
5
24C
100
AcDbEntity
8
rfid2
6
ByLayer
62
256
370
-1
100
AcDbPoint
10
1650
20
2030
0
CIRCLE
5
24D
100
AcDbEntity
8
rfid2
6
ByLayer
62
256
370
-1
100
AcDbCircle
10
1650
20
2310
40
120
0
POINT
5
24E
100
AcDbEntity
8
rfid2
6
ByLayer
62
256
370
-1
100
AcDbPoint
10
1650
20
2310
0
CIRCLE
5
24F
100
AcDbEntity
8
rfid2
6
ByLayer
62
256
370
-1
100
AcDbCircle
10
1650
20
2590
40
120
0
POINT
5
250
100
AcDbEntity
8
rfid2
6
ByLayer
62
256
370
-1
100
AcDbPoint
10
1650
20
2590
0
POINT
5
251
100
AcDbEntity
8
rfid2
6
ByLayer
62
256
370
-1
100
AcDbPoint
10
1400
20
2625
0
CIRCLE
5
252
100
AcDbEntity
8
rfid2
6
ByLayer
62
256
370
-1
100
AcDbCircle
10
1400
20
2625
40
115
0
CIRCLE
5
253
100
AcDbEntity
8
rfid2
6
ByLayer
62
256
370
-1
100
AcDbCircle
10
730
20
2410
40
100
0
POINT
5
254
100
AcDbEntity
8
rfid2
6
ByLayer
62
256
370
-1
100
AcDbPoint
10
730
20
2410
0
MTEXT
5
255
100
AcDbEntity
8
rfid_text2
6
ByLayer
62
256
370
-1
100
AcDbMText
10
80
20
700
30
0
40
15
41
98.75
71
1
72
1
1
01 130,670
7
standard
210
0
220
0
230
1
50
0
73
2
44
1
0
MTEXT
5
256
100
AcDbEntity
8
rfid_text2
6
ByLayer
62
256
370
-1
100
AcDbMText
10
360
20
700
30
0
40
15
41
103.75
71
1
72
1
1
02 410,670
7
standard
210
0
220
0
230
1
50
0
73
2
44
1
0
MTEXT
5
257
100
AcDbEntity
8
rfid_text2
6
ByLayer
62
256
370
-1
100
AcDbMText
10
620
20
700
30
0
40
15
41
105.416666667
71
1
72
1
1
03 690,670
7
standard
210
0
220
0
230
1
50
0
73
2
44
1
0
MTEXT
5
258
100
AcDbEntity
8
rfid_text2
6
ByLayer
62
256
370
-1
100
AcDbMText
10
920
20
700
30
0
40
15
41
107.083333333
71
1
72
1
1
04 970,670
7
standard
210
0
220
0
230
1
50
0
73
2
44
1
0
MTEXT
5
259
100
AcDbEntity
8
rfid_text2
6
ByLayer
62
256
370
-1
100
AcDbMText
10
1200
20
700
30
0
40
15
41
113.75
71
1
72
1
1
05 1250,670
7
standard
210
0
220
0
230
1
50
0
73
2
44
1
0
MTEXT
5
25A
100
AcDbEntity
8
rfid_text2
6
ByLayer
62
256
370
-1
100
AcDbMText
10
1490
20
700
30
0
40
15
41
113.75
71
1
72
1
1
06 1530,670
7
standard
210
0
220
0
230
1
50
0
73
2
44
1
0
MTEXT
5
25B
100
AcDbEntity
8
rfid_text2
6
ByLayer
62
256
370
-1
100
AcDbMText
10
1620
20
110
30
0
40
15
41
110.416666667
71
1
72
1
1
07 1650,120
7
standard
210
0
220
0
230
1
50
0
73
2
44
1
0
MTEXT
5
25C
100
AcDbEntity
8
rfid_text2
6
ByLayer
62
256
370
-1
100
AcDbMText
10
1620
20
390
30
0
40
15
41
115.416666667
71
1
72
1
1
08 1650,400
7
standard
210
0
220
0
230
1
50
0
73
2
44
1
0
MTEXT
5
25D
100
AcDbEntity
8
rfid_text2
6
ByLayer
62
256
370
-1
100
AcDbMText
10
1620
20
900
30
0
40
15
41
110.416666667
71
1
72
1
1
09 1650,910
7
standard
210
0
220
0
230
1
50
0
73
2
44
1
0
MTEXT
5
25E
100
AcDbEntity
8
rfid_text2
6
ByLayer
62
256
370
-1
100
AcDbMText
10
1630
20
1180
30
0
40
15
41
115.416666667
71
1
72
1
1
10 1650,1190
7
standard
210
0
220
0
230
1
50
0
73
2
44
1
0
MTEXT
5
25F
100
AcDbEntity
8
rfid_text2
6
ByLayer
62
256
370
-1
100
AcDbMText
10
1630
20
1500
30
0
40
15
41
117.083333333
71
1
72
1
1
11 1650,1470
7
standard
210
0
220
0
230
1
50
0
73
2
44
1
0
MTEXT
5
260
100
AcDbEntity
8
rfid_text2
6
ByLayer
62
256
370
-1
100
AcDbMText
10
1630
20
1740
30
0
40
15
41
118.75
71
1
72
1
1
12 1650,1750
7
standard
210
0
220
0
230
1
50
0
73
2
44
1
0
MTEXT
5
261
100
AcDbEntity
8
rfid_text2
6
ByLayer
62
256
370
-1
100
AcDbMText
10
1630
20
2020
30
0
40
15
41
122.083333333
71
1
72
1
1
13 1650,2030
7
standard
210
0
220
0
230
1
50
0
73
2
44
1
0
MTEXT
5
262
100
AcDbEntity
8
rfid_text2
6
ByLayer
62
256
370
-1
100
AcDbMText
10
1630
20
2300
30
0
40
15
41
120.416666667
71
1
72
1
1
14 1650,2310
7
standard
210
0
220
0
230
1
50
0
73
2
44
1
0
MTEXT
5
263
100
AcDbEntity
8
rfid_text2
6
ByLayer
62
256
370
-1
100
AcDbMText
10
1630
20
2580
30
0
40
15
41
122.083333333
71
1
72
1
1
15 1650,2590
7
standard
210
0
220
0
230
1
50
0
73
2
44
1
0
MTEXT
5
264
100
AcDbEntity
8
rfid_text2
6
ByLayer
62
256
370
-1
100
AcDbMText
10
1380
20
2650
30
0
40
15
41
123.75
71
1
72
1
1
16 1400,2525
7
standard
210
0
220
0
230
1
50
0
73
2
44
1
0
POINT
5
265
100
AcDbEntity
8
rfid2
6
ByLayer
62
256
370
-1
100
AcDbPoint
10
1140
20
2625
0
CIRCLE
5
266
100
AcDbEntity
8
rfid2
6
ByLayer
62
256
370
-1
100
AcDbCircle
10
1140
20
2625
40
115
0
POINT
5
267
100
AcDbEntity
8
rfid2
6
ByLayer
62
256
370
-1
100
AcDbPoint
10
880
20
2625
0
CIRCLE
5
268
100
AcDbEntity
8
rfid2
6
ByLayer
62
256
370
-1
100
AcDbCircle
10
880
20
2625
40
115
0
POINT
5
269
100
AcDbEntity
8
rfid2
6
ByLayer
62
256
370
-1
100
AcDbPoint
10
620
20
2625
0
CIRCLE
5
26A
100
AcDbEntity
8
rfid2
6
ByLayer
62
256
370
-1
100
AcDbCircle
10
620
20
2625
40
115
0
POINT
5
26B
100
AcDbEntity
8
rfid2
6
ByLayer
62
256
370
-1
100
AcDbPoint
10
360
20
2625
0
CIRCLE
5
26C
100
AcDbEntity
8
rfid2
6
ByLayer
62
256
370
-1
100
AcDbCircle
10
360
20
2625
40
115
0
POINT
5
26D
100
AcDbEntity
8
rfid2
6
ByLayer
62
256
370
-1
100
AcDbPoint
10
100
20
2625
0
CIRCLE
5
26E
100
AcDbEntity
8
rfid2
6
ByLayer
62
256
370
-1
100
AcDbCircle
10
100
20
2625
40
115
0
MTEXT
5
26F
100
AcDbEntity
8
rfid_text2
6
ByLayer
62
256
370
-1
100
AcDbMText
10
1100
20
2650
30
0
40
15
41
120.416666667
71
1
72
1
1
17 1140,2625
7
standard
210
0
220
0
230
1
50
0
73
2
44
1
0
MTEXT
5
270
100
AcDbEntity
8
rfid_text2
6
ByLayer
62
256
370
-1
100
AcDbMText
10
830
20
2610
30
0
40
15
41
113.75
71
1
72
1
1
18 880,2625
7
standard
210
0
220
0
230
1
50
0
73
2
44
1
0
MTEXT
5
271
100
AcDbEntity
8
rfid_text2
6
ByLayer
62
256
370
-1
100
AcDbMText
10
520
20
2650
30
0
40
15
41
113.75
71
1
72
1
1
19 620,2625
7
standard
210
0
220
0
230
1
50
0
73
2
44
1
0
MTEXT
5
272
100
AcDbEntity
8
rfid_text2
6
ByLayer
62
256
370
-1
100
AcDbMText
10
310
20
2650
30
0
40
15
41
117.083333333
71
1
72
1
1
20 360,2625
7
standard
210
0
220
0
230
1
50
0
73
2
44
1
0
MTEXT
5
273
100
AcDbEntity
8
rfid_text2
6
ByLayer
62
256
370
-1
100
AcDbMText
10
60
20
2650
30
0
40
15
41
110.416666667
71
1
72
1
1
21 100,2625
7
standard
210
0
220
0
230
1
50
0
73
2
44
1
0
MTEXT
5
274
100
AcDbEntity
8
rfid_text2
6
ByLayer
62
256
370
-1
100
AcDbMText
10
700
20
2400
30
0
40
15
41
115.416666667
71
1
72
1
1
22 730,2410
7
standard
210
0
220
0
230
1
50
0
73
2
44
1
0
CIRCLE
5
275
100
AcDbEntity
8
rfid2
6
ByLayer
62
256
370
-1
100
AcDbCircle
10
730
20
2160
40
100
0
POINT
5
276
100
AcDbEntity
8
rfid2
6
ByLayer
62
256
370
-1
100
AcDbPoint
10
730
20
2160
0
CIRCLE
5
277
100
AcDbEntity
8
rfid2
6
ByLayer
62
256
370
-1
100
AcDbCircle
10
730
20
1910
40
100
0
POINT
5
278
100
AcDbEntity
8
rfid2
6
ByLayer
62
256
370
-1
100
AcDbPoint
10
730
20
1910
0
CIRCLE
5
279
100
AcDbEntity
8
rfid2
6
ByLayer
62
256
370
-1
100
AcDbCircle
10
730
20
1660
40
100
0
POINT
5
27A
100
AcDbEntity
8
rfid2
6
ByLayer
62
256
370
-1
100
AcDbPoint
10
730
20
1660
0
CIRCLE
5
27B
100
AcDbEntity
8
rfid2
6
ByLayer
62
256
370
-1
100
AcDbCircle
10
730
20
1410
40
100
0
POINT
5
27C
100
AcDbEntity
8
rfid2
6
ByLayer
62
256
370
-1
100
AcDbPoint
10
730
20
1410
0
CIRCLE
5
27D
100
AcDbEntity
8
rfid2
6
ByLayer
62
256
370
-1
100
AcDbCircle
10
730
20
1160
40
100
0
POINT
5
27E
100
AcDbEntity
8
rfid2
6
ByLayer
62
256
370
-1
100
AcDbPoint
10
730
20
1160
0
CIRCLE
5
27F
100
AcDbEntity
8
rfid2
6
ByLayer
62
256
370
-1
100
AcDbCircle
10
730
20
910
40
100
0
POINT
5
280
100
AcDbEntity
8
rfid2
6
ByLayer
62
256
370
-1
100
AcDbPoint
10
730
20
910
0
MTEXT
5
281
100
AcDbEntity
8
rfid_text2
6
ByLayer
62
256
370
-1
100
AcDbMText
10
700
20
2150
30
0
40
15
41
113.75
71
1
72
1
1
23 730,2160
7
standard
210
0
220
0
230
1
50
0
73
2
44
1
0
MTEXT
5
282
100
AcDbEntity
8
rfid_text2
6
ByLayer
62
256
370
-1
100
AcDbMText
10
700
20
1900
30
0
40
15
41
112.083333333
71
1
72
1
1
24 730,1910
7
standard
210
0
220
0
230
1
50
0
73
2
44
1
0
MTEXT
5
283
100
AcDbEntity
8
rfid_text2
6
ByLayer
62
256
370
-1
100
AcDbMText
10
700
20
1690
30
0
40
15
41
18.3333333333
71
1
72
1
1
25
7
standard
210
0
220
0
230
1
50
0
73
2
44
1
0
MTEXT
5
284
100
AcDbEntity
8
rfid_text2
6
ByLayer
62
256
370
-1
100
AcDbMText
10
700
20
1400
30
0
40
15
41
112.083333333
71
1
72
1
1
26 730,1410
7
standard
210
0
220
0
230
1
50
0
73
2
44
1
0
MTEXT
5
285
100
AcDbEntity
8
rfid_text2
6
ByLayer
62
256
370
-1
100
AcDbMText
10
700
20
1150
30
0
40
15
41
110.416666667
71
1
72
1
1
27 730,1160
7
standard
210
0
220
0
230
1
50
0
73
2
44
1
0
MTEXT
5
286
100
AcDbEntity
8
rfid_text2
6
ByLayer
62
256
370
-1
100
AcDbMText
10
700
20
900
30
0
40
15
41
102.083333333
71
1
72
1
1
28 730,910
7
standard
210
0
220
0
230
1
50
0
73
2
44
1
0
POINT
5
287
100
AcDbEntity
8
node
6
ByLayer
62
256
370
-1
100
AcDbPoint
10
630
20
1660
0
MTEXT
5
288
100
AcDbEntity
8
node_text
6
ByLayer
62
256
370
-1
100
AcDbMText
10
640
20
1650
30
0
40
15
41
113.75
71
1
72
1
1
39 630,1660
7
standard
210
0
220
0
230
1
50
0
73
2
44
1
0
MTEXT
5
289
100
AcDbEntity
8
node_text
6
ByLayer
62
256
370
-1
100
AcDbMText
10
740
20
2660
30
0
40
15
41
117.083333333
71
1
72
1
1
62 730,2625
7
standard
210
0
220
0
230
1
50
0
73
2
44
1
0
ENDSEC
0
SECTION
2
OBJECTS
0
DICTIONARY
5
C
330
0
100
AcDbDictionary
281
1
3
ACAD_GROUP
350
D
3
ACAD_IMAGE_DICT
350
28A
0
DICTIONARY
5
D
330
C
100
AcDbDictionary
281
1
0
IMAGEDEF_REACTOR
5
52
330
S
100
AcDbRasterImageDefReactor
90
2
330
S
0
DICTIONARY
5
28A
330
C
100
AcDbDictionary
281
1
3
floorplan
350
51
0
IMAGEDEF
5
51
102
{ACAD_REACTORS
330
52
102
}
100
AcDbRasterImageDef
90
0
1
/home/gongzhitaao/Documents/simsystem/data/jiao/floorplan.jpeg
10
2550
20
3508
11
1
21
1
280
1
281
0
0
ENDSEC
0
EOF
